<?xml version="1.0" standalone="no"?>
<!DOCTYPE svg PUBLIC "-//W3C//DTD SVG 1.1//EN" "http://www.w3.org/Graphics/SVG/1.1/DTD/svg11.dtd" >
<svg xmlns="http://www.w3.org/2000/svg" xmlns:xlink="http://www.w3.org/1999/xlink" version="1.1">
<metadata>
Created by FontForge 20170924 at Mon Nov 14 14:57:41 2022
 By www
Copyright (c) 2012 by Fontfabric. All rights reserved.
</metadata>
<defs>
<font id="Nexa-Trial-Regular" horiz-adv-x="314" >
  <font-face 
    font-family="Nexa-Trial"
    font-weight="400"
    font-stretch="normal"
    units-per-em="1000"
    panose-1="0 0 0 0 0 0 0 0 0 0"
    ascent="800"
    descent="-200"
    x-height="494"
    cap-height="700"
    bbox="-88 -298 1069 715"
    underline-thickness="50"
    underline-position="-125"
    unicode-range="U+0020-2157"
  />
    <missing-glyph />
    <glyph glyph-name="space" unicode=" " horiz-adv-x="252" 
 />
    <glyph glyph-name="A" unicode="A" horiz-adv-x="762" 
d="M326 700h110l314 -700h-106l-67 153h-392l-67 -153h-106zM537 243l-156 356l-156 -356h312z" />
    <glyph glyph-name="Aacute" unicode="&#xc1;" 
d="M125 -132h86v-24h-86v-30h-22v84h22v-30zM116.5 381.5q16.5 -16.5 40.5 -16.5t40.5 16.5t16.5 41.5t-16.5 41.5t-40.5 16.5t-40.5 -16.5t-16.5 -41.5t16.5 -41.5zM211 -86v23h-37v16l37 21v26l-41 -24q-10 20 -31 20q-16 0 -26 -10.5t-10 -27.5v-44h108zM103 40h108v-24
h-108v24zM211 54v25l-20 7v43l20 8v26l-108 -44v-23zM211 176v66h-21v-42h-87v-24h108zM211 290v23h-41v38h-22v-38h-23v42h-22v-65h108zM211 499v23h-68l68 50v19h-108v-23h66l-66 -47v-22h108zM125 607v30h86v24h-86v30h-22v-84h22zM132.5 447.5q9.5 9.5 24.5 9.5t25 -9.5
t10 -24.5q0 -14 -10 -24t-25 -10t-24.5 10t-9.5 24q0 15 9.5 24.5zM124 -44q0 7 4 11.5t10 4.5q7 0 11 -4.5t4 -11.5v-19h-29v19zM170 122v-28l-39 14z" />
    <glyph glyph-name="Acircumflex" unicode="&#xc2;" 
d="M125 -132h86v-24h-86v-30h-22v84h22v-30zM116.5 381.5q16.5 -16.5 40.5 -16.5t40.5 16.5t16.5 41.5t-16.5 41.5t-40.5 16.5t-40.5 -16.5t-16.5 -41.5t16.5 -41.5zM211 -86v23h-37v16l37 21v26l-41 -24q-10 20 -31 20q-16 0 -26 -10.5t-10 -27.5v-44h108zM103 40h108v-24
h-108v24zM211 54v25l-20 7v43l20 8v26l-108 -44v-23zM211 176v66h-21v-42h-87v-24h108zM211 290v23h-41v38h-22v-38h-23v42h-22v-65h108zM211 499v23h-68l68 50v19h-108v-23h66l-66 -47v-22h108zM125 607v30h86v24h-86v30h-22v-84h22zM132.5 447.5q9.5 9.5 24.5 9.5t25 -9.5
t10 -24.5q0 -14 -10 -24t-25 -10t-24.5 10t-9.5 24q0 15 9.5 24.5zM124 -44q0 7 4 11.5t10 4.5q7 0 11 -4.5t4 -11.5v-19h-29v19zM170 122v-28l-39 14z" />
    <glyph glyph-name="Adieresis" unicode="&#xc4;" 
d="M125 -132h86v-24h-86v-30h-22v84h22v-30zM116.5 381.5q16.5 -16.5 40.5 -16.5t40.5 16.5t16.5 41.5t-16.5 41.5t-40.5 16.5t-40.5 -16.5t-16.5 -41.5t16.5 -41.5zM211 -86v23h-37v16l37 21v26l-41 -24q-10 20 -31 20q-16 0 -26 -10.5t-10 -27.5v-44h108zM103 40h108v-24
h-108v24zM211 54v25l-20 7v43l20 8v26l-108 -44v-23zM211 176v66h-21v-42h-87v-24h108zM211 290v23h-41v38h-22v-38h-23v42h-22v-65h108zM211 499v23h-68l68 50v19h-108v-23h66l-66 -47v-22h108zM125 607v30h86v24h-86v30h-22v-84h22zM132.5 447.5q9.5 9.5 24.5 9.5t25 -9.5
t10 -24.5q0 -14 -10 -24t-25 -10t-24.5 10t-9.5 24q0 15 9.5 24.5zM124 -44q0 7 4 11.5t10 4.5q7 0 11 -4.5t4 -11.5v-19h-29v19zM170 122v-28l-39 14z" />
    <glyph glyph-name="Agrave" unicode="&#xc0;" 
d="M125 -132h86v-24h-86v-30h-22v84h22v-30zM116.5 381.5q16.5 -16.5 40.5 -16.5t40.5 16.5t16.5 41.5t-16.5 41.5t-40.5 16.5t-40.5 -16.5t-16.5 -41.5t16.5 -41.5zM211 -86v23h-37v16l37 21v26l-41 -24q-10 20 -31 20q-16 0 -26 -10.5t-10 -27.5v-44h108zM103 40h108v-24
h-108v24zM211 54v25l-20 7v43l20 8v26l-108 -44v-23zM211 176v66h-21v-42h-87v-24h108zM211 290v23h-41v38h-22v-38h-23v42h-22v-65h108zM211 499v23h-68l68 50v19h-108v-23h66l-66 -47v-22h108zM125 607v30h86v24h-86v30h-22v-84h22zM132.5 447.5q9.5 9.5 24.5 9.5t25 -9.5
t10 -24.5q0 -14 -10 -24t-25 -10t-24.5 10t-9.5 24q0 15 9.5 24.5zM124 -44q0 7 4 11.5t10 4.5q7 0 11 -4.5t4 -11.5v-19h-29v19zM170 122v-28l-39 14z" />
    <glyph glyph-name="Aring" unicode="&#xc5;" 
d="M125 -132h86v-24h-86v-30h-22v84h22v-30zM116.5 381.5q16.5 -16.5 40.5 -16.5t40.5 16.5t16.5 41.5t-16.5 41.5t-40.5 16.5t-40.5 -16.5t-16.5 -41.5t16.5 -41.5zM211 -86v23h-37v16l37 21v26l-41 -24q-10 20 -31 20q-16 0 -26 -10.5t-10 -27.5v-44h108zM103 40h108v-24
h-108v24zM211 54v25l-20 7v43l20 8v26l-108 -44v-23zM211 176v66h-21v-42h-87v-24h108zM211 290v23h-41v38h-22v-38h-23v42h-22v-65h108zM211 499v23h-68l68 50v19h-108v-23h66l-66 -47v-22h108zM125 607v30h86v24h-86v30h-22v-84h22zM132.5 447.5q9.5 9.5 24.5 9.5t25 -9.5
t10 -24.5q0 -14 -10 -24t-25 -10t-24.5 10t-9.5 24q0 15 9.5 24.5zM124 -44q0 7 4 11.5t10 4.5q7 0 11 -4.5t4 -11.5v-19h-29v19zM170 122v-28l-39 14z" />
    <glyph glyph-name="Atilde" unicode="&#xc3;" 
d="M125 -132h86v-24h-86v-30h-22v84h22v-30zM116.5 381.5q16.5 -16.5 40.5 -16.5t40.5 16.5t16.5 41.5t-16.5 41.5t-40.5 16.5t-40.5 -16.5t-16.5 -41.5t16.5 -41.5zM211 -86v23h-37v16l37 21v26l-41 -24q-10 20 -31 20q-16 0 -26 -10.5t-10 -27.5v-44h108zM103 40h108v-24
h-108v24zM211 54v25l-20 7v43l20 8v26l-108 -44v-23zM211 176v66h-21v-42h-87v-24h108zM211 290v23h-41v38h-22v-38h-23v42h-22v-65h108zM211 499v23h-68l68 50v19h-108v-23h66l-66 -47v-22h108zM125 607v30h86v24h-86v30h-22v-84h22zM132.5 447.5q9.5 9.5 24.5 9.5t25 -9.5
t10 -24.5q0 -14 -10 -24t-25 -10t-24.5 10t-9.5 24q0 15 9.5 24.5zM124 -44q0 7 4 11.5t10 4.5q7 0 11 -4.5t4 -11.5v-19h-29v19zM170 122v-28l-39 14z" />
    <glyph glyph-name="AE" unicode="&#xc6;" 
d="M125 -132h86v-24h-86v-30h-22v84h22v-30zM116.5 381.5q16.5 -16.5 40.5 -16.5t40.5 16.5t16.5 41.5t-16.5 41.5t-40.5 16.5t-40.5 -16.5t-16.5 -41.5t16.5 -41.5zM211 -86v23h-37v16l37 21v26l-41 -24q-10 20 -31 20q-16 0 -26 -10.5t-10 -27.5v-44h108zM103 40h108v-24
h-108v24zM211 54v25l-20 7v43l20 8v26l-108 -44v-23zM211 176v66h-21v-42h-87v-24h108zM211 290v23h-41v38h-22v-38h-23v42h-22v-65h108zM211 499v23h-68l68 50v19h-108v-23h66l-66 -47v-22h108zM125 607v30h86v24h-86v30h-22v-84h22zM132.5 447.5q9.5 9.5 24.5 9.5t25 -9.5
t10 -24.5q0 -14 -10 -24t-25 -10t-24.5 10t-9.5 24q0 15 9.5 24.5zM124 -44q0 7 4 11.5t10 4.5q7 0 11 -4.5t4 -11.5v-19h-29v19zM170 122v-28l-39 14z" />
    <glyph glyph-name="B" unicode="B" horiz-adv-x="712" 
d="M90 700h327q104 0 164 -49t60 -135q0 -53 -24 -93.5t-67 -62.5q49 -17 81.5 -64t32.5 -104q0 -92 -64 -142t-183 -50h-327v700zM429 90q64 0 101 30.5t37 83.5q0 52 -36.5 82t-101.5 30h-242v-226h242zM421 403q59 0 92 27t33 76t-33.5 77t-91.5 28h-234v-208h234z" />
    <glyph glyph-name="C" unicode="C" horiz-adv-x="705" 
d="M222.5 32.5q-82.5 46.5 -129 129.5t-46.5 188t46.5 188t129 129.5t188.5 46.5q75 0 140.5 -27.5t117.5 -80.5l-67 -60q-74 77 -188 77q-79 0 -140 -34.5t-95 -96.5t-34 -142t34 -142t95 -96.5t140 -34.5q55 0 106 20.5t89 57.5l64 -65q-106 -104 -262 -104
q-106 0 -188.5 46.5z" />
    <glyph glyph-name="Ccedilla" unicode="&#xc7;" 
d="M125 -132h86v-24h-86v-30h-22v84h22v-30zM116.5 381.5q16.5 -16.5 40.5 -16.5t40.5 16.5t16.5 41.5t-16.5 41.5t-40.5 16.5t-40.5 -16.5t-16.5 -41.5t16.5 -41.5zM211 -86v23h-37v16l37 21v26l-41 -24q-10 20 -31 20q-16 0 -26 -10.5t-10 -27.5v-44h108zM103 40h108v-24
h-108v24zM211 54v25l-20 7v43l20 8v26l-108 -44v-23zM211 176v66h-21v-42h-87v-24h108zM211 290v23h-41v38h-22v-38h-23v42h-22v-65h108zM211 499v23h-68l68 50v19h-108v-23h66l-66 -47v-22h108zM125 607v30h86v24h-86v30h-22v-84h22zM132.5 447.5q9.5 9.5 24.5 9.5t25 -9.5
t10 -24.5q0 -14 -10 -24t-25 -10t-24.5 10t-9.5 24q0 15 9.5 24.5zM124 -44q0 7 4 11.5t10 4.5q7 0 11 -4.5t4 -11.5v-19h-29v19zM170 122v-28l-39 14z" />
    <glyph glyph-name="D" unicode="D" horiz-adv-x="748" 
d="M90 700h260q103 0 183 -44t124.5 -123.5t44.5 -182.5t-44.5 -182.5t-124.5 -123.5t-183 -44h-260v700zM350 91q74 0 131.5 33t89.5 91.5t32 134.5t-32 134.5t-89.5 91.5t-131.5 33h-163v-518h163z" />
    <glyph glyph-name="Eth" unicode="&#xd0;" 
d="M125 -132h86v-24h-86v-30h-22v84h22v-30zM116.5 381.5q16.5 -16.5 40.5 -16.5t40.5 16.5t16.5 41.5t-16.5 41.5t-40.5 16.5t-40.5 -16.5t-16.5 -41.5t16.5 -41.5zM211 -86v23h-37v16l37 21v26l-41 -24q-10 20 -31 20q-16 0 -26 -10.5t-10 -27.5v-44h108zM103 40h108v-24
h-108v24zM211 54v25l-20 7v43l20 8v26l-108 -44v-23zM211 176v66h-21v-42h-87v-24h108zM211 290v23h-41v38h-22v-38h-23v42h-22v-65h108zM211 499v23h-68l68 50v19h-108v-23h66l-66 -47v-22h108zM125 607v30h86v24h-86v30h-22v-84h22zM132.5 447.5q9.5 9.5 24.5 9.5t25 -9.5
t10 -24.5q0 -14 -10 -24t-25 -10t-24.5 10t-9.5 24q0 15 9.5 24.5zM124 -44q0 7 4 11.5t10 4.5q7 0 11 -4.5t4 -11.5v-19h-29v19zM170 122v-28l-39 14z" />
    <glyph glyph-name="E" unicode="E" horiz-adv-x="660" 
d="M90 700h507v-90h-410v-211h392v-89h-392v-219h416v-91h-513v700z" />
    <glyph glyph-name="Eacute" unicode="&#xc9;" 
d="M125 -132h86v-24h-86v-30h-22v84h22v-30zM116.5 381.5q16.5 -16.5 40.5 -16.5t40.5 16.5t16.5 41.5t-16.5 41.5t-40.5 16.5t-40.5 -16.5t-16.5 -41.5t16.5 -41.5zM211 -86v23h-37v16l37 21v26l-41 -24q-10 20 -31 20q-16 0 -26 -10.5t-10 -27.5v-44h108zM103 40h108v-24
h-108v24zM211 54v25l-20 7v43l20 8v26l-108 -44v-23zM211 176v66h-21v-42h-87v-24h108zM211 290v23h-41v38h-22v-38h-23v42h-22v-65h108zM211 499v23h-68l68 50v19h-108v-23h66l-66 -47v-22h108zM125 607v30h86v24h-86v30h-22v-84h22zM132.5 447.5q9.5 9.5 24.5 9.5t25 -9.5
t10 -24.5q0 -14 -10 -24t-25 -10t-24.5 10t-9.5 24q0 15 9.5 24.5zM124 -44q0 7 4 11.5t10 4.5q7 0 11 -4.5t4 -11.5v-19h-29v19zM170 122v-28l-39 14z" />
    <glyph glyph-name="Ecircumflex" unicode="&#xca;" 
d="M125 -132h86v-24h-86v-30h-22v84h22v-30zM116.5 381.5q16.5 -16.5 40.5 -16.5t40.5 16.5t16.5 41.5t-16.5 41.5t-40.5 16.5t-40.5 -16.5t-16.5 -41.5t16.5 -41.5zM211 -86v23h-37v16l37 21v26l-41 -24q-10 20 -31 20q-16 0 -26 -10.5t-10 -27.5v-44h108zM103 40h108v-24
h-108v24zM211 54v25l-20 7v43l20 8v26l-108 -44v-23zM211 176v66h-21v-42h-87v-24h108zM211 290v23h-41v38h-22v-38h-23v42h-22v-65h108zM211 499v23h-68l68 50v19h-108v-23h66l-66 -47v-22h108zM125 607v30h86v24h-86v30h-22v-84h22zM132.5 447.5q9.5 9.5 24.5 9.5t25 -9.5
t10 -24.5q0 -14 -10 -24t-25 -10t-24.5 10t-9.5 24q0 15 9.5 24.5zM124 -44q0 7 4 11.5t10 4.5q7 0 11 -4.5t4 -11.5v-19h-29v19zM170 122v-28l-39 14z" />
    <glyph glyph-name="Edieresis" unicode="&#xcb;" 
d="M125 -132h86v-24h-86v-30h-22v84h22v-30zM116.5 381.5q16.5 -16.5 40.5 -16.5t40.5 16.5t16.5 41.5t-16.5 41.5t-40.5 16.5t-40.5 -16.5t-16.5 -41.5t16.5 -41.5zM211 -86v23h-37v16l37 21v26l-41 -24q-10 20 -31 20q-16 0 -26 -10.5t-10 -27.5v-44h108zM103 40h108v-24
h-108v24zM211 54v25l-20 7v43l20 8v26l-108 -44v-23zM211 176v66h-21v-42h-87v-24h108zM211 290v23h-41v38h-22v-38h-23v42h-22v-65h108zM211 499v23h-68l68 50v19h-108v-23h66l-66 -47v-22h108zM125 607v30h86v24h-86v30h-22v-84h22zM132.5 447.5q9.5 9.5 24.5 9.5t25 -9.5
t10 -24.5q0 -14 -10 -24t-25 -10t-24.5 10t-9.5 24q0 15 9.5 24.5zM124 -44q0 7 4 11.5t10 4.5q7 0 11 -4.5t4 -11.5v-19h-29v19zM170 122v-28l-39 14z" />
    <glyph glyph-name="Egrave" unicode="&#xc8;" 
d="M125 -132h86v-24h-86v-30h-22v84h22v-30zM116.5 381.5q16.5 -16.5 40.5 -16.5t40.5 16.5t16.5 41.5t-16.5 41.5t-40.5 16.5t-40.5 -16.5t-16.5 -41.5t16.5 -41.5zM211 -86v23h-37v16l37 21v26l-41 -24q-10 20 -31 20q-16 0 -26 -10.5t-10 -27.5v-44h108zM103 40h108v-24
h-108v24zM211 54v25l-20 7v43l20 8v26l-108 -44v-23zM211 176v66h-21v-42h-87v-24h108zM211 290v23h-41v38h-22v-38h-23v42h-22v-65h108zM211 499v23h-68l68 50v19h-108v-23h66l-66 -47v-22h108zM125 607v30h86v24h-86v30h-22v-84h22zM132.5 447.5q9.5 9.5 24.5 9.5t25 -9.5
t10 -24.5q0 -14 -10 -24t-25 -10t-24.5 10t-9.5 24q0 15 9.5 24.5zM124 -44q0 7 4 11.5t10 4.5q7 0 11 -4.5t4 -11.5v-19h-29v19zM170 122v-28l-39 14z" />
    <glyph glyph-name="F" unicode="F" horiz-adv-x="622" 
d="M90 700h486v-91h-389v-237h369v-90h-369v-282h-97v700z" />
    <glyph glyph-name="G" unicode="G" horiz-adv-x="743" 
d="M218.5 31.5q-81.5 45.5 -126.5 128t-45 190.5q0 106 46.5 188.5t129.5 129t190 46.5q74 0 140.5 -27.5t117.5 -79.5l-63 -65q-37 38 -89 59t-106 21q-78 0 -139 -34.5t-95 -96t-34 -141.5q0 -82 32.5 -143.5t92 -95t137.5 -33.5q56 0 102 15.5t86 48.5v159h-207v88h298
v-288q-58 -58 -127 -86.5t-152 -28.5q-107 0 -188.5 45.5z" />
    <glyph glyph-name="H" unicode="H" horiz-adv-x="767" 
d="M90 700h97v-298h393v298h97v-700h-97v311h-393v-311h-97v700z" />
    <glyph glyph-name="I" unicode="I" horiz-adv-x="277" 
d="M90 700h97v-700h-97v700z" />
    <glyph glyph-name="Iacute" unicode="&#xcd;" 
d="M125 -132h86v-24h-86v-30h-22v84h22v-30zM116.5 381.5q16.5 -16.5 40.5 -16.5t40.5 16.5t16.5 41.5t-16.5 41.5t-40.5 16.5t-40.5 -16.5t-16.5 -41.5t16.5 -41.5zM211 -86v23h-37v16l37 21v26l-41 -24q-10 20 -31 20q-16 0 -26 -10.5t-10 -27.5v-44h108zM103 40h108v-24
h-108v24zM211 54v25l-20 7v43l20 8v26l-108 -44v-23zM211 176v66h-21v-42h-87v-24h108zM211 290v23h-41v38h-22v-38h-23v42h-22v-65h108zM211 499v23h-68l68 50v19h-108v-23h66l-66 -47v-22h108zM125 607v30h86v24h-86v30h-22v-84h22zM132.5 447.5q9.5 9.5 24.5 9.5t25 -9.5
t10 -24.5q0 -14 -10 -24t-25 -10t-24.5 10t-9.5 24q0 15 9.5 24.5zM124 -44q0 7 4 11.5t10 4.5q7 0 11 -4.5t4 -11.5v-19h-29v19zM170 122v-28l-39 14z" />
    <glyph glyph-name="Icircumflex" unicode="&#xce;" 
d="M125 -132h86v-24h-86v-30h-22v84h22v-30zM116.5 381.5q16.5 -16.5 40.5 -16.5t40.5 16.5t16.5 41.5t-16.5 41.5t-40.5 16.5t-40.5 -16.5t-16.5 -41.5t16.5 -41.5zM211 -86v23h-37v16l37 21v26l-41 -24q-10 20 -31 20q-16 0 -26 -10.5t-10 -27.5v-44h108zM103 40h108v-24
h-108v24zM211 54v25l-20 7v43l20 8v26l-108 -44v-23zM211 176v66h-21v-42h-87v-24h108zM211 290v23h-41v38h-22v-38h-23v42h-22v-65h108zM211 499v23h-68l68 50v19h-108v-23h66l-66 -47v-22h108zM125 607v30h86v24h-86v30h-22v-84h22zM132.5 447.5q9.5 9.5 24.5 9.5t25 -9.5
t10 -24.5q0 -14 -10 -24t-25 -10t-24.5 10t-9.5 24q0 15 9.5 24.5zM124 -44q0 7 4 11.5t10 4.5q7 0 11 -4.5t4 -11.5v-19h-29v19zM170 122v-28l-39 14z" />
    <glyph glyph-name="Idieresis" unicode="&#xcf;" 
d="M125 -132h86v-24h-86v-30h-22v84h22v-30zM116.5 381.5q16.5 -16.5 40.5 -16.5t40.5 16.5t16.5 41.5t-16.5 41.5t-40.5 16.5t-40.5 -16.5t-16.5 -41.5t16.5 -41.5zM211 -86v23h-37v16l37 21v26l-41 -24q-10 20 -31 20q-16 0 -26 -10.5t-10 -27.5v-44h108zM103 40h108v-24
h-108v24zM211 54v25l-20 7v43l20 8v26l-108 -44v-23zM211 176v66h-21v-42h-87v-24h108zM211 290v23h-41v38h-22v-38h-23v42h-22v-65h108zM211 499v23h-68l68 50v19h-108v-23h66l-66 -47v-22h108zM125 607v30h86v24h-86v30h-22v-84h22zM132.5 447.5q9.5 9.5 24.5 9.5t25 -9.5
t10 -24.5q0 -14 -10 -24t-25 -10t-24.5 10t-9.5 24q0 15 9.5 24.5zM124 -44q0 7 4 11.5t10 4.5q7 0 11 -4.5t4 -11.5v-19h-29v19zM170 122v-28l-39 14z" />
    <glyph glyph-name="Igrave" unicode="&#xcc;" 
d="M125 -132h86v-24h-86v-30h-22v84h22v-30zM116.5 381.5q16.5 -16.5 40.5 -16.5t40.5 16.5t16.5 41.5t-16.5 41.5t-40.5 16.5t-40.5 -16.5t-16.5 -41.5t16.5 -41.5zM211 -86v23h-37v16l37 21v26l-41 -24q-10 20 -31 20q-16 0 -26 -10.5t-10 -27.5v-44h108zM103 40h108v-24
h-108v24zM211 54v25l-20 7v43l20 8v26l-108 -44v-23zM211 176v66h-21v-42h-87v-24h108zM211 290v23h-41v38h-22v-38h-23v42h-22v-65h108zM211 499v23h-68l68 50v19h-108v-23h66l-66 -47v-22h108zM125 607v30h86v24h-86v30h-22v-84h22zM132.5 447.5q9.5 9.5 24.5 9.5t25 -9.5
t10 -24.5q0 -14 -10 -24t-25 -10t-24.5 10t-9.5 24q0 15 9.5 24.5zM124 -44q0 7 4 11.5t10 4.5q7 0 11 -4.5t4 -11.5v-19h-29v19zM170 122v-28l-39 14z" />
    <glyph glyph-name="J" unicode="J" horiz-adv-x="692" 
d="M167 23.5q-66 36.5 -102 102.5t-36 154h97q0 -95 51.5 -148t142.5 -53q87 0 140.5 56.5t53.5 149.5v324h-237v91h333v-419q0 -87 -36.5 -153.5t-102.5 -103.5t-151 -37q-87 0 -153 36.5z" />
    <glyph glyph-name="K" unicode="K" horiz-adv-x="637" 
d="M189 325v-325h-99v700h99v-306l297 306h129l-331 -338l362 -362h-134z" />
    <glyph glyph-name="L" unicode="L" horiz-adv-x="583" 
d="M90 700h97v-609h378v-91h-475v700z" />
    <glyph glyph-name="M" unicode="M" horiz-adv-x="913" 
d="M90 700h89l277 -360l277 360h89v-700h-96v534l-259 -335h-22l-258 335v-534h-97v700z" />
    <glyph glyph-name="N" unicode="N" horiz-adv-x="768" 
d="M90 700h89l402 -533v533h97v-700h-89l-402 534v-534h-97v700z" />
    <glyph glyph-name="Ntilde" unicode="&#xd1;" 
d="M125 -132h86v-24h-86v-30h-22v84h22v-30zM116.5 381.5q16.5 -16.5 40.5 -16.5t40.5 16.5t16.5 41.5t-16.5 41.5t-40.5 16.5t-40.5 -16.5t-16.5 -41.5t16.5 -41.5zM211 -86v23h-37v16l37 21v26l-41 -24q-10 20 -31 20q-16 0 -26 -10.5t-10 -27.5v-44h108zM103 40h108v-24
h-108v24zM211 54v25l-20 7v43l20 8v26l-108 -44v-23zM211 176v66h-21v-42h-87v-24h108zM211 290v23h-41v38h-22v-38h-23v42h-22v-65h108zM211 499v23h-68l68 50v19h-108v-23h66l-66 -47v-22h108zM125 607v30h86v24h-86v30h-22v-84h22zM132.5 447.5q9.5 9.5 24.5 9.5t25 -9.5
t10 -24.5q0 -14 -10 -24t-25 -10t-24.5 10t-9.5 24q0 15 9.5 24.5zM124 -44q0 7 4 11.5t10 4.5q7 0 11 -4.5t4 -11.5v-19h-29v19zM170 122v-28l-39 14z" />
    <glyph glyph-name="O" unicode="O" horiz-adv-x="808" 
d="M218 31q-81 46 -126 129t-45 190t45 190t126 129t186 46t186 -46t126 -129t45 -190t-45 -190t-126 -129t-186 -46t-186 46zM178 208q33 -62 91.5 -96.5t134.5 -34.5t134.5 34.5t91.5 96.5t33 142t-33 142t-91.5 96.5t-134.5 34.5t-134.5 -34.5t-91.5 -96.5t-33 -142
t33 -142z" />
    <glyph glyph-name="Oacute" unicode="&#xd3;" 
d="M125 -132h86v-24h-86v-30h-22v84h22v-30zM116.5 381.5q16.5 -16.5 40.5 -16.5t40.5 16.5t16.5 41.5t-16.5 41.5t-40.5 16.5t-40.5 -16.5t-16.5 -41.5t16.5 -41.5zM211 -86v23h-37v16l37 21v26l-41 -24q-10 20 -31 20q-16 0 -26 -10.5t-10 -27.5v-44h108zM103 40h108v-24
h-108v24zM211 54v25l-20 7v43l20 8v26l-108 -44v-23zM211 176v66h-21v-42h-87v-24h108zM211 290v23h-41v38h-22v-38h-23v42h-22v-65h108zM211 499v23h-68l68 50v19h-108v-23h66l-66 -47v-22h108zM125 607v30h86v24h-86v30h-22v-84h22zM132.5 447.5q9.5 9.5 24.5 9.5t25 -9.5
t10 -24.5q0 -14 -10 -24t-25 -10t-24.5 10t-9.5 24q0 15 9.5 24.5zM124 -44q0 7 4 11.5t10 4.5q7 0 11 -4.5t4 -11.5v-19h-29v19zM170 122v-28l-39 14z" />
    <glyph glyph-name="Ocircumflex" unicode="&#xd4;" 
d="M125 -132h86v-24h-86v-30h-22v84h22v-30zM116.5 381.5q16.5 -16.5 40.5 -16.5t40.5 16.5t16.5 41.5t-16.5 41.5t-40.5 16.5t-40.5 -16.5t-16.5 -41.5t16.5 -41.5zM211 -86v23h-37v16l37 21v26l-41 -24q-10 20 -31 20q-16 0 -26 -10.5t-10 -27.5v-44h108zM103 40h108v-24
h-108v24zM211 54v25l-20 7v43l20 8v26l-108 -44v-23zM211 176v66h-21v-42h-87v-24h108zM211 290v23h-41v38h-22v-38h-23v42h-22v-65h108zM211 499v23h-68l68 50v19h-108v-23h66l-66 -47v-22h108zM125 607v30h86v24h-86v30h-22v-84h22zM132.5 447.5q9.5 9.5 24.5 9.5t25 -9.5
t10 -24.5q0 -14 -10 -24t-25 -10t-24.5 10t-9.5 24q0 15 9.5 24.5zM124 -44q0 7 4 11.5t10 4.5q7 0 11 -4.5t4 -11.5v-19h-29v19zM170 122v-28l-39 14z" />
    <glyph glyph-name="Odieresis" unicode="&#xd6;" 
d="M125 -132h86v-24h-86v-30h-22v84h22v-30zM116.5 381.5q16.5 -16.5 40.5 -16.5t40.5 16.5t16.5 41.5t-16.5 41.5t-40.5 16.5t-40.5 -16.5t-16.5 -41.5t16.5 -41.5zM211 -86v23h-37v16l37 21v26l-41 -24q-10 20 -31 20q-16 0 -26 -10.5t-10 -27.5v-44h108zM103 40h108v-24
h-108v24zM211 54v25l-20 7v43l20 8v26l-108 -44v-23zM211 176v66h-21v-42h-87v-24h108zM211 290v23h-41v38h-22v-38h-23v42h-22v-65h108zM211 499v23h-68l68 50v19h-108v-23h66l-66 -47v-22h108zM125 607v30h86v24h-86v30h-22v-84h22zM132.5 447.5q9.5 9.5 24.5 9.5t25 -9.5
t10 -24.5q0 -14 -10 -24t-25 -10t-24.5 10t-9.5 24q0 15 9.5 24.5zM124 -44q0 7 4 11.5t10 4.5q7 0 11 -4.5t4 -11.5v-19h-29v19zM170 122v-28l-39 14z" />
    <glyph glyph-name="Ograve" unicode="&#xd2;" 
d="M125 -132h86v-24h-86v-30h-22v84h22v-30zM116.5 381.5q16.5 -16.5 40.5 -16.5t40.5 16.5t16.5 41.5t-16.5 41.5t-40.5 16.5t-40.5 -16.5t-16.5 -41.5t16.5 -41.5zM211 -86v23h-37v16l37 21v26l-41 -24q-10 20 -31 20q-16 0 -26 -10.5t-10 -27.5v-44h108zM103 40h108v-24
h-108v24zM211 54v25l-20 7v43l20 8v26l-108 -44v-23zM211 176v66h-21v-42h-87v-24h108zM211 290v23h-41v38h-22v-38h-23v42h-22v-65h108zM211 499v23h-68l68 50v19h-108v-23h66l-66 -47v-22h108zM125 607v30h86v24h-86v30h-22v-84h22zM132.5 447.5q9.5 9.5 24.5 9.5t25 -9.5
t10 -24.5q0 -14 -10 -24t-25 -10t-24.5 10t-9.5 24q0 15 9.5 24.5zM124 -44q0 7 4 11.5t10 4.5q7 0 11 -4.5t4 -11.5v-19h-29v19zM170 122v-28l-39 14z" />
    <glyph glyph-name="Oslash" unicode="&#xd8;" 
d="M125 -132h86v-24h-86v-30h-22v84h22v-30zM116.5 381.5q16.5 -16.5 40.5 -16.5t40.5 16.5t16.5 41.5t-16.5 41.5t-40.5 16.5t-40.5 -16.5t-16.5 -41.5t16.5 -41.5zM211 -86v23h-37v16l37 21v26l-41 -24q-10 20 -31 20q-16 0 -26 -10.5t-10 -27.5v-44h108zM103 40h108v-24
h-108v24zM211 54v25l-20 7v43l20 8v26l-108 -44v-23zM211 176v66h-21v-42h-87v-24h108zM211 290v23h-41v38h-22v-38h-23v42h-22v-65h108zM211 499v23h-68l68 50v19h-108v-23h66l-66 -47v-22h108zM125 607v30h86v24h-86v30h-22v-84h22zM132.5 447.5q9.5 9.5 24.5 9.5t25 -9.5
t10 -24.5q0 -14 -10 -24t-25 -10t-24.5 10t-9.5 24q0 15 9.5 24.5zM124 -44q0 7 4 11.5t10 4.5q7 0 11 -4.5t4 -11.5v-19h-29v19zM170 122v-28l-39 14z" />
    <glyph glyph-name="Otilde" unicode="&#xd5;" 
d="M125 -132h86v-24h-86v-30h-22v84h22v-30zM116.5 381.5q16.5 -16.5 40.5 -16.5t40.5 16.5t16.5 41.5t-16.5 41.5t-40.5 16.5t-40.5 -16.5t-16.5 -41.5t16.5 -41.5zM211 -86v23h-37v16l37 21v26l-41 -24q-10 20 -31 20q-16 0 -26 -10.5t-10 -27.5v-44h108zM103 40h108v-24
h-108v24zM211 54v25l-20 7v43l20 8v26l-108 -44v-23zM211 176v66h-21v-42h-87v-24h108zM211 290v23h-41v38h-22v-38h-23v42h-22v-65h108zM211 499v23h-68l68 50v19h-108v-23h66l-66 -47v-22h108zM125 607v30h86v24h-86v30h-22v-84h22zM132.5 447.5q9.5 9.5 24.5 9.5t25 -9.5
t10 -24.5q0 -14 -10 -24t-25 -10t-24.5 10t-9.5 24q0 15 9.5 24.5zM124 -44q0 7 4 11.5t10 4.5q7 0 11 -4.5t4 -11.5v-19h-29v19zM170 122v-28l-39 14z" />
    <glyph glyph-name="OE" unicode="&#x152;" 
d="M125 -132h86v-24h-86v-30h-22v84h22v-30zM116.5 381.5q16.5 -16.5 40.5 -16.5t40.5 16.5t16.5 41.5t-16.5 41.5t-40.5 16.5t-40.5 -16.5t-16.5 -41.5t16.5 -41.5zM211 -86v23h-37v16l37 21v26l-41 -24q-10 20 -31 20q-16 0 -26 -10.5t-10 -27.5v-44h108zM103 40h108v-24
h-108v24zM211 54v25l-20 7v43l20 8v26l-108 -44v-23zM211 176v66h-21v-42h-87v-24h108zM211 290v23h-41v38h-22v-38h-23v42h-22v-65h108zM211 499v23h-68l68 50v19h-108v-23h66l-66 -47v-22h108zM125 607v30h86v24h-86v30h-22v-84h22zM132.5 447.5q9.5 9.5 24.5 9.5t25 -9.5
t10 -24.5q0 -14 -10 -24t-25 -10t-24.5 10t-9.5 24q0 15 9.5 24.5zM124 -44q0 7 4 11.5t10 4.5q7 0 11 -4.5t4 -11.5v-19h-29v19zM170 122v-28l-39 14z" />
    <glyph glyph-name="P" unicode="P" horiz-adv-x="687" 
d="M90 700h319q75 0 131 -30t86.5 -84.5t30.5 -125.5q0 -72 -30.5 -126.5t-86.5 -84.5t-131 -30h-222v-219h-97v700zM404 309q72 0 114.5 41.5t42.5 109.5t-42.5 109t-114.5 41h-217v-301h217z" />
    <glyph glyph-name="Thorn" unicode="&#xde;" 
d="M125 -132h86v-24h-86v-30h-22v84h22v-30zM116.5 381.5q16.5 -16.5 40.5 -16.5t40.5 16.5t16.5 41.5t-16.5 41.5t-40.5 16.5t-40.5 -16.5t-16.5 -41.5t16.5 -41.5zM211 -86v23h-37v16l37 21v26l-41 -24q-10 20 -31 20q-16 0 -26 -10.5t-10 -27.5v-44h108zM103 40h108v-24
h-108v24zM211 54v25l-20 7v43l20 8v26l-108 -44v-23zM211 176v66h-21v-42h-87v-24h108zM211 290v23h-41v38h-22v-38h-23v42h-22v-65h108zM211 499v23h-68l68 50v19h-108v-23h66l-66 -47v-22h108zM125 607v30h86v24h-86v30h-22v-84h22zM132.5 447.5q9.5 9.5 24.5 9.5t25 -9.5
t10 -24.5q0 -14 -10 -24t-25 -10t-24.5 10t-9.5 24q0 15 9.5 24.5zM124 -44q0 7 4 11.5t10 4.5q7 0 11 -4.5t4 -11.5v-19h-29v19zM170 122v-28l-39 14z" />
    <glyph glyph-name="Q" unicode="Q" horiz-adv-x="809" 
d="M218 31q-81 46 -126 129t-45 190t45 190t126 129t186 46t186 -46t126 -129t45 -190q0 -135 -71 -231l106 -102l-70 -70l-107 103q-90 -65 -215 -65q-105 0 -186 46zM178 208q33 -62 91.5 -96.5t134.5 -34.5t134.5 34.5t91.5 96.5t33 142t-33 142t-91.5 96.5t-134.5 34.5
t-134.5 -34.5t-91.5 -96.5t-33 -142t33 -142z" />
    <glyph glyph-name="R" unicode="R" horiz-adv-x="717" 
d="M90 700h322q73 0 128 -28t85.5 -79.5t30.5 -119.5q0 -89 -52 -149t-140 -74l221 -250h-124l-215 246h-159v-246h-97v700zM414 337q67 0 106 36.5t39 99.5t-39 99.5t-106 36.5h-227v-272h227z" />
    <glyph glyph-name="S" unicode="S" horiz-adv-x="657" 
d="M179.5 14q-76.5 27 -134.5 76l52 74q42 -40 107 -63.5t133 -23.5q84 0 134 31.5t50 83.5q0 48 -45 75.5t-146 42.5q-143 21 -206 70t-63 139q0 56 34 100t95 69t138 25q71 0 137.5 -23.5t119.5 -66.5l-51 -69q-42 35 -96 54t-109 19q-75 0 -123 -31t-48 -79
q0 -47 42.5 -74t139.5 -43q102 -16 162.5 -41.5t88.5 -65t28 -98.5q0 -62 -35 -109.5t-98.5 -73t-148.5 -25.5q-81 0 -157.5 27z" />
    <glyph glyph-name="Scaron" unicode="&#x160;" 
d="M125 -132h86v-24h-86v-30h-22v84h22v-30zM116.5 381.5q16.5 -16.5 40.5 -16.5t40.5 16.5t16.5 41.5t-16.5 41.5t-40.5 16.5t-40.5 -16.5t-16.5 -41.5t16.5 -41.5zM211 -86v23h-37v16l37 21v26l-41 -24q-10 20 -31 20q-16 0 -26 -10.5t-10 -27.5v-44h108zM103 40h108v-24
h-108v24zM211 54v25l-20 7v43l20 8v26l-108 -44v-23zM211 176v66h-21v-42h-87v-24h108zM211 290v23h-41v38h-22v-38h-23v42h-22v-65h108zM211 499v23h-68l68 50v19h-108v-23h66l-66 -47v-22h108zM125 607v30h86v24h-86v30h-22v-84h22zM132.5 447.5q9.5 9.5 24.5 9.5t25 -9.5
t10 -24.5q0 -14 -10 -24t-25 -10t-24.5 10t-9.5 24q0 15 9.5 24.5zM124 -44q0 7 4 11.5t10 4.5q7 0 11 -4.5t4 -11.5v-19h-29v19zM170 122v-28l-39 14z" />
    <glyph glyph-name="Scircumflex" unicode="&#x15c;" 
d="M125 -132h86v-24h-86v-30h-22v84h22v-30zM116.5 381.5q16.5 -16.5 40.5 -16.5t40.5 16.5t16.5 41.5t-16.5 41.5t-40.5 16.5t-40.5 -16.5t-16.5 -41.5t16.5 -41.5zM211 -86v23h-37v16l37 21v26l-41 -24q-10 20 -31 20q-16 0 -26 -10.5t-10 -27.5v-44h108zM103 40h108v-24
h-108v24zM211 54v25l-20 7v43l20 8v26l-108 -44v-23zM211 176v66h-21v-42h-87v-24h108zM211 290v23h-41v38h-22v-38h-23v42h-22v-65h108zM211 499v23h-68l68 50v19h-108v-23h66l-66 -47v-22h108zM125 607v30h86v24h-86v30h-22v-84h22zM132.5 447.5q9.5 9.5 24.5 9.5t25 -9.5
t10 -24.5q0 -14 -10 -24t-25 -10t-24.5 10t-9.5 24q0 15 9.5 24.5zM124 -44q0 7 4 11.5t10 4.5q7 0 11 -4.5t4 -11.5v-19h-29v19zM170 122v-28l-39 14z" />
    <glyph glyph-name="T" unicode="T" horiz-adv-x="600" 
d="M17 700h566v-91h-235v-609h-96v609h-235v91z" />
    <glyph glyph-name="U" unicode="U" horiz-adv-x="748" 
d="M220 22.5q-66 36.5 -102 104t-36 157.5v416h96v-414q0 -94 53.5 -151t142.5 -57t142.5 56.5t53.5 151.5v414h97v-416q0 -90 -36 -157.5t-102.5 -104t-154.5 -36.5t-154 36.5z" />
    <glyph glyph-name="Uacute" unicode="&#xda;" 
d="M125 -132h86v-24h-86v-30h-22v84h22v-30zM116.5 381.5q16.5 -16.5 40.5 -16.5t40.5 16.5t16.5 41.5t-16.5 41.5t-40.5 16.5t-40.5 -16.5t-16.5 -41.5t16.5 -41.5zM211 -86v23h-37v16l37 21v26l-41 -24q-10 20 -31 20q-16 0 -26 -10.5t-10 -27.5v-44h108zM103 40h108v-24
h-108v24zM211 54v25l-20 7v43l20 8v26l-108 -44v-23zM211 176v66h-21v-42h-87v-24h108zM211 290v23h-41v38h-22v-38h-23v42h-22v-65h108zM211 499v23h-68l68 50v19h-108v-23h66l-66 -47v-22h108zM125 607v30h86v24h-86v30h-22v-84h22zM132.5 447.5q9.5 9.5 24.5 9.5t25 -9.5
t10 -24.5q0 -14 -10 -24t-25 -10t-24.5 10t-9.5 24q0 15 9.5 24.5zM124 -44q0 7 4 11.5t10 4.5q7 0 11 -4.5t4 -11.5v-19h-29v19zM170 122v-28l-39 14z" />
    <glyph glyph-name="Ucircumflex" unicode="&#xdb;" 
d="M125 -132h86v-24h-86v-30h-22v84h22v-30zM116.5 381.5q16.5 -16.5 40.5 -16.5t40.5 16.5t16.5 41.5t-16.5 41.5t-40.5 16.5t-40.5 -16.5t-16.5 -41.5t16.5 -41.5zM211 -86v23h-37v16l37 21v26l-41 -24q-10 20 -31 20q-16 0 -26 -10.5t-10 -27.5v-44h108zM103 40h108v-24
h-108v24zM211 54v25l-20 7v43l20 8v26l-108 -44v-23zM211 176v66h-21v-42h-87v-24h108zM211 290v23h-41v38h-22v-38h-23v42h-22v-65h108zM211 499v23h-68l68 50v19h-108v-23h66l-66 -47v-22h108zM125 607v30h86v24h-86v30h-22v-84h22zM132.5 447.5q9.5 9.5 24.5 9.5t25 -9.5
t10 -24.5q0 -14 -10 -24t-25 -10t-24.5 10t-9.5 24q0 15 9.5 24.5zM124 -44q0 7 4 11.5t10 4.5q7 0 11 -4.5t4 -11.5v-19h-29v19zM170 122v-28l-39 14z" />
    <glyph glyph-name="Udieresis" unicode="&#xdc;" 
d="M125 -132h86v-24h-86v-30h-22v84h22v-30zM116.5 381.5q16.5 -16.5 40.5 -16.5t40.5 16.5t16.5 41.5t-16.5 41.5t-40.5 16.5t-40.5 -16.5t-16.5 -41.5t16.5 -41.5zM211 -86v23h-37v16l37 21v26l-41 -24q-10 20 -31 20q-16 0 -26 -10.5t-10 -27.5v-44h108zM103 40h108v-24
h-108v24zM211 54v25l-20 7v43l20 8v26l-108 -44v-23zM211 176v66h-21v-42h-87v-24h108zM211 290v23h-41v38h-22v-38h-23v42h-22v-65h108zM211 499v23h-68l68 50v19h-108v-23h66l-66 -47v-22h108zM125 607v30h86v24h-86v30h-22v-84h22zM132.5 447.5q9.5 9.5 24.5 9.5t25 -9.5
t10 -24.5q0 -14 -10 -24t-25 -10t-24.5 10t-9.5 24q0 15 9.5 24.5zM124 -44q0 7 4 11.5t10 4.5q7 0 11 -4.5t4 -11.5v-19h-29v19zM170 122v-28l-39 14z" />
    <glyph glyph-name="Ugrave" unicode="&#xd9;" 
d="M125 -132h86v-24h-86v-30h-22v84h22v-30zM116.5 381.5q16.5 -16.5 40.5 -16.5t40.5 16.5t16.5 41.5t-16.5 41.5t-40.5 16.5t-40.5 -16.5t-16.5 -41.5t16.5 -41.5zM211 -86v23h-37v16l37 21v26l-41 -24q-10 20 -31 20q-16 0 -26 -10.5t-10 -27.5v-44h108zM103 40h108v-24
h-108v24zM211 54v25l-20 7v43l20 8v26l-108 -44v-23zM211 176v66h-21v-42h-87v-24h108zM211 290v23h-41v38h-22v-38h-23v42h-22v-65h108zM211 499v23h-68l68 50v19h-108v-23h66l-66 -47v-22h108zM125 607v30h86v24h-86v30h-22v-84h22zM132.5 447.5q9.5 9.5 24.5 9.5t25 -9.5
t10 -24.5q0 -14 -10 -24t-25 -10t-24.5 10t-9.5 24q0 15 9.5 24.5zM124 -44q0 7 4 11.5t10 4.5q7 0 11 -4.5t4 -11.5v-19h-29v19zM170 122v-28l-39 14z" />
    <glyph glyph-name="V" unicode="V" horiz-adv-x="716" 
d="M15 700h104l129 -316l110 -272l238 588h104l-289 -700h-106z" />
    <glyph glyph-name="W" unicode="W" horiz-adv-x="1088" 
d="M18 700h103l114 -355l75 -227l186 582h95l187 -581l74 226l114 355h103l-236 -700h-111l-85 263l-93 283l-93 -283l-86 -263h-108z" />
    <glyph glyph-name="X" unicode="X" horiz-adv-x="643" 
d="M411 153l-90 133l-198 -286h-115l250 357l-238 343h114l100 -144l89 -130l188 274h114l-241 -344l251 -356h-117z" />
    <glyph glyph-name="Y" unicode="Y" horiz-adv-x="681" 
d="M289 282l-275 418h116l208 -323l211 323h118l-282 -417v-283h-96v282z" />
    <glyph glyph-name="Yacute" unicode="&#xdd;" 
d="M125 -132h86v-24h-86v-30h-22v84h22v-30zM116.5 381.5q16.5 -16.5 40.5 -16.5t40.5 16.5t16.5 41.5t-16.5 41.5t-40.5 16.5t-40.5 -16.5t-16.5 -41.5t16.5 -41.5zM211 -86v23h-37v16l37 21v26l-41 -24q-10 20 -31 20q-16 0 -26 -10.5t-10 -27.5v-44h108zM103 40h108v-24
h-108v24zM211 54v25l-20 7v43l20 8v26l-108 -44v-23zM211 176v66h-21v-42h-87v-24h108zM211 290v23h-41v38h-22v-38h-23v42h-22v-65h108zM211 499v23h-68l68 50v19h-108v-23h66l-66 -47v-22h108zM125 607v30h86v24h-86v30h-22v-84h22zM132.5 447.5q9.5 9.5 24.5 9.5t25 -9.5
t10 -24.5q0 -14 -10 -24t-25 -10t-24.5 10t-9.5 24q0 15 9.5 24.5zM124 -44q0 7 4 11.5t10 4.5q7 0 11 -4.5t4 -11.5v-19h-29v19zM170 122v-28l-39 14z" />
    <glyph glyph-name="Ydieresis" unicode="&#x178;" 
d="M125 -132h86v-24h-86v-30h-22v84h22v-30zM116.5 381.5q16.5 -16.5 40.5 -16.5t40.5 16.5t16.5 41.5t-16.5 41.5t-40.5 16.5t-40.5 -16.5t-16.5 -41.5t16.5 -41.5zM211 -86v23h-37v16l37 21v26l-41 -24q-10 20 -31 20q-16 0 -26 -10.5t-10 -27.5v-44h108zM103 40h108v-24
h-108v24zM211 54v25l-20 7v43l20 8v26l-108 -44v-23zM211 176v66h-21v-42h-87v-24h108zM211 290v23h-41v38h-22v-38h-23v42h-22v-65h108zM211 499v23h-68l68 50v19h-108v-23h66l-66 -47v-22h108zM125 607v30h86v24h-86v30h-22v-84h22zM132.5 447.5q9.5 9.5 24.5 9.5t25 -9.5
t10 -24.5q0 -14 -10 -24t-25 -10t-24.5 10t-9.5 24q0 15 9.5 24.5zM124 -44q0 7 4 11.5t10 4.5q7 0 11 -4.5t4 -11.5v-19h-29v19zM170 122v-28l-39 14z" />
    <glyph glyph-name="Z" unicode="Z" horiz-adv-x="605" 
d="M25 52l400 557h-367v91h508v-50l-402 -559h402v-91h-541v52z" />
    <glyph glyph-name="Zcaron" unicode="&#x17d;" 
d="M125 -132h86v-24h-86v-30h-22v84h22v-30zM116.5 381.5q16.5 -16.5 40.5 -16.5t40.5 16.5t16.5 41.5t-16.5 41.5t-40.5 16.5t-40.5 -16.5t-16.5 -41.5t16.5 -41.5zM211 -86v23h-37v16l37 21v26l-41 -24q-10 20 -31 20q-16 0 -26 -10.5t-10 -27.5v-44h108zM103 40h108v-24
h-108v24zM211 54v25l-20 7v43l20 8v26l-108 -44v-23zM211 176v66h-21v-42h-87v-24h108zM211 290v23h-41v38h-22v-38h-23v42h-22v-65h108zM211 499v23h-68l68 50v19h-108v-23h66l-66 -47v-22h108zM125 607v30h86v24h-86v30h-22v-84h22zM132.5 447.5q9.5 9.5 24.5 9.5t25 -9.5
t10 -24.5q0 -14 -10 -24t-25 -10t-24.5 10t-9.5 24q0 15 9.5 24.5zM124 -44q0 7 4 11.5t10 4.5q7 0 11 -4.5t4 -11.5v-19h-29v19zM170 122v-28l-39 14z" />
    <glyph glyph-name="a" unicode="a" horiz-adv-x="630" 
d="M158 22q-56 33 -87.5 91.5t-31.5 133.5t31.5 133.5t87.5 91.5t128 33q60 0 109 -22.5t79 -61.5l1 73h82v-494h-82l-1 73q-30 -39 -79 -61.5t-109 -22.5q-72 0 -128 33zM153 158q21 -39 59 -61t86 -22q73 0 119.5 48t46.5 124t-46.5 124t-119.5 48q-48 0 -86 -22t-59 -61
t-21 -89t21 -89z" />
    <glyph glyph-name="aacute" unicode="&#xe1;" 
d="M125 -132h86v-24h-86v-30h-22v84h22v-30zM116.5 381.5q16.5 -16.5 40.5 -16.5t40.5 16.5t16.5 41.5t-16.5 41.5t-40.5 16.5t-40.5 -16.5t-16.5 -41.5t16.5 -41.5zM211 -86v23h-37v16l37 21v26l-41 -24q-10 20 -31 20q-16 0 -26 -10.5t-10 -27.5v-44h108zM103 40h108v-24
h-108v24zM211 54v25l-20 7v43l20 8v26l-108 -44v-23zM211 176v66h-21v-42h-87v-24h108zM211 290v23h-41v38h-22v-38h-23v42h-22v-65h108zM211 499v23h-68l68 50v19h-108v-23h66l-66 -47v-22h108zM125 607v30h86v24h-86v30h-22v-84h22zM132.5 447.5q9.5 9.5 24.5 9.5t25 -9.5
t10 -24.5q0 -14 -10 -24t-25 -10t-24.5 10t-9.5 24q0 15 9.5 24.5zM124 -44q0 7 4 11.5t10 4.5q7 0 11 -4.5t4 -11.5v-19h-29v19zM170 122v-28l-39 14z" />
    <glyph glyph-name="acircumflex" unicode="&#xe2;" 
d="M125 -132h86v-24h-86v-30h-22v84h22v-30zM116.5 381.5q16.5 -16.5 40.5 -16.5t40.5 16.5t16.5 41.5t-16.5 41.5t-40.5 16.5t-40.5 -16.5t-16.5 -41.5t16.5 -41.5zM211 -86v23h-37v16l37 21v26l-41 -24q-10 20 -31 20q-16 0 -26 -10.5t-10 -27.5v-44h108zM103 40h108v-24
h-108v24zM211 54v25l-20 7v43l20 8v26l-108 -44v-23zM211 176v66h-21v-42h-87v-24h108zM211 290v23h-41v38h-22v-38h-23v42h-22v-65h108zM211 499v23h-68l68 50v19h-108v-23h66l-66 -47v-22h108zM125 607v30h86v24h-86v30h-22v-84h22zM132.5 447.5q9.5 9.5 24.5 9.5t25 -9.5
t10 -24.5q0 -14 -10 -24t-25 -10t-24.5 10t-9.5 24q0 15 9.5 24.5zM124 -44q0 7 4 11.5t10 4.5q7 0 11 -4.5t4 -11.5v-19h-29v19zM170 122v-28l-39 14z" />
    <glyph glyph-name="adieresis" unicode="&#xe4;" 
d="M125 -132h86v-24h-86v-30h-22v84h22v-30zM116.5 381.5q16.5 -16.5 40.5 -16.5t40.5 16.5t16.5 41.5t-16.5 41.5t-40.5 16.5t-40.5 -16.5t-16.5 -41.5t16.5 -41.5zM211 -86v23h-37v16l37 21v26l-41 -24q-10 20 -31 20q-16 0 -26 -10.5t-10 -27.5v-44h108zM103 40h108v-24
h-108v24zM211 54v25l-20 7v43l20 8v26l-108 -44v-23zM211 176v66h-21v-42h-87v-24h108zM211 290v23h-41v38h-22v-38h-23v42h-22v-65h108zM211 499v23h-68l68 50v19h-108v-23h66l-66 -47v-22h108zM125 607v30h86v24h-86v30h-22v-84h22zM132.5 447.5q9.5 9.5 24.5 9.5t25 -9.5
t10 -24.5q0 -14 -10 -24t-25 -10t-24.5 10t-9.5 24q0 15 9.5 24.5zM124 -44q0 7 4 11.5t10 4.5q7 0 11 -4.5t4 -11.5v-19h-29v19zM170 122v-28l-39 14z" />
    <glyph glyph-name="agrave" unicode="&#xe0;" 
d="M125 -132h86v-24h-86v-30h-22v84h22v-30zM116.5 381.5q16.5 -16.5 40.5 -16.5t40.5 16.5t16.5 41.5t-16.5 41.5t-40.5 16.5t-40.5 -16.5t-16.5 -41.5t16.5 -41.5zM211 -86v23h-37v16l37 21v26l-41 -24q-10 20 -31 20q-16 0 -26 -10.5t-10 -27.5v-44h108zM103 40h108v-24
h-108v24zM211 54v25l-20 7v43l20 8v26l-108 -44v-23zM211 176v66h-21v-42h-87v-24h108zM211 290v23h-41v38h-22v-38h-23v42h-22v-65h108zM211 499v23h-68l68 50v19h-108v-23h66l-66 -47v-22h108zM125 607v30h86v24h-86v30h-22v-84h22zM132.5 447.5q9.5 9.5 24.5 9.5t25 -9.5
t10 -24.5q0 -14 -10 -24t-25 -10t-24.5 10t-9.5 24q0 15 9.5 24.5zM124 -44q0 7 4 11.5t10 4.5q7 0 11 -4.5t4 -11.5v-19h-29v19zM170 122v-28l-39 14z" />
    <glyph glyph-name="aring" unicode="&#xe5;" 
d="M125 -132h86v-24h-86v-30h-22v84h22v-30zM116.5 381.5q16.5 -16.5 40.5 -16.5t40.5 16.5t16.5 41.5t-16.5 41.5t-40.5 16.5t-40.5 -16.5t-16.5 -41.5t16.5 -41.5zM211 -86v23h-37v16l37 21v26l-41 -24q-10 20 -31 20q-16 0 -26 -10.5t-10 -27.5v-44h108zM103 40h108v-24
h-108v24zM211 54v25l-20 7v43l20 8v26l-108 -44v-23zM211 176v66h-21v-42h-87v-24h108zM211 290v23h-41v38h-22v-38h-23v42h-22v-65h108zM211 499v23h-68l68 50v19h-108v-23h66l-66 -47v-22h108zM125 607v30h86v24h-86v30h-22v-84h22zM132.5 447.5q9.5 9.5 24.5 9.5t25 -9.5
t10 -24.5q0 -14 -10 -24t-25 -10t-24.5 10t-9.5 24q0 15 9.5 24.5zM124 -44q0 7 4 11.5t10 4.5q7 0 11 -4.5t4 -11.5v-19h-29v19zM170 122v-28l-39 14z" />
    <glyph glyph-name="atilde" unicode="&#xe3;" 
d="M125 -132h86v-24h-86v-30h-22v84h22v-30zM116.5 381.5q16.5 -16.5 40.5 -16.5t40.5 16.5t16.5 41.5t-16.5 41.5t-40.5 16.5t-40.5 -16.5t-16.5 -41.5t16.5 -41.5zM211 -86v23h-37v16l37 21v26l-41 -24q-10 20 -31 20q-16 0 -26 -10.5t-10 -27.5v-44h108zM103 40h108v-24
h-108v24zM211 54v25l-20 7v43l20 8v26l-108 -44v-23zM211 176v66h-21v-42h-87v-24h108zM211 290v23h-41v38h-22v-38h-23v42h-22v-65h108zM211 499v23h-68l68 50v19h-108v-23h66l-66 -47v-22h108zM125 607v30h86v24h-86v30h-22v-84h22zM132.5 447.5q9.5 9.5 24.5 9.5t25 -9.5
t10 -24.5q0 -14 -10 -24t-25 -10t-24.5 10t-9.5 24q0 15 9.5 24.5zM124 -44q0 7 4 11.5t10 4.5q7 0 11 -4.5t4 -11.5v-19h-29v19zM170 122v-28l-39 14z" />
    <glyph glyph-name="ae" unicode="&#xe6;" 
d="M125 -132h86v-24h-86v-30h-22v84h22v-30zM116.5 381.5q16.5 -16.5 40.5 -16.5t40.5 16.5t16.5 41.5t-16.5 41.5t-40.5 16.5t-40.5 -16.5t-16.5 -41.5t16.5 -41.5zM211 -86v23h-37v16l37 21v26l-41 -24q-10 20 -31 20q-16 0 -26 -10.5t-10 -27.5v-44h108zM103 40h108v-24
h-108v24zM211 54v25l-20 7v43l20 8v26l-108 -44v-23zM211 176v66h-21v-42h-87v-24h108zM211 290v23h-41v38h-22v-38h-23v42h-22v-65h108zM211 499v23h-68l68 50v19h-108v-23h66l-66 -47v-22h108zM125 607v30h86v24h-86v30h-22v-84h22zM132.5 447.5q9.5 9.5 24.5 9.5t25 -9.5
t10 -24.5q0 -14 -10 -24t-25 -10t-24.5 10t-9.5 24q0 15 9.5 24.5zM124 -44q0 7 4 11.5t10 4.5q7 0 11 -4.5t4 -11.5v-19h-29v19zM170 122v-28l-39 14z" />
    <glyph glyph-name="b" unicode="b" horiz-adv-x="630" 
d="M234.5 11.5q-49.5 22.5 -78.5 61.5l-1 -73h-83v700h93v-268q29 35 76 54t104 19q71 0 126.5 -32t87 -90.5t31.5 -135.5t-31.5 -135.5t-87 -90.5t-126.5 -32q-61 0 -110.5 22.5zM186 158q21 -39 59 -61t86 -22q73 0 119.5 48t46.5 124t-46.5 124t-119.5 48q-48 0 -86 -22
t-59 -61t-21 -89t21 -89z" />
    <glyph glyph-name="c" unicode="c" horiz-adv-x="516" 
d="M164 21q-59 32 -92 90.5t-33 135.5q0 76 33 134.5t92 91t135 32.5q106 0 185 -76l-58 -62q-25 25 -57.5 38.5t-68.5 13.5q-48 0 -86.5 -21.5t-60 -60.5t-21.5 -90q0 -77 47 -124.5t121 -47.5q38 0 72 14.5t59 40.5l58 -64q-40 -40 -86.5 -58.5t-102.5 -18.5
q-77 0 -136 32z" />
    <glyph glyph-name="ccedilla" unicode="&#xe7;" 
d="M125 -132h86v-24h-86v-30h-22v84h22v-30zM116.5 381.5q16.5 -16.5 40.5 -16.5t40.5 16.5t16.5 41.5t-16.5 41.5t-40.5 16.5t-40.5 -16.5t-16.5 -41.5t16.5 -41.5zM211 -86v23h-37v16l37 21v26l-41 -24q-10 20 -31 20q-16 0 -26 -10.5t-10 -27.5v-44h108zM103 40h108v-24
h-108v24zM211 54v25l-20 7v43l20 8v26l-108 -44v-23zM211 176v66h-21v-42h-87v-24h108zM211 290v23h-41v38h-22v-38h-23v42h-22v-65h108zM211 499v23h-68l68 50v19h-108v-23h66l-66 -47v-22h108zM125 607v30h86v24h-86v30h-22v-84h22zM132.5 447.5q9.5 9.5 24.5 9.5t25 -9.5
t10 -24.5q0 -14 -10 -24t-25 -10t-24.5 10t-9.5 24q0 15 9.5 24.5zM124 -44q0 7 4 11.5t10 4.5q7 0 11 -4.5t4 -11.5v-19h-29v19zM170 122v-28l-39 14z" />
    <glyph glyph-name="d" unicode="d" horiz-adv-x="630" 
d="M158 21q-56 32 -87.5 90.5t-31.5 135.5t31.5 135.5t87.5 90.5t127 32q56 0 102.5 -19t76.5 -53v267h93v-700h-82l-1 73q-30 -39 -79 -61.5t-110 -22.5q-71 0 -127 32zM153 158q21 -39 59 -61t86 -22q73 0 119.5 48t46.5 124t-46.5 124t-119.5 48q-48 0 -86 -22t-59 -61
t-21 -89t21 -89z" />
    <glyph glyph-name="eth" unicode="&#xf0;" 
d="M125 -132h86v-24h-86v-30h-22v84h22v-30zM116.5 381.5q16.5 -16.5 40.5 -16.5t40.5 16.5t16.5 41.5t-16.5 41.5t-40.5 16.5t-40.5 -16.5t-16.5 -41.5t16.5 -41.5zM211 -86v23h-37v16l37 21v26l-41 -24q-10 20 -31 20q-16 0 -26 -10.5t-10 -27.5v-44h108zM103 40h108v-24
h-108v24zM211 54v25l-20 7v43l20 8v26l-108 -44v-23zM211 176v66h-21v-42h-87v-24h108zM211 290v23h-41v38h-22v-38h-23v42h-22v-65h108zM211 499v23h-68l68 50v19h-108v-23h66l-66 -47v-22h108zM125 607v30h86v24h-86v30h-22v-84h22zM132.5 447.5q9.5 9.5 24.5 9.5t25 -9.5
t10 -24.5q0 -14 -10 -24t-25 -10t-24.5 10t-9.5 24q0 15 9.5 24.5zM124 -44q0 7 4 11.5t10 4.5q7 0 11 -4.5t4 -11.5v-19h-29v19zM170 122v-28l-39 14z" />
    <glyph glyph-name="e" unicode="e" horiz-adv-x="580" 
d="M163.5 19q-59.5 32 -92 91t-32.5 137q0 75 32 133.5t89 91t132 32.5q119 0 186 -69t67 -191q0 -22 -1 -34h-409q7 -64 52.5 -100.5t116.5 -36.5q45 0 86.5 16t63.5 42l60 -57q-35 -41 -91.5 -64t-120.5 -23q-79 0 -138.5 32zM456 289q-6 60 -49 96t-112 36
q-65 0 -106.5 -34.5t-52.5 -97.5h320z" />
    <glyph glyph-name="eacute" unicode="&#xe9;" 
d="M125 -132h86v-24h-86v-30h-22v84h22v-30zM116.5 381.5q16.5 -16.5 40.5 -16.5t40.5 16.5t16.5 41.5t-16.5 41.5t-40.5 16.5t-40.5 -16.5t-16.5 -41.5t16.5 -41.5zM211 -86v23h-37v16l37 21v26l-41 -24q-10 20 -31 20q-16 0 -26 -10.5t-10 -27.5v-44h108zM103 40h108v-24
h-108v24zM211 54v25l-20 7v43l20 8v26l-108 -44v-23zM211 176v66h-21v-42h-87v-24h108zM211 290v23h-41v38h-22v-38h-23v42h-22v-65h108zM211 499v23h-68l68 50v19h-108v-23h66l-66 -47v-22h108zM125 607v30h86v24h-86v30h-22v-84h22zM132.5 447.5q9.5 9.5 24.5 9.5t25 -9.5
t10 -24.5q0 -14 -10 -24t-25 -10t-24.5 10t-9.5 24q0 15 9.5 24.5zM124 -44q0 7 4 11.5t10 4.5q7 0 11 -4.5t4 -11.5v-19h-29v19zM170 122v-28l-39 14z" />
    <glyph glyph-name="ecaron" unicode="&#x11b;" 
d="M125 -132h86v-24h-86v-30h-22v84h22v-30zM116.5 381.5q16.5 -16.5 40.5 -16.5t40.5 16.5t16.5 41.5t-16.5 41.5t-40.5 16.5t-40.5 -16.5t-16.5 -41.5t16.5 -41.5zM211 -86v23h-37v16l37 21v26l-41 -24q-10 20 -31 20q-16 0 -26 -10.5t-10 -27.5v-44h108zM103 40h108v-24
h-108v24zM211 54v25l-20 7v43l20 8v26l-108 -44v-23zM211 176v66h-21v-42h-87v-24h108zM211 290v23h-41v38h-22v-38h-23v42h-22v-65h108zM211 499v23h-68l68 50v19h-108v-23h66l-66 -47v-22h108zM125 607v30h86v24h-86v30h-22v-84h22zM132.5 447.5q9.5 9.5 24.5 9.5t25 -9.5
t10 -24.5q0 -14 -10 -24t-25 -10t-24.5 10t-9.5 24q0 15 9.5 24.5zM124 -44q0 7 4 11.5t10 4.5q7 0 11 -4.5t4 -11.5v-19h-29v19zM170 122v-28l-39 14z" />
    <glyph glyph-name="ecircumflex" unicode="&#xea;" 
d="M125 -132h86v-24h-86v-30h-22v84h22v-30zM116.5 381.5q16.5 -16.5 40.5 -16.5t40.5 16.5t16.5 41.5t-16.5 41.5t-40.5 16.5t-40.5 -16.5t-16.5 -41.5t16.5 -41.5zM211 -86v23h-37v16l37 21v26l-41 -24q-10 20 -31 20q-16 0 -26 -10.5t-10 -27.5v-44h108zM103 40h108v-24
h-108v24zM211 54v25l-20 7v43l20 8v26l-108 -44v-23zM211 176v66h-21v-42h-87v-24h108zM211 290v23h-41v38h-22v-38h-23v42h-22v-65h108zM211 499v23h-68l68 50v19h-108v-23h66l-66 -47v-22h108zM125 607v30h86v24h-86v30h-22v-84h22zM132.5 447.5q9.5 9.5 24.5 9.5t25 -9.5
t10 -24.5q0 -14 -10 -24t-25 -10t-24.5 10t-9.5 24q0 15 9.5 24.5zM124 -44q0 7 4 11.5t10 4.5q7 0 11 -4.5t4 -11.5v-19h-29v19zM170 122v-28l-39 14z" />
    <glyph glyph-name="edieresis" unicode="&#xeb;" 
d="M125 -132h86v-24h-86v-30h-22v84h22v-30zM116.5 381.5q16.5 -16.5 40.5 -16.5t40.5 16.5t16.5 41.5t-16.5 41.5t-40.5 16.5t-40.5 -16.5t-16.5 -41.5t16.5 -41.5zM211 -86v23h-37v16l37 21v26l-41 -24q-10 20 -31 20q-16 0 -26 -10.5t-10 -27.5v-44h108zM103 40h108v-24
h-108v24zM211 54v25l-20 7v43l20 8v26l-108 -44v-23zM211 176v66h-21v-42h-87v-24h108zM211 290v23h-41v38h-22v-38h-23v42h-22v-65h108zM211 499v23h-68l68 50v19h-108v-23h66l-66 -47v-22h108zM125 607v30h86v24h-86v30h-22v-84h22zM132.5 447.5q9.5 9.5 24.5 9.5t25 -9.5
t10 -24.5q0 -14 -10 -24t-25 -10t-24.5 10t-9.5 24q0 15 9.5 24.5zM124 -44q0 7 4 11.5t10 4.5q7 0 11 -4.5t4 -11.5v-19h-29v19zM170 122v-28l-39 14z" />
    <glyph glyph-name="edotaccent" unicode="&#x117;" 
d="M125 -132h86v-24h-86v-30h-22v84h22v-30zM116.5 381.5q16.5 -16.5 40.5 -16.5t40.5 16.5t16.5 41.5t-16.5 41.5t-40.5 16.5t-40.5 -16.5t-16.5 -41.5t16.5 -41.5zM211 -86v23h-37v16l37 21v26l-41 -24q-10 20 -31 20q-16 0 -26 -10.5t-10 -27.5v-44h108zM103 40h108v-24
h-108v24zM211 54v25l-20 7v43l20 8v26l-108 -44v-23zM211 176v66h-21v-42h-87v-24h108zM211 290v23h-41v38h-22v-38h-23v42h-22v-65h108zM211 499v23h-68l68 50v19h-108v-23h66l-66 -47v-22h108zM125 607v30h86v24h-86v30h-22v-84h22zM132.5 447.5q9.5 9.5 24.5 9.5t25 -9.5
t10 -24.5q0 -14 -10 -24t-25 -10t-24.5 10t-9.5 24q0 15 9.5 24.5zM124 -44q0 7 4 11.5t10 4.5q7 0 11 -4.5t4 -11.5v-19h-29v19zM170 122v-28l-39 14z" />
    <glyph glyph-name="egrave" unicode="&#xe8;" 
d="M125 -132h86v-24h-86v-30h-22v84h22v-30zM116.5 381.5q16.5 -16.5 40.5 -16.5t40.5 16.5t16.5 41.5t-16.5 41.5t-40.5 16.5t-40.5 -16.5t-16.5 -41.5t16.5 -41.5zM211 -86v23h-37v16l37 21v26l-41 -24q-10 20 -31 20q-16 0 -26 -10.5t-10 -27.5v-44h108zM103 40h108v-24
h-108v24zM211 54v25l-20 7v43l20 8v26l-108 -44v-23zM211 176v66h-21v-42h-87v-24h108zM211 290v23h-41v38h-22v-38h-23v42h-22v-65h108zM211 499v23h-68l68 50v19h-108v-23h66l-66 -47v-22h108zM125 607v30h86v24h-86v30h-22v-84h22zM132.5 447.5q9.5 9.5 24.5 9.5t25 -9.5
t10 -24.5q0 -14 -10 -24t-25 -10t-24.5 10t-9.5 24q0 15 9.5 24.5zM124 -44q0 7 4 11.5t10 4.5q7 0 11 -4.5t4 -11.5v-19h-29v19zM170 122v-28l-39 14z" />
    <glyph glyph-name="f" unicode="f" horiz-adv-x="383" 
d="M171 664q47 48 125 48q62 0 118 -40l-38 -67q-20 14 -37.5 20t-37.5 6q-39 0 -61.5 -25t-22.5 -77v-35h152v-82h-152v-412h-93v412h-95v82h95v35q0 87 47 135z" />
    <glyph glyph-name="g" unicode="g" horiz-adv-x="610" 
d="M165 -271q-59 27 -90 76t-29 112h92q-2 -58 43.5 -93.5t120.5 -35.5t120.5 31t45.5 83q0 50 -44 80t-120 30q-80 0 -140 30t-92.5 85.5t-32.5 129.5q0 70 34 126t93.5 88t134.5 32q85 0 140 -35l64 77l67 -52l-68 -80q33 -39 47 -75t14 -81q0 -69 -35 -120t-100 -77
q63 -21 97 -62t34 -96q0 -60 -32 -105.5t-90.5 -70t-136.5 -24.5t-137 27zM179 141q47 -44 123 -44q75 0 122.5 44.5t47.5 115.5q0 72 -46.5 116t-123.5 44q-76 0 -123 -44.5t-47 -115.5q0 -72 47 -116z" />
    <glyph glyph-name="h" unicode="h" horiz-adv-x="609" 
d="M72 700h93v-270q62 73 167 73q97 0 154.5 -62t57.5 -167v-274h-93v268q0 71 -35 110t-98 39q-67 0 -110 -43.5t-43 -110.5v-263h-93v700z" />
    <glyph glyph-name="i" unicode="i" horiz-adv-x="237" 
d="M72 494h93v-494h-93v494zM74 684.5q18 17.5 45 17.5q28 0 45.5 -17.5t17.5 -44.5q0 -26 -17.5 -43.5t-45.5 -17.5q-27 0 -45 17.5t-18 43.5q0 27 18 44.5z" />
    <glyph glyph-name="iacute" unicode="&#xed;" 
d="M125 -132h86v-24h-86v-30h-22v84h22v-30zM116.5 381.5q16.5 -16.5 40.5 -16.5t40.5 16.5t16.5 41.5t-16.5 41.5t-40.5 16.5t-40.5 -16.5t-16.5 -41.5t16.5 -41.5zM211 -86v23h-37v16l37 21v26l-41 -24q-10 20 -31 20q-16 0 -26 -10.5t-10 -27.5v-44h108zM103 40h108v-24
h-108v24zM211 54v25l-20 7v43l20 8v26l-108 -44v-23zM211 176v66h-21v-42h-87v-24h108zM211 290v23h-41v38h-22v-38h-23v42h-22v-65h108zM211 499v23h-68l68 50v19h-108v-23h66l-66 -47v-22h108zM125 607v30h86v24h-86v30h-22v-84h22zM132.5 447.5q9.5 9.5 24.5 9.5t25 -9.5
t10 -24.5q0 -14 -10 -24t-25 -10t-24.5 10t-9.5 24q0 15 9.5 24.5zM124 -44q0 7 4 11.5t10 4.5q7 0 11 -4.5t4 -11.5v-19h-29v19zM170 122v-28l-39 14z" />
    <glyph glyph-name="icircumflex" unicode="&#xee;" 
d="M125 -132h86v-24h-86v-30h-22v84h22v-30zM116.5 381.5q16.5 -16.5 40.5 -16.5t40.5 16.5t16.5 41.5t-16.5 41.5t-40.5 16.5t-40.5 -16.5t-16.5 -41.5t16.5 -41.5zM211 -86v23h-37v16l37 21v26l-41 -24q-10 20 -31 20q-16 0 -26 -10.5t-10 -27.5v-44h108zM103 40h108v-24
h-108v24zM211 54v25l-20 7v43l20 8v26l-108 -44v-23zM211 176v66h-21v-42h-87v-24h108zM211 290v23h-41v38h-22v-38h-23v42h-22v-65h108zM211 499v23h-68l68 50v19h-108v-23h66l-66 -47v-22h108zM125 607v30h86v24h-86v30h-22v-84h22zM132.5 447.5q9.5 9.5 24.5 9.5t25 -9.5
t10 -24.5q0 -14 -10 -24t-25 -10t-24.5 10t-9.5 24q0 15 9.5 24.5zM124 -44q0 7 4 11.5t10 4.5q7 0 11 -4.5t4 -11.5v-19h-29v19zM170 122v-28l-39 14z" />
    <glyph glyph-name="idieresis" unicode="&#xef;" 
d="M125 -132h86v-24h-86v-30h-22v84h22v-30zM116.5 381.5q16.5 -16.5 40.5 -16.5t40.5 16.5t16.5 41.5t-16.5 41.5t-40.5 16.5t-40.5 -16.5t-16.5 -41.5t16.5 -41.5zM211 -86v23h-37v16l37 21v26l-41 -24q-10 20 -31 20q-16 0 -26 -10.5t-10 -27.5v-44h108zM103 40h108v-24
h-108v24zM211 54v25l-20 7v43l20 8v26l-108 -44v-23zM211 176v66h-21v-42h-87v-24h108zM211 290v23h-41v38h-22v-38h-23v42h-22v-65h108zM211 499v23h-68l68 50v19h-108v-23h66l-66 -47v-22h108zM125 607v30h86v24h-86v30h-22v-84h22zM132.5 447.5q9.5 9.5 24.5 9.5t25 -9.5
t10 -24.5q0 -14 -10 -24t-25 -10t-24.5 10t-9.5 24q0 15 9.5 24.5zM124 -44q0 7 4 11.5t10 4.5q7 0 11 -4.5t4 -11.5v-19h-29v19zM170 122v-28l-39 14z" />
    <glyph glyph-name="igrave" unicode="&#xec;" 
d="M125 -132h86v-24h-86v-30h-22v84h22v-30zM116.5 381.5q16.5 -16.5 40.5 -16.5t40.5 16.5t16.5 41.5t-16.5 41.5t-40.5 16.5t-40.5 -16.5t-16.5 -41.5t16.5 -41.5zM211 -86v23h-37v16l37 21v26l-41 -24q-10 20 -31 20q-16 0 -26 -10.5t-10 -27.5v-44h108zM103 40h108v-24
h-108v24zM211 54v25l-20 7v43l20 8v26l-108 -44v-23zM211 176v66h-21v-42h-87v-24h108zM211 290v23h-41v38h-22v-38h-23v42h-22v-65h108zM211 499v23h-68l68 50v19h-108v-23h66l-66 -47v-22h108zM125 607v30h86v24h-86v30h-22v-84h22zM132.5 447.5q9.5 9.5 24.5 9.5t25 -9.5
t10 -24.5q0 -14 -10 -24t-25 -10t-24.5 10t-9.5 24q0 15 9.5 24.5zM124 -44q0 7 4 11.5t10 4.5q7 0 11 -4.5t4 -11.5v-19h-29v19zM170 122v-28l-39 14z" />
    <glyph glyph-name="j" unicode="j" horiz-adv-x="237" 
d="M-88 -216l33 72q31 -16 61 -16q37 0 51.5 22t14.5 77v555h93v-555q0 -96 -36.5 -140.5t-115.5 -44.5q-55 0 -101 30zM74 684.5q18 17.5 45 17.5q28 0 45.5 -17.5t17.5 -44.5q0 -26 -17.5 -43.5t-45.5 -17.5q-27 0 -45 17.5t-18 43.5q0 27 18 44.5z" />
    <glyph glyph-name="k" unicode="k" horiz-adv-x="505" 
d="M165 225v-225h-93v700h93v-419l194 213h117l-220 -238l251 -256h-125z" />
    <glyph glyph-name="l" unicode="l" horiz-adv-x="237" 
d="M72 700h93v-700h-93v700z" />
    <glyph glyph-name="m" unicode="m" horiz-adv-x="919" 
d="M72 494h83l1 -64q55 73 150 73q56 0 99.5 -25t65.5 -69q29 46 74.5 70t104.5 24q95 0 150 -57.5t55 -158.5v-287h-93v281q0 66 -30 101t-86 35q-61 0 -98.5 -39.5t-37.5 -102.5v-275h-93v281q0 66 -30 101t-86 35q-60 0 -98 -39.5t-38 -102.5v-275h-93v494z" />
    <glyph glyph-name="n" unicode="n" horiz-adv-x="609" 
d="M72 494h83l1 -69q32 38 77 58t99 20q64 0 112 -28t74 -80t26 -121v-274h-93v268q0 71 -35 110t-98 39q-67 0 -110 -43.5t-43 -110.5v-263h-93v494z" />
    <glyph glyph-name="ntilde" unicode="&#xf1;" 
d="M125 -132h86v-24h-86v-30h-22v84h22v-30zM116.5 381.5q16.5 -16.5 40.5 -16.5t40.5 16.5t16.5 41.5t-16.5 41.5t-40.5 16.5t-40.5 -16.5t-16.5 -41.5t16.5 -41.5zM211 -86v23h-37v16l37 21v26l-41 -24q-10 20 -31 20q-16 0 -26 -10.5t-10 -27.5v-44h108zM103 40h108v-24
h-108v24zM211 54v25l-20 7v43l20 8v26l-108 -44v-23zM211 176v66h-21v-42h-87v-24h108zM211 290v23h-41v38h-22v-38h-23v42h-22v-65h108zM211 499v23h-68l68 50v19h-108v-23h66l-66 -47v-22h108zM125 607v30h86v24h-86v30h-22v-84h22zM132.5 447.5q9.5 9.5 24.5 9.5t25 -9.5
t10 -24.5q0 -14 -10 -24t-25 -10t-24.5 10t-9.5 24q0 15 9.5 24.5zM124 -44q0 7 4 11.5t10 4.5q7 0 11 -4.5t4 -11.5v-19h-29v19zM170 122v-28l-39 14z" />
    <glyph glyph-name="o" unicode="o" horiz-adv-x="599" 
d="M163.5 22.5q-59.5 33.5 -92 92.5t-32.5 132t32.5 132t92 92.5t136.5 33.5t136 -33.5t91.5 -92.5t32.5 -132t-32.5 -132t-91.5 -92.5t-136 -33.5t-136.5 33.5zM153 160.5q21 -39.5 59 -62.5t88 -23q49 0 87 23t59 62.5t21 86.5t-21 86.5t-59 62.5t-87 23q-50 0 -88 -23
t-59 -62.5t-21 -86.5t21 -86.5z" />
    <glyph glyph-name="oacute" unicode="&#xf3;" 
d="M125 -132h86v-24h-86v-30h-22v84h22v-30zM116.5 381.5q16.5 -16.5 40.5 -16.5t40.5 16.5t16.5 41.5t-16.5 41.5t-40.5 16.5t-40.5 -16.5t-16.5 -41.5t16.5 -41.5zM211 -86v23h-37v16l37 21v26l-41 -24q-10 20 -31 20q-16 0 -26 -10.5t-10 -27.5v-44h108zM103 40h108v-24
h-108v24zM211 54v25l-20 7v43l20 8v26l-108 -44v-23zM211 176v66h-21v-42h-87v-24h108zM211 290v23h-41v38h-22v-38h-23v42h-22v-65h108zM211 499v23h-68l68 50v19h-108v-23h66l-66 -47v-22h108zM125 607v30h86v24h-86v30h-22v-84h22zM132.5 447.5q9.5 9.5 24.5 9.5t25 -9.5
t10 -24.5q0 -14 -10 -24t-25 -10t-24.5 10t-9.5 24q0 15 9.5 24.5zM124 -44q0 7 4 11.5t10 4.5q7 0 11 -4.5t4 -11.5v-19h-29v19zM170 122v-28l-39 14z" />
    <glyph glyph-name="ocircumflex" unicode="&#xf4;" 
d="M125 -132h86v-24h-86v-30h-22v84h22v-30zM116.5 381.5q16.5 -16.5 40.5 -16.5t40.5 16.5t16.5 41.5t-16.5 41.5t-40.5 16.5t-40.5 -16.5t-16.5 -41.5t16.5 -41.5zM211 -86v23h-37v16l37 21v26l-41 -24q-10 20 -31 20q-16 0 -26 -10.5t-10 -27.5v-44h108zM103 40h108v-24
h-108v24zM211 54v25l-20 7v43l20 8v26l-108 -44v-23zM211 176v66h-21v-42h-87v-24h108zM211 290v23h-41v38h-22v-38h-23v42h-22v-65h108zM211 499v23h-68l68 50v19h-108v-23h66l-66 -47v-22h108zM125 607v30h86v24h-86v30h-22v-84h22zM132.5 447.5q9.5 9.5 24.5 9.5t25 -9.5
t10 -24.5q0 -14 -10 -24t-25 -10t-24.5 10t-9.5 24q0 15 9.5 24.5zM124 -44q0 7 4 11.5t10 4.5q7 0 11 -4.5t4 -11.5v-19h-29v19zM170 122v-28l-39 14z" />
    <glyph glyph-name="odieresis" unicode="&#xf6;" 
d="M125 -132h86v-24h-86v-30h-22v84h22v-30zM116.5 381.5q16.5 -16.5 40.5 -16.5t40.5 16.5t16.5 41.5t-16.5 41.5t-40.5 16.5t-40.5 -16.5t-16.5 -41.5t16.5 -41.5zM211 -86v23h-37v16l37 21v26l-41 -24q-10 20 -31 20q-16 0 -26 -10.5t-10 -27.5v-44h108zM103 40h108v-24
h-108v24zM211 54v25l-20 7v43l20 8v26l-108 -44v-23zM211 176v66h-21v-42h-87v-24h108zM211 290v23h-41v38h-22v-38h-23v42h-22v-65h108zM211 499v23h-68l68 50v19h-108v-23h66l-66 -47v-22h108zM125 607v30h86v24h-86v30h-22v-84h22zM132.5 447.5q9.5 9.5 24.5 9.5t25 -9.5
t10 -24.5q0 -14 -10 -24t-25 -10t-24.5 10t-9.5 24q0 15 9.5 24.5zM124 -44q0 7 4 11.5t10 4.5q7 0 11 -4.5t4 -11.5v-19h-29v19zM170 122v-28l-39 14z" />
    <glyph glyph-name="ograve" unicode="&#xf2;" 
d="M125 -132h86v-24h-86v-30h-22v84h22v-30zM116.5 381.5q16.5 -16.5 40.5 -16.5t40.5 16.5t16.5 41.5t-16.5 41.5t-40.5 16.5t-40.5 -16.5t-16.5 -41.5t16.5 -41.5zM211 -86v23h-37v16l37 21v26l-41 -24q-10 20 -31 20q-16 0 -26 -10.5t-10 -27.5v-44h108zM103 40h108v-24
h-108v24zM211 54v25l-20 7v43l20 8v26l-108 -44v-23zM211 176v66h-21v-42h-87v-24h108zM211 290v23h-41v38h-22v-38h-23v42h-22v-65h108zM211 499v23h-68l68 50v19h-108v-23h66l-66 -47v-22h108zM125 607v30h86v24h-86v30h-22v-84h22zM132.5 447.5q9.5 9.5 24.5 9.5t25 -9.5
t10 -24.5q0 -14 -10 -24t-25 -10t-24.5 10t-9.5 24q0 15 9.5 24.5zM124 -44q0 7 4 11.5t10 4.5q7 0 11 -4.5t4 -11.5v-19h-29v19zM170 122v-28l-39 14z" />
    <glyph glyph-name="oslash" unicode="&#xf8;" 
d="M125 -132h86v-24h-86v-30h-22v84h22v-30zM116.5 381.5q16.5 -16.5 40.5 -16.5t40.5 16.5t16.5 41.5t-16.5 41.5t-40.5 16.5t-40.5 -16.5t-16.5 -41.5t16.5 -41.5zM211 -86v23h-37v16l37 21v26l-41 -24q-10 20 -31 20q-16 0 -26 -10.5t-10 -27.5v-44h108zM103 40h108v-24
h-108v24zM211 54v25l-20 7v43l20 8v26l-108 -44v-23zM211 176v66h-21v-42h-87v-24h108zM211 290v23h-41v38h-22v-38h-23v42h-22v-65h108zM211 499v23h-68l68 50v19h-108v-23h66l-66 -47v-22h108zM125 607v30h86v24h-86v30h-22v-84h22zM132.5 447.5q9.5 9.5 24.5 9.5t25 -9.5
t10 -24.5q0 -14 -10 -24t-25 -10t-24.5 10t-9.5 24q0 15 9.5 24.5zM124 -44q0 7 4 11.5t10 4.5q7 0 11 -4.5t4 -11.5v-19h-29v19zM170 122v-28l-39 14z" />
    <glyph glyph-name="otilde" unicode="&#xf5;" 
d="M125 -132h86v-24h-86v-30h-22v84h22v-30zM116.5 381.5q16.5 -16.5 40.5 -16.5t40.5 16.5t16.5 41.5t-16.5 41.5t-40.5 16.5t-40.5 -16.5t-16.5 -41.5t16.5 -41.5zM211 -86v23h-37v16l37 21v26l-41 -24q-10 20 -31 20q-16 0 -26 -10.5t-10 -27.5v-44h108zM103 40h108v-24
h-108v24zM211 54v25l-20 7v43l20 8v26l-108 -44v-23zM211 176v66h-21v-42h-87v-24h108zM211 290v23h-41v38h-22v-38h-23v42h-22v-65h108zM211 499v23h-68l68 50v19h-108v-23h66l-66 -47v-22h108zM125 607v30h86v24h-86v30h-22v-84h22zM132.5 447.5q9.5 9.5 24.5 9.5t25 -9.5
t10 -24.5q0 -14 -10 -24t-25 -10t-24.5 10t-9.5 24q0 15 9.5 24.5zM124 -44q0 7 4 11.5t10 4.5q7 0 11 -4.5t4 -11.5v-19h-29v19zM170 122v-28l-39 14z" />
    <glyph glyph-name="oe" unicode="&#x153;" 
d="M125 -132h86v-24h-86v-30h-22v84h22v-30zM116.5 381.5q16.5 -16.5 40.5 -16.5t40.5 16.5t16.5 41.5t-16.5 41.5t-40.5 16.5t-40.5 -16.5t-16.5 -41.5t16.5 -41.5zM211 -86v23h-37v16l37 21v26l-41 -24q-10 20 -31 20q-16 0 -26 -10.5t-10 -27.5v-44h108zM103 40h108v-24
h-108v24zM211 54v25l-20 7v43l20 8v26l-108 -44v-23zM211 176v66h-21v-42h-87v-24h108zM211 290v23h-41v38h-22v-38h-23v42h-22v-65h108zM211 499v23h-68l68 50v19h-108v-23h66l-66 -47v-22h108zM125 607v30h86v24h-86v30h-22v-84h22zM132.5 447.5q9.5 9.5 24.5 9.5t25 -9.5
t10 -24.5q0 -14 -10 -24t-25 -10t-24.5 10t-9.5 24q0 15 9.5 24.5zM124 -44q0 7 4 11.5t10 4.5q7 0 11 -4.5t4 -11.5v-19h-29v19zM170 122v-28l-39 14z" />
    <glyph glyph-name="p" unicode="p" horiz-adv-x="630" 
d="M72 494h83l1 -73q29 39 78 61.5t109 22.5q72 0 128 -32.5t87.5 -91.5t31.5 -134t-31.5 -134t-87.5 -91.5t-128 -32.5q-56 0 -102.5 19t-75.5 54v-294h-93v726zM186 158q21 -39 59 -61t86 -22q73 0 119.5 48t46.5 124t-46.5 124t-119.5 48q-48 0 -86 -22t-59 -61t-21 -89
t21 -89z" />
    <glyph glyph-name="thorn" unicode="&#xfe;" 
d="M125 -132h86v-24h-86v-30h-22v84h22v-30zM116.5 381.5q16.5 -16.5 40.5 -16.5t40.5 16.5t16.5 41.5t-16.5 41.5t-40.5 16.5t-40.5 -16.5t-16.5 -41.5t16.5 -41.5zM211 -86v23h-37v16l37 21v26l-41 -24q-10 20 -31 20q-16 0 -26 -10.5t-10 -27.5v-44h108zM103 40h108v-24
h-108v24zM211 54v25l-20 7v43l20 8v26l-108 -44v-23zM211 176v66h-21v-42h-87v-24h108zM211 290v23h-41v38h-22v-38h-23v42h-22v-65h108zM211 499v23h-68l68 50v19h-108v-23h66l-66 -47v-22h108zM125 607v30h86v24h-86v30h-22v-84h22zM132.5 447.5q9.5 9.5 24.5 9.5t25 -9.5
t10 -24.5q0 -14 -10 -24t-25 -10t-24.5 10t-9.5 24q0 15 9.5 24.5zM124 -44q0 7 4 11.5t10 4.5q7 0 11 -4.5t4 -11.5v-19h-29v19zM170 122v-28l-39 14z" />
    <glyph glyph-name="q" unicode="q" horiz-adv-x="630" 
d="M464 -232v293q-30 -34 -76.5 -53t-101.5 -19q-72 0 -128 33t-87.5 91.5t-31.5 133.5t31.5 133.5t87.5 91.5t128 33q60 0 109 -22.5t79 -61.5l1 73h82v-726h-93zM153 158q21 -39 59 -61t86 -22q73 0 119.5 48t46.5 124t-46.5 124t-119.5 48q-48 0 -86 -22t-59 -61t-21 -89
t21 -89z" />
    <glyph glyph-name="r" unicode="r" horiz-adv-x="433" 
d="M72 494h83l1 -83q29 47 67.5 69.5t87.5 22.5q35 0 67 -10.5t54 -28.5l-42 -78q-40 26 -84 26q-64 0 -102.5 -46.5t-38.5 -122.5v-243h-93v494z" />
    <glyph glyph-name="uni0157" unicode="&#x157;" 
d="M125 -132h86v-24h-86v-30h-22v84h22v-30zM116.5 381.5q16.5 -16.5 40.5 -16.5t40.5 16.5t16.5 41.5t-16.5 41.5t-40.5 16.5t-40.5 -16.5t-16.5 -41.5t16.5 -41.5zM211 -86v23h-37v16l37 21v26l-41 -24q-10 20 -31 20q-16 0 -26 -10.5t-10 -27.5v-44h108zM103 40h108v-24
h-108v24zM211 54v25l-20 7v43l20 8v26l-108 -44v-23zM211 176v66h-21v-42h-87v-24h108zM211 290v23h-41v38h-22v-38h-23v42h-22v-65h108zM211 499v23h-68l68 50v19h-108v-23h66l-66 -47v-22h108zM125 607v30h86v24h-86v30h-22v-84h22zM132.5 447.5q9.5 9.5 24.5 9.5t25 -9.5
t10 -24.5q0 -14 -10 -24t-25 -10t-24.5 10t-9.5 24q0 15 9.5 24.5zM124 -44q0 7 4 11.5t10 4.5q7 0 11 -4.5t4 -11.5v-19h-29v19zM170 122v-28l-39 14z" />
    <glyph glyph-name="s" unicode="s" horiz-adv-x="500" 
d="M34 65l47 69q32 -29 79 -45t98 -16q53 0 84 18t31 49q0 30 -28.5 46t-95.5 24q-199 24 -199 148q0 66 58 106.5t152 40.5q111 0 194 -59l-43 -68q-65 46 -147 46q-60 0 -91.5 -16.5t-31.5 -48.5q0 -28 26.5 -43.5t89.5 -23.5q111 -14 159.5 -50t48.5 -103q0 -44 -26 -78
t-73.5 -53t-109.5 -19q-125 0 -222 76z" />
    <glyph glyph-name="scaron" unicode="&#x161;" 
d="M125 -132h86v-24h-86v-30h-22v84h22v-30zM116.5 381.5q16.5 -16.5 40.5 -16.5t40.5 16.5t16.5 41.5t-16.5 41.5t-40.5 16.5t-40.5 -16.5t-16.5 -41.5t16.5 -41.5zM211 -86v23h-37v16l37 21v26l-41 -24q-10 20 -31 20q-16 0 -26 -10.5t-10 -27.5v-44h108zM103 40h108v-24
h-108v24zM211 54v25l-20 7v43l20 8v26l-108 -44v-23zM211 176v66h-21v-42h-87v-24h108zM211 290v23h-41v38h-22v-38h-23v42h-22v-65h108zM211 499v23h-68l68 50v19h-108v-23h66l-66 -47v-22h108zM125 607v30h86v24h-86v30h-22v-84h22zM132.5 447.5q9.5 9.5 24.5 9.5t25 -9.5
t10 -24.5q0 -14 -10 -24t-25 -10t-24.5 10t-9.5 24q0 15 9.5 24.5zM124 -44q0 7 4 11.5t10 4.5q7 0 11 -4.5t4 -11.5v-19h-29v19zM170 122v-28l-39 14z" />
    <glyph glyph-name="germandbls" unicode="&#xdf;" horiz-adv-x="612" 
d="M229 6v86q50 -18 98 -18q70 0 110.5 35t40.5 97q0 66 -48 103t-133 37h-57v81h54q65 0 100.5 26t35.5 72q0 47 -35.5 73.5t-97.5 26.5q-132 0 -132 -132v-493h-93v497q0 102 58.5 158t166.5 56q102 0 163 -50t61 -135q0 -48 -24.5 -84.5t-66.5 -50.5q62 -16 101.5 -67.5
t39.5 -119.5q0 -99 -61.5 -157.5t-166.5 -58.5q-55 0 -114 18z" />
    <glyph glyph-name="t" unicode="t" horiz-adv-x="405" 
d="M167.5 36.5q-39.5 43.5 -39.5 127.5v249h-97v81h97v133l92 10v-143h150v-81h-150v-249q0 -43 18 -65t57 -22q30 0 67 16l27 -77q-52 -23 -105 -23q-77 0 -116.5 43.5z" />
    <glyph glyph-name="u" unicode="u" horiz-adv-x="603" 
d="M122 53q-57 62 -57 167v274h93v-268q0 -71 34 -110t95 -39q67 0 109 43.5t42 110.5v263h93v-494h-83l-1 70q-31 -39 -75.5 -59t-97.5 -20q-95 0 -152 62z" />
    <glyph glyph-name="uacute" unicode="&#xfa;" 
d="M125 -132h86v-24h-86v-30h-22v84h22v-30zM116.5 381.5q16.5 -16.5 40.5 -16.5t40.5 16.5t16.5 41.5t-16.5 41.5t-40.5 16.5t-40.5 -16.5t-16.5 -41.5t16.5 -41.5zM211 -86v23h-37v16l37 21v26l-41 -24q-10 20 -31 20q-16 0 -26 -10.5t-10 -27.5v-44h108zM103 40h108v-24
h-108v24zM211 54v25l-20 7v43l20 8v26l-108 -44v-23zM211 176v66h-21v-42h-87v-24h108zM211 290v23h-41v38h-22v-38h-23v42h-22v-65h108zM211 499v23h-68l68 50v19h-108v-23h66l-66 -47v-22h108zM125 607v30h86v24h-86v30h-22v-84h22zM132.5 447.5q9.5 9.5 24.5 9.5t25 -9.5
t10 -24.5q0 -14 -10 -24t-25 -10t-24.5 10t-9.5 24q0 15 9.5 24.5zM124 -44q0 7 4 11.5t10 4.5q7 0 11 -4.5t4 -11.5v-19h-29v19zM170 122v-28l-39 14z" />
    <glyph glyph-name="ucircumflex" unicode="&#xfb;" 
d="M125 -132h86v-24h-86v-30h-22v84h22v-30zM116.5 381.5q16.5 -16.5 40.5 -16.5t40.5 16.5t16.5 41.5t-16.5 41.5t-40.5 16.5t-40.5 -16.5t-16.5 -41.5t16.5 -41.5zM211 -86v23h-37v16l37 21v26l-41 -24q-10 20 -31 20q-16 0 -26 -10.5t-10 -27.5v-44h108zM103 40h108v-24
h-108v24zM211 54v25l-20 7v43l20 8v26l-108 -44v-23zM211 176v66h-21v-42h-87v-24h108zM211 290v23h-41v38h-22v-38h-23v42h-22v-65h108zM211 499v23h-68l68 50v19h-108v-23h66l-66 -47v-22h108zM125 607v30h86v24h-86v30h-22v-84h22zM132.5 447.5q9.5 9.5 24.5 9.5t25 -9.5
t10 -24.5q0 -14 -10 -24t-25 -10t-24.5 10t-9.5 24q0 15 9.5 24.5zM124 -44q0 7 4 11.5t10 4.5q7 0 11 -4.5t4 -11.5v-19h-29v19zM170 122v-28l-39 14z" />
    <glyph glyph-name="udieresis" unicode="&#xfc;" 
d="M125 -132h86v-24h-86v-30h-22v84h22v-30zM116.5 381.5q16.5 -16.5 40.5 -16.5t40.5 16.5t16.5 41.5t-16.5 41.5t-40.5 16.5t-40.5 -16.5t-16.5 -41.5t16.5 -41.5zM211 -86v23h-37v16l37 21v26l-41 -24q-10 20 -31 20q-16 0 -26 -10.5t-10 -27.5v-44h108zM103 40h108v-24
h-108v24zM211 54v25l-20 7v43l20 8v26l-108 -44v-23zM211 176v66h-21v-42h-87v-24h108zM211 290v23h-41v38h-22v-38h-23v42h-22v-65h108zM211 499v23h-68l68 50v19h-108v-23h66l-66 -47v-22h108zM125 607v30h86v24h-86v30h-22v-84h22zM132.5 447.5q9.5 9.5 24.5 9.5t25 -9.5
t10 -24.5q0 -14 -10 -24t-25 -10t-24.5 10t-9.5 24q0 15 9.5 24.5zM124 -44q0 7 4 11.5t10 4.5q7 0 11 -4.5t4 -11.5v-19h-29v19zM170 122v-28l-39 14z" />
    <glyph glyph-name="ugrave" unicode="&#xf9;" 
d="M125 -132h86v-24h-86v-30h-22v84h22v-30zM116.5 381.5q16.5 -16.5 40.5 -16.5t40.5 16.5t16.5 41.5t-16.5 41.5t-40.5 16.5t-40.5 -16.5t-16.5 -41.5t16.5 -41.5zM211 -86v23h-37v16l37 21v26l-41 -24q-10 20 -31 20q-16 0 -26 -10.5t-10 -27.5v-44h108zM103 40h108v-24
h-108v24zM211 54v25l-20 7v43l20 8v26l-108 -44v-23zM211 176v66h-21v-42h-87v-24h108zM211 290v23h-41v38h-22v-38h-23v42h-22v-65h108zM211 499v23h-68l68 50v19h-108v-23h66l-66 -47v-22h108zM125 607v30h86v24h-86v30h-22v-84h22zM132.5 447.5q9.5 9.5 24.5 9.5t25 -9.5
t10 -24.5q0 -14 -10 -24t-25 -10t-24.5 10t-9.5 24q0 15 9.5 24.5zM124 -44q0 7 4 11.5t10 4.5q7 0 11 -4.5t4 -11.5v-19h-29v19zM170 122v-28l-39 14z" />
    <glyph glyph-name="v" unicode="v" horiz-adv-x="563" 
d="M22 494h102l73 -181l85 -217l85 217l75 181h99l-209 -494h-101z" />
    <glyph glyph-name="w" unicode="w" horiz-adv-x="827" 
d="M19 494h99l60 -190l59 -197l135 387h83l133 -390l62 200l59 190h98l-165 -494h-102l-48 144l-78 217l-78 -217l-49 -144h-102z" />
    <glyph glyph-name="x" unicode="x" horiz-adv-x="507" 
d="M254 190l-65 -93l-68 -97h-110l182 256l-170 238h112l74 -106l44 -68l46 68l74 106h111l-171 -237l182 -257h-112z" />
    <glyph glyph-name="y" unicode="y" horiz-adv-x="554" 
d="M219 3l-197 491h100l96 -246l53 -142l58 142l103 246h100l-312 -726h-102z" />
    <glyph glyph-name="yacute" unicode="&#xfd;" 
d="M125 -132h86v-24h-86v-30h-22v84h22v-30zM116.5 381.5q16.5 -16.5 40.5 -16.5t40.5 16.5t16.5 41.5t-16.5 41.5t-40.5 16.5t-40.5 -16.5t-16.5 -41.5t16.5 -41.5zM211 -86v23h-37v16l37 21v26l-41 -24q-10 20 -31 20q-16 0 -26 -10.5t-10 -27.5v-44h108zM103 40h108v-24
h-108v24zM211 54v25l-20 7v43l20 8v26l-108 -44v-23zM211 176v66h-21v-42h-87v-24h108zM211 290v23h-41v38h-22v-38h-23v42h-22v-65h108zM211 499v23h-68l68 50v19h-108v-23h66l-66 -47v-22h108zM125 607v30h86v24h-86v30h-22v-84h22zM132.5 447.5q9.5 9.5 24.5 9.5t25 -9.5
t10 -24.5q0 -14 -10 -24t-25 -10t-24.5 10t-9.5 24q0 15 9.5 24.5zM124 -44q0 7 4 11.5t10 4.5q7 0 11 -4.5t4 -11.5v-19h-29v19zM170 122v-28l-39 14z" />
    <glyph glyph-name="ydieresis" unicode="&#xff;" 
d="M125 -132h86v-24h-86v-30h-22v84h22v-30zM116.5 381.5q16.5 -16.5 40.5 -16.5t40.5 16.5t16.5 41.5t-16.5 41.5t-40.5 16.5t-40.5 -16.5t-16.5 -41.5t16.5 -41.5zM211 -86v23h-37v16l37 21v26l-41 -24q-10 20 -31 20q-16 0 -26 -10.5t-10 -27.5v-44h108zM103 40h108v-24
h-108v24zM211 54v25l-20 7v43l20 8v26l-108 -44v-23zM211 176v66h-21v-42h-87v-24h108zM211 290v23h-41v38h-22v-38h-23v42h-22v-65h108zM211 499v23h-68l68 50v19h-108v-23h66l-66 -47v-22h108zM125 607v30h86v24h-86v30h-22v-84h22zM132.5 447.5q9.5 9.5 24.5 9.5t25 -9.5
t10 -24.5q0 -14 -10 -24t-25 -10t-24.5 10t-9.5 24q0 15 9.5 24.5zM124 -44q0 7 4 11.5t10 4.5q7 0 11 -4.5t4 -11.5v-19h-29v19zM170 122v-28l-39 14z" />
    <glyph glyph-name="z" unicode="z" horiz-adv-x="488" 
d="M30 38l273 369h-256v87h400v-37l-274 -369h276v-88h-419v38z" />
    <glyph glyph-name="zcaron" unicode="&#x17e;" 
d="M125 -132h86v-24h-86v-30h-22v84h22v-30zM116.5 381.5q16.5 -16.5 40.5 -16.5t40.5 16.5t16.5 41.5t-16.5 41.5t-40.5 16.5t-40.5 -16.5t-16.5 -41.5t16.5 -41.5zM211 -86v23h-37v16l37 21v26l-41 -24q-10 20 -31 20q-16 0 -26 -10.5t-10 -27.5v-44h108zM103 40h108v-24
h-108v24zM211 54v25l-20 7v43l20 8v26l-108 -44v-23zM211 176v66h-21v-42h-87v-24h108zM211 290v23h-41v38h-22v-38h-23v42h-22v-65h108zM211 499v23h-68l68 50v19h-108v-23h66l-66 -47v-22h108zM125 607v30h86v24h-86v30h-22v-84h22zM132.5 447.5q9.5 9.5 24.5 9.5t25 -9.5
t10 -24.5q0 -14 -10 -24t-25 -10t-24.5 10t-9.5 24q0 15 9.5 24.5zM124 -44q0 7 4 11.5t10 4.5q7 0 11 -4.5t4 -11.5v-19h-29v19zM170 122v-28l-39 14z" />
    <glyph glyph-name="aacute.ss01" 
d="M125 -132h86v-24h-86v-30h-22v84h22v-30zM116.5 381.5q16.5 -16.5 40.5 -16.5t40.5 16.5t16.5 41.5t-16.5 41.5t-40.5 16.5t-40.5 -16.5t-16.5 -41.5t16.5 -41.5zM211 -86v23h-37v16l37 21v26l-41 -24q-10 20 -31 20q-16 0 -26 -10.5t-10 -27.5v-44h108zM103 40h108v-24
h-108v24zM211 54v25l-20 7v43l20 8v26l-108 -44v-23zM211 176v66h-21v-42h-87v-24h108zM211 290v23h-41v38h-22v-38h-23v42h-22v-65h108zM211 499v23h-68l68 50v19h-108v-23h66l-66 -47v-22h108zM125 607v30h86v24h-86v30h-22v-84h22zM132.5 447.5q9.5 9.5 24.5 9.5t25 -9.5
t10 -24.5q0 -14 -10 -24t-25 -10t-24.5 10t-9.5 24q0 15 9.5 24.5zM124 -44q0 7 4 11.5t10 4.5q7 0 11 -4.5t4 -11.5v-19h-29v19zM170 122v-28l-39 14z" />
    <glyph glyph-name="ordfeminine" unicode="&#xaa;" 
d="M125 -132h86v-24h-86v-30h-22v84h22v-30zM116.5 381.5q16.5 -16.5 40.5 -16.5t40.5 16.5t16.5 41.5t-16.5 41.5t-40.5 16.5t-40.5 -16.5t-16.5 -41.5t16.5 -41.5zM211 -86v23h-37v16l37 21v26l-41 -24q-10 20 -31 20q-16 0 -26 -10.5t-10 -27.5v-44h108zM103 40h108v-24
h-108v24zM211 54v25l-20 7v43l20 8v26l-108 -44v-23zM211 176v66h-21v-42h-87v-24h108zM211 290v23h-41v38h-22v-38h-23v42h-22v-65h108zM211 499v23h-68l68 50v19h-108v-23h66l-66 -47v-22h108zM125 607v30h86v24h-86v30h-22v-84h22zM132.5 447.5q9.5 9.5 24.5 9.5t25 -9.5
t10 -24.5q0 -14 -10 -24t-25 -10t-24.5 10t-9.5 24q0 15 9.5 24.5zM124 -44q0 7 4 11.5t10 4.5q7 0 11 -4.5t4 -11.5v-19h-29v19zM170 122v-28l-39 14z" />
    <glyph glyph-name="ordmasculine" unicode="&#xba;" 
d="M125 -132h86v-24h-86v-30h-22v84h22v-30zM116.5 381.5q16.5 -16.5 40.5 -16.5t40.5 16.5t16.5 41.5t-16.5 41.5t-40.5 16.5t-40.5 -16.5t-16.5 -41.5t16.5 -41.5zM211 -86v23h-37v16l37 21v26l-41 -24q-10 20 -31 20q-16 0 -26 -10.5t-10 -27.5v-44h108zM103 40h108v-24
h-108v24zM211 54v25l-20 7v43l20 8v26l-108 -44v-23zM211 176v66h-21v-42h-87v-24h108zM211 290v23h-41v38h-22v-38h-23v42h-22v-65h108zM211 499v23h-68l68 50v19h-108v-23h66l-66 -47v-22h108zM125 607v30h86v24h-86v30h-22v-84h22zM132.5 447.5q9.5 9.5 24.5 9.5t25 -9.5
t10 -24.5q0 -14 -10 -24t-25 -10t-24.5 10t-9.5 24q0 15 9.5 24.5zM124 -44q0 7 4 11.5t10 4.5q7 0 11 -4.5t4 -11.5v-19h-29v19zM170 122v-28l-39 14z" />
    <glyph glyph-name="zero" unicode="0" horiz-adv-x="716" 
d="M202.5 25.5q-67.5 36.5 -105.5 101.5t-38 149v150q0 84 38 149t105.5 101.5t155.5 36.5t155.5 -36.5t105.5 -101.5t38 -149v-150q0 -84 -38 -149t-105.5 -101.5t-155.5 -36.5t-155.5 36.5zM182 175q25 -44 71 -68.5t105 -24.5t105 24.5t71 68.5t25 101v150q0 57 -25 101
t-71 68.5t-105 24.5t-105 -24.5t-71 -68.5t-25 -101v-150q0 -57 25 -101z" />
    <glyph glyph-name="one" unicode="1" horiz-adv-x="428" 
d="M41 93h139v492l-123 -38v92l208 64h13v-610h125v-93h-362v93z" />
    <glyph glyph-name="two" unicode="2" horiz-adv-x="674" 
d="M133.5 323.5q73.5 53.5 205.5 53.5q80 0 128.5 32.5t48.5 86.5q0 58 -45.5 91t-126.5 33q-82 0 -131 -31.5t-50 -84.5h-100q5 96 80 150.5t201 54.5q125 0 197.5 -56.5t72.5 -154.5q0 -102 -70.5 -156t-203.5 -54q-87 0 -135.5 -30t-48.5 -85v-80h458v-93h-554v173
q0 97 73.5 150.5z" />
    <glyph glyph-name="three" unicode="3" horiz-adv-x="672" 
d="M183.5 15.5q-63.5 25.5 -98 71.5t-34.5 107h97q0 -32 24.5 -57.5t68 -40t97.5 -14.5q82 0 131.5 31.5t49.5 85.5q0 55 -47.5 87t-128.5 32h-123v83h111q79 0 126.5 29.5t47.5 79.5q0 49 -47 79t-125 30q-79 0 -126 -29t-47 -76h-97q0 59 33.5 103t94.5 68.5t143 24.5
q79 0 140 -25t94.5 -70.5t33.5 -104.5q0 -52 -29.5 -94.5t-74.5 -56.5q54 -17 86.5 -60.5t32.5 -100.5q0 -63 -35 -110t-99.5 -72.5t-150.5 -25.5q-85 0 -148.5 25.5z" />
    <glyph glyph-name="four" unicode="4" horiz-adv-x="658" 
d="M432 143h-397l-12 91l392 466h115v-465h84v-92h-84v-143h-98v143zM432 234v351l-298 -351h298z" />
    <glyph glyph-name="five" unicode="5" horiz-adv-x="655" 
d="M129.5 48.5q-73.5 55.5 -73.5 154.5h97q0 -56 47.5 -86.5t135.5 -30.5q81 0 128.5 36t47.5 98t-45 96t-127 34h-264v350h495v-93h-399v-165h168q127 0 198.5 -59.5t71.5 -164.5q0 -67 -34 -118t-96.5 -79t-143.5 -28q-133 0 -206.5 55.5z" />
    <glyph glyph-name="six" unicode="6" horiz-adv-x="690" 
d="M205 18q-65 28 -100.5 80t-35.5 120v258q0 71 35 124.5t98.5 82.5t148.5 29q83 0 145.5 -24t97 -69t36.5 -105h-96q-3 46 -53 75.5t-127 29.5q-86 0 -136.5 -40t-50.5 -107v-99q40 34 90.5 51.5t107.5 17.5q81 0 143.5 -28.5t97.5 -80t35 -117.5t-36 -117.5t-101 -80
t-148 -28.5q-86 0 -151 28zM218 119q51 -37 137 -37q85 0 136.5 37t51.5 98t-51.5 98t-136.5 37q-86 0 -137 -37t-51 -98t51 -98z" />
    <glyph glyph-name="seven" unicode="7" horiz-adv-x="562" 
d="M422 607h-402v93h528v-58l-338 -642h-111z" />
    <glyph glyph-name="eight" unicode="8" horiz-adv-x="690" 
d="M193 13q-66 26 -102.5 72.5t-36.5 107.5q0 59 32.5 104.5t87.5 66.5q-49 23 -76 62.5t-27 92.5q0 57 34.5 101t97 68.5t142.5 24.5t142.5 -24.5t97 -68.5t34.5 -101q0 -53 -27 -92.5t-76 -62.5q55 -21 87.5 -66.5t32.5 -104.5q0 -61 -36.5 -107.5t-102.5 -72.5t-152 -26
t-152 26zM204.5 110q52.5 -33 140.5 -33t140 33t52 88q0 56 -52 89t-140 33t-140.5 -33.5t-52.5 -88.5t52.5 -88zM216.5 429.5q48.5 -31.5 128.5 -31.5t128.5 31.5t48.5 83.5t-48.5 83.5t-128.5 31.5t-128.5 -31.5t-48.5 -83.5t48.5 -83.5z" />
    <glyph glyph-name="nine" unicode="9" horiz-adv-x="688" 
d="M136 43q-75 53 -80 145h99q0 -30 24 -54t65.5 -37.5t92.5 -13.5q80 0 132 39.5t52 109.5v97q-78 -69 -197 -69q-81 0 -143.5 28.5t-97.5 80t-35 117.5t36 117.5t101 80t148 28.5t148 -29t101.5 -81t36.5 -118v-257q0 -72 -35.5 -126t-99 -82.5t-146.5 -28.5
q-127 0 -202 53zM198 387q51 -37 136 -37q84 0 135.5 37t51.5 98t-51.5 98t-135.5 37q-85 0 -136 -37t-51 -98t51 -98z" />
    <glyph glyph-name="nine.dnom" 
d="M125 -132h86v-24h-86v-30h-22v84h22v-30zM116.5 381.5q16.5 -16.5 40.5 -16.5t40.5 16.5t16.5 41.5t-16.5 41.5t-40.5 16.5t-40.5 -16.5t-16.5 -41.5t16.5 -41.5zM211 -86v23h-37v16l37 21v26l-41 -24q-10 20 -31 20q-16 0 -26 -10.5t-10 -27.5v-44h108zM103 40h108v-24
h-108v24zM211 54v25l-20 7v43l20 8v26l-108 -44v-23zM211 176v66h-21v-42h-87v-24h108zM211 290v23h-41v38h-22v-38h-23v42h-22v-65h108zM211 499v23h-68l68 50v19h-108v-23h66l-66 -47v-22h108zM125 607v30h86v24h-86v30h-22v-84h22zM132.5 447.5q9.5 9.5 24.5 9.5t25 -9.5
t10 -24.5q0 -14 -10 -24t-25 -10t-24.5 10t-9.5 24q0 15 9.5 24.5zM124 -44q0 7 4 11.5t10 4.5q7 0 11 -4.5t4 -11.5v-19h-29v19zM170 122v-28l-39 14z" />
    <glyph glyph-name="zero.numr" 
d="M125 -132h86v-24h-86v-30h-22v84h22v-30zM116.5 381.5q16.5 -16.5 40.5 -16.5t40.5 16.5t16.5 41.5t-16.5 41.5t-40.5 16.5t-40.5 -16.5t-16.5 -41.5t16.5 -41.5zM211 -86v23h-37v16l37 21v26l-41 -24q-10 20 -31 20q-16 0 -26 -10.5t-10 -27.5v-44h108zM103 40h108v-24
h-108v24zM211 54v25l-20 7v43l20 8v26l-108 -44v-23zM211 176v66h-21v-42h-87v-24h108zM211 290v23h-41v38h-22v-38h-23v42h-22v-65h108zM211 499v23h-68l68 50v19h-108v-23h66l-66 -47v-22h108zM125 607v30h86v24h-86v30h-22v-84h22zM132.5 447.5q9.5 9.5 24.5 9.5t25 -9.5
t10 -24.5q0 -14 -10 -24t-25 -10t-24.5 10t-9.5 24q0 15 9.5 24.5zM124 -44q0 7 4 11.5t10 4.5q7 0 11 -4.5t4 -11.5v-19h-29v19zM170 122v-28l-39 14z" />
    <glyph glyph-name="uni00B9" unicode="&#xb9;" 
d="M125 -132h86v-24h-86v-30h-22v84h22v-30zM116.5 381.5q16.5 -16.5 40.5 -16.5t40.5 16.5t16.5 41.5t-16.5 41.5t-40.5 16.5t-40.5 -16.5t-16.5 -41.5t16.5 -41.5zM211 -86v23h-37v16l37 21v26l-41 -24q-10 20 -31 20q-16 0 -26 -10.5t-10 -27.5v-44h108zM103 40h108v-24
h-108v24zM211 54v25l-20 7v43l20 8v26l-108 -44v-23zM211 176v66h-21v-42h-87v-24h108zM211 290v23h-41v38h-22v-38h-23v42h-22v-65h108zM211 499v23h-68l68 50v19h-108v-23h66l-66 -47v-22h108zM125 607v30h86v24h-86v30h-22v-84h22zM132.5 447.5q9.5 9.5 24.5 9.5t25 -9.5
t10 -24.5q0 -14 -10 -24t-25 -10t-24.5 10t-9.5 24q0 15 9.5 24.5zM124 -44q0 7 4 11.5t10 4.5q7 0 11 -4.5t4 -11.5v-19h-29v19zM170 122v-28l-39 14z" />
    <glyph glyph-name="uni00B2" unicode="&#xb2;" 
d="M125 -132h86v-24h-86v-30h-22v84h22v-30zM116.5 381.5q16.5 -16.5 40.5 -16.5t40.5 16.5t16.5 41.5t-16.5 41.5t-40.5 16.5t-40.5 -16.5t-16.5 -41.5t16.5 -41.5zM211 -86v23h-37v16l37 21v26l-41 -24q-10 20 -31 20q-16 0 -26 -10.5t-10 -27.5v-44h108zM103 40h108v-24
h-108v24zM211 54v25l-20 7v43l20 8v26l-108 -44v-23zM211 176v66h-21v-42h-87v-24h108zM211 290v23h-41v38h-22v-38h-23v42h-22v-65h108zM211 499v23h-68l68 50v19h-108v-23h66l-66 -47v-22h108zM125 607v30h86v24h-86v30h-22v-84h22zM132.5 447.5q9.5 9.5 24.5 9.5t25 -9.5
t10 -24.5q0 -14 -10 -24t-25 -10t-24.5 10t-9.5 24q0 15 9.5 24.5zM124 -44q0 7 4 11.5t10 4.5q7 0 11 -4.5t4 -11.5v-19h-29v19zM170 122v-28l-39 14z" />
    <glyph glyph-name="uni00B3" unicode="&#xb3;" 
d="M125 -132h86v-24h-86v-30h-22v84h22v-30zM116.5 381.5q16.5 -16.5 40.5 -16.5t40.5 16.5t16.5 41.5t-16.5 41.5t-40.5 16.5t-40.5 -16.5t-16.5 -41.5t16.5 -41.5zM211 -86v23h-37v16l37 21v26l-41 -24q-10 20 -31 20q-16 0 -26 -10.5t-10 -27.5v-44h108zM103 40h108v-24
h-108v24zM211 54v25l-20 7v43l20 8v26l-108 -44v-23zM211 176v66h-21v-42h-87v-24h108zM211 290v23h-41v38h-22v-38h-23v42h-22v-65h108zM211 499v23h-68l68 50v19h-108v-23h66l-66 -47v-22h108zM125 607v30h86v24h-86v30h-22v-84h22zM132.5 447.5q9.5 9.5 24.5 9.5t25 -9.5
t10 -24.5q0 -14 -10 -24t-25 -10t-24.5 10t-9.5 24q0 15 9.5 24.5zM124 -44q0 7 4 11.5t10 4.5q7 0 11 -4.5t4 -11.5v-19h-29v19zM170 122v-28l-39 14z" />
    <glyph glyph-name="fraction" unicode="&#x2044;" 
d="M125 -132h86v-24h-86v-30h-22v84h22v-30zM116.5 381.5q16.5 -16.5 40.5 -16.5t40.5 16.5t16.5 41.5t-16.5 41.5t-40.5 16.5t-40.5 -16.5t-16.5 -41.5t16.5 -41.5zM211 -86v23h-37v16l37 21v26l-41 -24q-10 20 -31 20q-16 0 -26 -10.5t-10 -27.5v-44h108zM103 40h108v-24
h-108v24zM211 54v25l-20 7v43l20 8v26l-108 -44v-23zM211 176v66h-21v-42h-87v-24h108zM211 290v23h-41v38h-22v-38h-23v42h-22v-65h108zM211 499v23h-68l68 50v19h-108v-23h66l-66 -47v-22h108zM125 607v30h86v24h-86v30h-22v-84h22zM132.5 447.5q9.5 9.5 24.5 9.5t25 -9.5
t10 -24.5q0 -14 -10 -24t-25 -10t-24.5 10t-9.5 24q0 15 9.5 24.5zM124 -44q0 7 4 11.5t10 4.5q7 0 11 -4.5t4 -11.5v-19h-29v19zM170 122v-28l-39 14z" />
    <glyph glyph-name="onehalf" unicode="&#xbd;" 
d="M125 -132h86v-24h-86v-30h-22v84h22v-30zM116.5 381.5q16.5 -16.5 40.5 -16.5t40.5 16.5t16.5 41.5t-16.5 41.5t-40.5 16.5t-40.5 -16.5t-16.5 -41.5t16.5 -41.5zM211 -86v23h-37v16l37 21v26l-41 -24q-10 20 -31 20q-16 0 -26 -10.5t-10 -27.5v-44h108zM103 40h108v-24
h-108v24zM211 54v25l-20 7v43l20 8v26l-108 -44v-23zM211 176v66h-21v-42h-87v-24h108zM211 290v23h-41v38h-22v-38h-23v42h-22v-65h108zM211 499v23h-68l68 50v19h-108v-23h66l-66 -47v-22h108zM125 607v30h86v24h-86v30h-22v-84h22zM132.5 447.5q9.5 9.5 24.5 9.5t25 -9.5
t10 -24.5q0 -14 -10 -24t-25 -10t-24.5 10t-9.5 24q0 15 9.5 24.5zM124 -44q0 7 4 11.5t10 4.5q7 0 11 -4.5t4 -11.5v-19h-29v19zM170 122v-28l-39 14z" />
    <glyph glyph-name="uni2153" unicode="&#x2153;" 
d="M125 -132h86v-24h-86v-30h-22v84h22v-30zM116.5 381.5q16.5 -16.5 40.5 -16.5t40.5 16.5t16.5 41.5t-16.5 41.5t-40.5 16.5t-40.5 -16.5t-16.5 -41.5t16.5 -41.5zM211 -86v23h-37v16l37 21v26l-41 -24q-10 20 -31 20q-16 0 -26 -10.5t-10 -27.5v-44h108zM103 40h108v-24
h-108v24zM211 54v25l-20 7v43l20 8v26l-108 -44v-23zM211 176v66h-21v-42h-87v-24h108zM211 290v23h-41v38h-22v-38h-23v42h-22v-65h108zM211 499v23h-68l68 50v19h-108v-23h66l-66 -47v-22h108zM125 607v30h86v24h-86v30h-22v-84h22zM132.5 447.5q9.5 9.5 24.5 9.5t25 -9.5
t10 -24.5q0 -14 -10 -24t-25 -10t-24.5 10t-9.5 24q0 15 9.5 24.5zM124 -44q0 7 4 11.5t10 4.5q7 0 11 -4.5t4 -11.5v-19h-29v19zM170 122v-28l-39 14z" />
    <glyph glyph-name="uni2154" unicode="&#x2154;" 
d="M125 -132h86v-24h-86v-30h-22v84h22v-30zM116.5 381.5q16.5 -16.5 40.5 -16.5t40.5 16.5t16.5 41.5t-16.5 41.5t-40.5 16.5t-40.5 -16.5t-16.5 -41.5t16.5 -41.5zM211 -86v23h-37v16l37 21v26l-41 -24q-10 20 -31 20q-16 0 -26 -10.5t-10 -27.5v-44h108zM103 40h108v-24
h-108v24zM211 54v25l-20 7v43l20 8v26l-108 -44v-23zM211 176v66h-21v-42h-87v-24h108zM211 290v23h-41v38h-22v-38h-23v42h-22v-65h108zM211 499v23h-68l68 50v19h-108v-23h66l-66 -47v-22h108zM125 607v30h86v24h-86v30h-22v-84h22zM132.5 447.5q9.5 9.5 24.5 9.5t25 -9.5
t10 -24.5q0 -14 -10 -24t-25 -10t-24.5 10t-9.5 24q0 15 9.5 24.5zM124 -44q0 7 4 11.5t10 4.5q7 0 11 -4.5t4 -11.5v-19h-29v19zM170 122v-28l-39 14z" />
    <glyph glyph-name="onequarter" unicode="&#xbc;" 
d="M125 -132h86v-24h-86v-30h-22v84h22v-30zM116.5 381.5q16.5 -16.5 40.5 -16.5t40.5 16.5t16.5 41.5t-16.5 41.5t-40.5 16.5t-40.5 -16.5t-16.5 -41.5t16.5 -41.5zM211 -86v23h-37v16l37 21v26l-41 -24q-10 20 -31 20q-16 0 -26 -10.5t-10 -27.5v-44h108zM103 40h108v-24
h-108v24zM211 54v25l-20 7v43l20 8v26l-108 -44v-23zM211 176v66h-21v-42h-87v-24h108zM211 290v23h-41v38h-22v-38h-23v42h-22v-65h108zM211 499v23h-68l68 50v19h-108v-23h66l-66 -47v-22h108zM125 607v30h86v24h-86v30h-22v-84h22zM132.5 447.5q9.5 9.5 24.5 9.5t25 -9.5
t10 -24.5q0 -14 -10 -24t-25 -10t-24.5 10t-9.5 24q0 15 9.5 24.5zM124 -44q0 7 4 11.5t10 4.5q7 0 11 -4.5t4 -11.5v-19h-29v19zM170 122v-28l-39 14z" />
    <glyph glyph-name="threequarters" unicode="&#xbe;" 
d="M125 -132h86v-24h-86v-30h-22v84h22v-30zM116.5 381.5q16.5 -16.5 40.5 -16.5t40.5 16.5t16.5 41.5t-16.5 41.5t-40.5 16.5t-40.5 -16.5t-16.5 -41.5t16.5 -41.5zM211 -86v23h-37v16l37 21v26l-41 -24q-10 20 -31 20q-16 0 -26 -10.5t-10 -27.5v-44h108zM103 40h108v-24
h-108v24zM211 54v25l-20 7v43l20 8v26l-108 -44v-23zM211 176v66h-21v-42h-87v-24h108zM211 290v23h-41v38h-22v-38h-23v42h-22v-65h108zM211 499v23h-68l68 50v19h-108v-23h66l-66 -47v-22h108zM125 607v30h86v24h-86v30h-22v-84h22zM132.5 447.5q9.5 9.5 24.5 9.5t25 -9.5
t10 -24.5q0 -14 -10 -24t-25 -10t-24.5 10t-9.5 24q0 15 9.5 24.5zM124 -44q0 7 4 11.5t10 4.5q7 0 11 -4.5t4 -11.5v-19h-29v19zM170 122v-28l-39 14z" />
    <glyph glyph-name="uni2155" unicode="&#x2155;" 
d="M125 -132h86v-24h-86v-30h-22v84h22v-30zM116.5 381.5q16.5 -16.5 40.5 -16.5t40.5 16.5t16.5 41.5t-16.5 41.5t-40.5 16.5t-40.5 -16.5t-16.5 -41.5t16.5 -41.5zM211 -86v23h-37v16l37 21v26l-41 -24q-10 20 -31 20q-16 0 -26 -10.5t-10 -27.5v-44h108zM103 40h108v-24
h-108v24zM211 54v25l-20 7v43l20 8v26l-108 -44v-23zM211 176v66h-21v-42h-87v-24h108zM211 290v23h-41v38h-22v-38h-23v42h-22v-65h108zM211 499v23h-68l68 50v19h-108v-23h66l-66 -47v-22h108zM125 607v30h86v24h-86v30h-22v-84h22zM132.5 447.5q9.5 9.5 24.5 9.5t25 -9.5
t10 -24.5q0 -14 -10 -24t-25 -10t-24.5 10t-9.5 24q0 15 9.5 24.5zM124 -44q0 7 4 11.5t10 4.5q7 0 11 -4.5t4 -11.5v-19h-29v19zM170 122v-28l-39 14z" />
    <glyph glyph-name="uni2156" unicode="&#x2156;" 
d="M125 -132h86v-24h-86v-30h-22v84h22v-30zM116.5 381.5q16.5 -16.5 40.5 -16.5t40.5 16.5t16.5 41.5t-16.5 41.5t-40.5 16.5t-40.5 -16.5t-16.5 -41.5t16.5 -41.5zM211 -86v23h-37v16l37 21v26l-41 -24q-10 20 -31 20q-16 0 -26 -10.5t-10 -27.5v-44h108zM103 40h108v-24
h-108v24zM211 54v25l-20 7v43l20 8v26l-108 -44v-23zM211 176v66h-21v-42h-87v-24h108zM211 290v23h-41v38h-22v-38h-23v42h-22v-65h108zM211 499v23h-68l68 50v19h-108v-23h66l-66 -47v-22h108zM125 607v30h86v24h-86v30h-22v-84h22zM132.5 447.5q9.5 9.5 24.5 9.5t25 -9.5
t10 -24.5q0 -14 -10 -24t-25 -10t-24.5 10t-9.5 24q0 15 9.5 24.5zM124 -44q0 7 4 11.5t10 4.5q7 0 11 -4.5t4 -11.5v-19h-29v19zM170 122v-28l-39 14z" />
    <glyph glyph-name="uni2157" unicode="&#x2157;" 
d="M125 -132h86v-24h-86v-30h-22v84h22v-30zM116.5 381.5q16.5 -16.5 40.5 -16.5t40.5 16.5t16.5 41.5t-16.5 41.5t-40.5 16.5t-40.5 -16.5t-16.5 -41.5t16.5 -41.5zM211 -86v23h-37v16l37 21v26l-41 -24q-10 20 -31 20q-16 0 -26 -10.5t-10 -27.5v-44h108zM103 40h108v-24
h-108v24zM211 54v25l-20 7v43l20 8v26l-108 -44v-23zM211 176v66h-21v-42h-87v-24h108zM211 290v23h-41v38h-22v-38h-23v42h-22v-65h108zM211 499v23h-68l68 50v19h-108v-23h66l-66 -47v-22h108zM125 607v30h86v24h-86v30h-22v-84h22zM132.5 447.5q9.5 9.5 24.5 9.5t25 -9.5
t10 -24.5q0 -14 -10 -24t-25 -10t-24.5 10t-9.5 24q0 15 9.5 24.5zM124 -44q0 7 4 11.5t10 4.5q7 0 11 -4.5t4 -11.5v-19h-29v19zM170 122v-28l-39 14z" />
    <glyph glyph-name="period" unicode="." horiz-adv-x="238" 
d="M76.5 7.5q-16.5 16.5 -16.5 42.5t16.5 42.5t42.5 16.5t43 -16.5t17 -42.5t-17 -42.5t-43 -16.5t-42.5 16.5z" />
    <glyph glyph-name="comma" unicode="," horiz-adv-x="240" 
d="M100 -2q-18 5 -28.5 19t-10.5 33q0 26 17 42.5t43 16.5t42.5 -16.5t16.5 -42.5q0 -24 -10 -56t-42 -110h-57z" />
    <glyph glyph-name="colon" unicode=":" horiz-adv-x="238" 
d="M76.5 7.5q-16.5 16.5 -16.5 42.5t16.5 42.5t42.5 16.5t43 -16.5t17 -42.5t-17 -42.5t-43 -16.5t-42.5 16.5zM76.5 387.5q16.5 16.5 42.5 16.5t43 -16.5t17 -42.5q0 -25 -17 -41.5t-43 -16.5t-42.5 16.5t-16.5 41.5q0 26 16.5 42.5z" />
    <glyph glyph-name="semicolon" unicode=";" horiz-adv-x="240" 
d="M100 -2q-18 5 -28.5 19t-10.5 33q0 26 17 42.5t43 16.5t42.5 -16.5t16.5 -42.5q0 -24 -10 -56t-42 -110h-57zM78 387.5q17 16.5 43 16.5t42.5 -16.5t16.5 -42.5q0 -25 -16.5 -41.5t-42.5 -16.5t-43 16.5t-17 41.5q0 26 17 42.5z" />
    <glyph glyph-name="ellipsis" unicode="&#x2026;" horiz-adv-x="644" 
d="M76.5 7.5q-16.5 16.5 -16.5 42.5t16.5 42.5t42.5 16.5t43 -16.5t17 -42.5t-17 -42.5t-43 -16.5t-42.5 16.5zM280 92.5q17 16.5 43 16.5t42.5 -16.5t16.5 -42.5t-16.5 -42.5t-42.5 -16.5t-43 16.5t-17 42.5t17 42.5zM482 92.5q17 16.5 42 16.5q26 0 43 -16.5t17 -42.5
t-17 -42.5t-43 -16.5q-25 0 -42 17t-17 42q0 26 17 42.5z" />
    <glyph glyph-name="exclam" unicode="!" horiz-adv-x="265" 
d="M83 700h99l-6 -519h-87zM90 92.5q17 16.5 43 16.5t42.5 -16.5t16.5 -42.5q0 -25 -16.5 -42t-42.5 -17t-43 16.5t-17 42.5t17 42.5z" />
    <glyph glyph-name="exclamdown" unicode="&#xa1;" 
d="M125 -132h86v-24h-86v-30h-22v84h22v-30zM116.5 381.5q16.5 -16.5 40.5 -16.5t40.5 16.5t16.5 41.5t-16.5 41.5t-40.5 16.5t-40.5 -16.5t-16.5 -41.5t16.5 -41.5zM211 -86v23h-37v16l37 21v26l-41 -24q-10 20 -31 20q-16 0 -26 -10.5t-10 -27.5v-44h108zM103 40h108v-24
h-108v24zM211 54v25l-20 7v43l20 8v26l-108 -44v-23zM211 176v66h-21v-42h-87v-24h108zM211 290v23h-41v38h-22v-38h-23v42h-22v-65h108zM211 499v23h-68l68 50v19h-108v-23h66l-66 -47v-22h108zM125 607v30h86v24h-86v30h-22v-84h22zM132.5 447.5q9.5 9.5 24.5 9.5t25 -9.5
t10 -24.5q0 -14 -10 -24t-25 -10t-24.5 10t-9.5 24q0 15 9.5 24.5zM124 -44q0 7 4 11.5t10 4.5q7 0 11 -4.5t4 -11.5v-19h-29v19zM170 122v-28l-39 14z" />
    <glyph glyph-name="question" unicode="?" horiz-adv-x="599" 
d="M254.5 327.5q30.5 38.5 97.5 57.5q61 18 86.5 44t25.5 70q0 58 -43 89t-123 31q-73 0 -119.5 -34t-46.5 -88h-97q0 64 32.5 111.5t92.5 73t140 25.5q122 0 192 -55.5t70 -152.5q0 -75 -39 -119.5t-130 -75.5q-38 -12 -54 -32t-16 -55v-36h-99v44q0 64 30.5 102.5z
M229 92.5q16 16.5 43 16.5t43.5 -16.5t16.5 -43.5q0 -25 -17 -41.5t-43 -16.5t-42.5 16t-16.5 42q0 27 16 43.5z" />
    <glyph glyph-name="questiondown" unicode="&#xbf;" 
d="M125 -132h86v-24h-86v-30h-22v84h22v-30zM116.5 381.5q16.5 -16.5 40.5 -16.5t40.5 16.5t16.5 41.5t-16.5 41.5t-40.5 16.5t-40.5 -16.5t-16.5 -41.5t16.5 -41.5zM211 -86v23h-37v16l37 21v26l-41 -24q-10 20 -31 20q-16 0 -26 -10.5t-10 -27.5v-44h108zM103 40h108v-24
h-108v24zM211 54v25l-20 7v43l20 8v26l-108 -44v-23zM211 176v66h-21v-42h-87v-24h108zM211 290v23h-41v38h-22v-38h-23v42h-22v-65h108zM211 499v23h-68l68 50v19h-108v-23h66l-66 -47v-22h108zM125 607v30h86v24h-86v30h-22v-84h22zM132.5 447.5q9.5 9.5 24.5 9.5t25 -9.5
t10 -24.5q0 -14 -10 -24t-25 -10t-24.5 10t-9.5 24q0 15 9.5 24.5zM124 -44q0 7 4 11.5t10 4.5q7 0 11 -4.5t4 -11.5v-19h-29v19zM170 122v-28l-39 14z" />
    <glyph glyph-name="periodcentered" unicode="&#xb7;" 
d="M125 -132h86v-24h-86v-30h-22v84h22v-30zM116.5 381.5q16.5 -16.5 40.5 -16.5t40.5 16.5t16.5 41.5t-16.5 41.5t-40.5 16.5t-40.5 -16.5t-16.5 -41.5t16.5 -41.5zM211 -86v23h-37v16l37 21v26l-41 -24q-10 20 -31 20q-16 0 -26 -10.5t-10 -27.5v-44h108zM103 40h108v-24
h-108v24zM211 54v25l-20 7v43l20 8v26l-108 -44v-23zM211 176v66h-21v-42h-87v-24h108zM211 290v23h-41v38h-22v-38h-23v42h-22v-65h108zM211 499v23h-68l68 50v19h-108v-23h66l-66 -47v-22h108zM125 607v30h86v24h-86v30h-22v-84h22zM132.5 447.5q9.5 9.5 24.5 9.5t25 -9.5
t10 -24.5q0 -14 -10 -24t-25 -10t-24.5 10t-9.5 24q0 15 9.5 24.5zM124 -44q0 7 4 11.5t10 4.5q7 0 11 -4.5t4 -11.5v-19h-29v19zM170 122v-28l-39 14z" />
    <glyph glyph-name="bullet" unicode="&#x2022;" 
d="M125 -132h86v-24h-86v-30h-22v84h22v-30zM116.5 381.5q16.5 -16.5 40.5 -16.5t40.5 16.5t16.5 41.5t-16.5 41.5t-40.5 16.5t-40.5 -16.5t-16.5 -41.5t16.5 -41.5zM211 -86v23h-37v16l37 21v26l-41 -24q-10 20 -31 20q-16 0 -26 -10.5t-10 -27.5v-44h108zM103 40h108v-24
h-108v24zM211 54v25l-20 7v43l20 8v26l-108 -44v-23zM211 176v66h-21v-42h-87v-24h108zM211 290v23h-41v38h-22v-38h-23v42h-22v-65h108zM211 499v23h-68l68 50v19h-108v-23h66l-66 -47v-22h108zM125 607v30h86v24h-86v30h-22v-84h22zM132.5 447.5q9.5 9.5 24.5 9.5t25 -9.5
t10 -24.5q0 -14 -10 -24t-25 -10t-24.5 10t-9.5 24q0 15 9.5 24.5zM124 -44q0 7 4 11.5t10 4.5q7 0 11 -4.5t4 -11.5v-19h-29v19zM170 122v-28l-39 14z" />
    <glyph glyph-name="asterisk" unicode="*" 
d="M125 -132h86v-24h-86v-30h-22v84h22v-30zM116.5 381.5q16.5 -16.5 40.5 -16.5t40.5 16.5t16.5 41.5t-16.5 41.5t-40.5 16.5t-40.5 -16.5t-16.5 -41.5t16.5 -41.5zM211 -86v23h-37v16l37 21v26l-41 -24q-10 20 -31 20q-16 0 -26 -10.5t-10 -27.5v-44h108zM103 40h108v-24
h-108v24zM211 54v25l-20 7v43l20 8v26l-108 -44v-23zM211 176v66h-21v-42h-87v-24h108zM211 290v23h-41v38h-22v-38h-23v42h-22v-65h108zM211 499v23h-68l68 50v19h-108v-23h66l-66 -47v-22h108zM125 607v30h86v24h-86v30h-22v-84h22zM132.5 447.5q9.5 9.5 24.5 9.5t25 -9.5
t10 -24.5q0 -14 -10 -24t-25 -10t-24.5 10t-9.5 24q0 15 9.5 24.5zM124 -44q0 7 4 11.5t10 4.5q7 0 11 -4.5t4 -11.5v-19h-29v19zM170 122v-28l-39 14z" />
    <glyph glyph-name="numbersign" unicode="#" 
d="M125 -132h86v-24h-86v-30h-22v84h22v-30zM116.5 381.5q16.5 -16.5 40.5 -16.5t40.5 16.5t16.5 41.5t-16.5 41.5t-40.5 16.5t-40.5 -16.5t-16.5 -41.5t16.5 -41.5zM211 -86v23h-37v16l37 21v26l-41 -24q-10 20 -31 20q-16 0 -26 -10.5t-10 -27.5v-44h108zM103 40h108v-24
h-108v24zM211 54v25l-20 7v43l20 8v26l-108 -44v-23zM211 176v66h-21v-42h-87v-24h108zM211 290v23h-41v38h-22v-38h-23v42h-22v-65h108zM211 499v23h-68l68 50v19h-108v-23h66l-66 -47v-22h108zM125 607v30h86v24h-86v30h-22v-84h22zM132.5 447.5q9.5 9.5 24.5 9.5t25 -9.5
t10 -24.5q0 -14 -10 -24t-25 -10t-24.5 10t-9.5 24q0 15 9.5 24.5zM124 -44q0 7 4 11.5t10 4.5q7 0 11 -4.5t4 -11.5v-19h-29v19zM170 122v-28l-39 14z" />
    <glyph glyph-name="slash" unicode="/" 
d="M125 -132h86v-24h-86v-30h-22v84h22v-30zM116.5 381.5q16.5 -16.5 40.5 -16.5t40.5 16.5t16.5 41.5t-16.5 41.5t-40.5 16.5t-40.5 -16.5t-16.5 -41.5t16.5 -41.5zM211 -86v23h-37v16l37 21v26l-41 -24q-10 20 -31 20q-16 0 -26 -10.5t-10 -27.5v-44h108zM103 40h108v-24
h-108v24zM211 54v25l-20 7v43l20 8v26l-108 -44v-23zM211 176v66h-21v-42h-87v-24h108zM211 290v23h-41v38h-22v-38h-23v42h-22v-65h108zM211 499v23h-68l68 50v19h-108v-23h66l-66 -47v-22h108zM125 607v30h86v24h-86v30h-22v-84h22zM132.5 447.5q9.5 9.5 24.5 9.5t25 -9.5
t10 -24.5q0 -14 -10 -24t-25 -10t-24.5 10t-9.5 24q0 15 9.5 24.5zM124 -44q0 7 4 11.5t10 4.5q7 0 11 -4.5t4 -11.5v-19h-29v19zM170 122v-28l-39 14z" />
    <glyph glyph-name="backslash" unicode="\" 
d="M125 -132h86v-24h-86v-30h-22v84h22v-30zM116.5 381.5q16.5 -16.5 40.5 -16.5t40.5 16.5t16.5 41.5t-16.5 41.5t-40.5 16.5t-40.5 -16.5t-16.5 -41.5t16.5 -41.5zM211 -86v23h-37v16l37 21v26l-41 -24q-10 20 -31 20q-16 0 -26 -10.5t-10 -27.5v-44h108zM103 40h108v-24
h-108v24zM211 54v25l-20 7v43l20 8v26l-108 -44v-23zM211 176v66h-21v-42h-87v-24h108zM211 290v23h-41v38h-22v-38h-23v42h-22v-65h108zM211 499v23h-68l68 50v19h-108v-23h66l-66 -47v-22h108zM125 607v30h86v24h-86v30h-22v-84h22zM132.5 447.5q9.5 9.5 24.5 9.5t25 -9.5
t10 -24.5q0 -14 -10 -24t-25 -10t-24.5 10t-9.5 24q0 15 9.5 24.5zM124 -44q0 7 4 11.5t10 4.5q7 0 11 -4.5t4 -11.5v-19h-29v19zM170 122v-28l-39 14z" />
    <glyph glyph-name="parenleft" unicode="(" 
d="M125 -132h86v-24h-86v-30h-22v84h22v-30zM116.5 381.5q16.5 -16.5 40.5 -16.5t40.5 16.5t16.5 41.5t-16.5 41.5t-40.5 16.5t-40.5 -16.5t-16.5 -41.5t16.5 -41.5zM211 -86v23h-37v16l37 21v26l-41 -24q-10 20 -31 20q-16 0 -26 -10.5t-10 -27.5v-44h108zM103 40h108v-24
h-108v24zM211 54v25l-20 7v43l20 8v26l-108 -44v-23zM211 176v66h-21v-42h-87v-24h108zM211 290v23h-41v38h-22v-38h-23v42h-22v-65h108zM211 499v23h-68l68 50v19h-108v-23h66l-66 -47v-22h108zM125 607v30h86v24h-86v30h-22v-84h22zM132.5 447.5q9.5 9.5 24.5 9.5t25 -9.5
t10 -24.5q0 -14 -10 -24t-25 -10t-24.5 10t-9.5 24q0 15 9.5 24.5zM124 -44q0 7 4 11.5t10 4.5q7 0 11 -4.5t4 -11.5v-19h-29v19zM170 122v-28l-39 14z" />
    <glyph glyph-name="parenright" unicode=")" 
d="M125 -132h86v-24h-86v-30h-22v84h22v-30zM116.5 381.5q16.5 -16.5 40.5 -16.5t40.5 16.5t16.5 41.5t-16.5 41.5t-40.5 16.5t-40.5 -16.5t-16.5 -41.5t16.5 -41.5zM211 -86v23h-37v16l37 21v26l-41 -24q-10 20 -31 20q-16 0 -26 -10.5t-10 -27.5v-44h108zM103 40h108v-24
h-108v24zM211 54v25l-20 7v43l20 8v26l-108 -44v-23zM211 176v66h-21v-42h-87v-24h108zM211 290v23h-41v38h-22v-38h-23v42h-22v-65h108zM211 499v23h-68l68 50v19h-108v-23h66l-66 -47v-22h108zM125 607v30h86v24h-86v30h-22v-84h22zM132.5 447.5q9.5 9.5 24.5 9.5t25 -9.5
t10 -24.5q0 -14 -10 -24t-25 -10t-24.5 10t-9.5 24q0 15 9.5 24.5zM124 -44q0 7 4 11.5t10 4.5q7 0 11 -4.5t4 -11.5v-19h-29v19zM170 122v-28l-39 14z" />
    <glyph glyph-name="braceleft" unicode="{" 
d="M125 -132h86v-24h-86v-30h-22v84h22v-30zM116.5 381.5q16.5 -16.5 40.5 -16.5t40.5 16.5t16.5 41.5t-16.5 41.5t-40.5 16.5t-40.5 -16.5t-16.5 -41.5t16.5 -41.5zM211 -86v23h-37v16l37 21v26l-41 -24q-10 20 -31 20q-16 0 -26 -10.5t-10 -27.5v-44h108zM103 40h108v-24
h-108v24zM211 54v25l-20 7v43l20 8v26l-108 -44v-23zM211 176v66h-21v-42h-87v-24h108zM211 290v23h-41v38h-22v-38h-23v42h-22v-65h108zM211 499v23h-68l68 50v19h-108v-23h66l-66 -47v-22h108zM125 607v30h86v24h-86v30h-22v-84h22zM132.5 447.5q9.5 9.5 24.5 9.5t25 -9.5
t10 -24.5q0 -14 -10 -24t-25 -10t-24.5 10t-9.5 24q0 15 9.5 24.5zM124 -44q0 7 4 11.5t10 4.5q7 0 11 -4.5t4 -11.5v-19h-29v19zM170 122v-28l-39 14z" />
    <glyph glyph-name="braceright" unicode="}" 
d="M125 -132h86v-24h-86v-30h-22v84h22v-30zM116.5 381.5q16.5 -16.5 40.5 -16.5t40.5 16.5t16.5 41.5t-16.5 41.5t-40.5 16.5t-40.5 -16.5t-16.5 -41.5t16.5 -41.5zM211 -86v23h-37v16l37 21v26l-41 -24q-10 20 -31 20q-16 0 -26 -10.5t-10 -27.5v-44h108zM103 40h108v-24
h-108v24zM211 54v25l-20 7v43l20 8v26l-108 -44v-23zM211 176v66h-21v-42h-87v-24h108zM211 290v23h-41v38h-22v-38h-23v42h-22v-65h108zM211 499v23h-68l68 50v19h-108v-23h66l-66 -47v-22h108zM125 607v30h86v24h-86v30h-22v-84h22zM132.5 447.5q9.5 9.5 24.5 9.5t25 -9.5
t10 -24.5q0 -14 -10 -24t-25 -10t-24.5 10t-9.5 24q0 15 9.5 24.5zM124 -44q0 7 4 11.5t10 4.5q7 0 11 -4.5t4 -11.5v-19h-29v19zM170 122v-28l-39 14z" />
    <glyph glyph-name="bracketleft" unicode="[" 
d="M125 -132h86v-24h-86v-30h-22v84h22v-30zM116.5 381.5q16.5 -16.5 40.5 -16.5t40.5 16.5t16.5 41.5t-16.5 41.5t-40.5 16.5t-40.5 -16.5t-16.5 -41.5t16.5 -41.5zM211 -86v23h-37v16l37 21v26l-41 -24q-10 20 -31 20q-16 0 -26 -10.5t-10 -27.5v-44h108zM103 40h108v-24
h-108v24zM211 54v25l-20 7v43l20 8v26l-108 -44v-23zM211 176v66h-21v-42h-87v-24h108zM211 290v23h-41v38h-22v-38h-23v42h-22v-65h108zM211 499v23h-68l68 50v19h-108v-23h66l-66 -47v-22h108zM125 607v30h86v24h-86v30h-22v-84h22zM132.5 447.5q9.5 9.5 24.5 9.5t25 -9.5
t10 -24.5q0 -14 -10 -24t-25 -10t-24.5 10t-9.5 24q0 15 9.5 24.5zM124 -44q0 7 4 11.5t10 4.5q7 0 11 -4.5t4 -11.5v-19h-29v19zM170 122v-28l-39 14z" />
    <glyph glyph-name="bracketright" unicode="]" 
d="M125 -132h86v-24h-86v-30h-22v84h22v-30zM116.5 381.5q16.5 -16.5 40.5 -16.5t40.5 16.5t16.5 41.5t-16.5 41.5t-40.5 16.5t-40.5 -16.5t-16.5 -41.5t16.5 -41.5zM211 -86v23h-37v16l37 21v26l-41 -24q-10 20 -31 20q-16 0 -26 -10.5t-10 -27.5v-44h108zM103 40h108v-24
h-108v24zM211 54v25l-20 7v43l20 8v26l-108 -44v-23zM211 176v66h-21v-42h-87v-24h108zM211 290v23h-41v38h-22v-38h-23v42h-22v-65h108zM211 499v23h-68l68 50v19h-108v-23h66l-66 -47v-22h108zM125 607v30h86v24h-86v30h-22v-84h22zM132.5 447.5q9.5 9.5 24.5 9.5t25 -9.5
t10 -24.5q0 -14 -10 -24t-25 -10t-24.5 10t-9.5 24q0 15 9.5 24.5zM124 -44q0 7 4 11.5t10 4.5q7 0 11 -4.5t4 -11.5v-19h-29v19zM170 122v-28l-39 14z" />
    <glyph glyph-name="hyphen" unicode="-" horiz-adv-x="494" 
d="M67 331h361v-84h-361v84z" />
    <glyph glyph-name="uni00AD" unicode="&#xad;" 
d="M125 -132h86v-24h-86v-30h-22v84h22v-30zM116.5 381.5q16.5 -16.5 40.5 -16.5t40.5 16.5t16.5 41.5t-16.5 41.5t-40.5 16.5t-40.5 -16.5t-16.5 -41.5t16.5 -41.5zM211 -86v23h-37v16l37 21v26l-41 -24q-10 20 -31 20q-16 0 -26 -10.5t-10 -27.5v-44h108zM103 40h108v-24
h-108v24zM211 54v25l-20 7v43l20 8v26l-108 -44v-23zM211 176v66h-21v-42h-87v-24h108zM211 290v23h-41v38h-22v-38h-23v42h-22v-65h108zM211 499v23h-68l68 50v19h-108v-23h66l-66 -47v-22h108zM125 607v30h86v24h-86v30h-22v-84h22zM132.5 447.5q9.5 9.5 24.5 9.5t25 -9.5
t10 -24.5q0 -14 -10 -24t-25 -10t-24.5 10t-9.5 24q0 15 9.5 24.5zM124 -44q0 7 4 11.5t10 4.5q7 0 11 -4.5t4 -11.5v-19h-29v19zM170 122v-28l-39 14z" />
    <glyph glyph-name="endash" unicode="&#x2013;" horiz-adv-x="596" 
d="M67 331h462v-84h-462v84z" />
    <glyph glyph-name="emdash" unicode="&#x2014;" horiz-adv-x="695" 
d="M67 331h562v-84h-562v84z" />
    <glyph glyph-name="underscore" unicode="_" 
d="M125 -132h86v-24h-86v-30h-22v84h22v-30zM116.5 381.5q16.5 -16.5 40.5 -16.5t40.5 16.5t16.5 41.5t-16.5 41.5t-40.5 16.5t-40.5 -16.5t-16.5 -41.5t16.5 -41.5zM211 -86v23h-37v16l37 21v26l-41 -24q-10 20 -31 20q-16 0 -26 -10.5t-10 -27.5v-44h108zM103 40h108v-24
h-108v24zM211 54v25l-20 7v43l20 8v26l-108 -44v-23zM211 176v66h-21v-42h-87v-24h108zM211 290v23h-41v38h-22v-38h-23v42h-22v-65h108zM211 499v23h-68l68 50v19h-108v-23h66l-66 -47v-22h108zM125 607v30h86v24h-86v30h-22v-84h22zM132.5 447.5q9.5 9.5 24.5 9.5t25 -9.5
t10 -24.5q0 -14 -10 -24t-25 -10t-24.5 10t-9.5 24q0 15 9.5 24.5zM124 -44q0 7 4 11.5t10 4.5q7 0 11 -4.5t4 -11.5v-19h-29v19zM170 122v-28l-39 14z" />
    <glyph glyph-name="quotesinglbase" unicode="&#x201a;" 
d="M125 -132h86v-24h-86v-30h-22v84h22v-30zM116.5 381.5q16.5 -16.5 40.5 -16.5t40.5 16.5t16.5 41.5t-16.5 41.5t-40.5 16.5t-40.5 -16.5t-16.5 -41.5t16.5 -41.5zM211 -86v23h-37v16l37 21v26l-41 -24q-10 20 -31 20q-16 0 -26 -10.5t-10 -27.5v-44h108zM103 40h108v-24
h-108v24zM211 54v25l-20 7v43l20 8v26l-108 -44v-23zM211 176v66h-21v-42h-87v-24h108zM211 290v23h-41v38h-22v-38h-23v42h-22v-65h108zM211 499v23h-68l68 50v19h-108v-23h66l-66 -47v-22h108zM125 607v30h86v24h-86v30h-22v-84h22zM132.5 447.5q9.5 9.5 24.5 9.5t25 -9.5
t10 -24.5q0 -14 -10 -24t-25 -10t-24.5 10t-9.5 24q0 15 9.5 24.5zM124 -44q0 7 4 11.5t10 4.5q7 0 11 -4.5t4 -11.5v-19h-29v19zM170 122v-28l-39 14z" />
    <glyph glyph-name="quotedblbase" unicode="&#x201e;" 
d="M125 -132h86v-24h-86v-30h-22v84h22v-30zM116.5 381.5q16.5 -16.5 40.5 -16.5t40.5 16.5t16.5 41.5t-16.5 41.5t-40.5 16.5t-40.5 -16.5t-16.5 -41.5t16.5 -41.5zM211 -86v23h-37v16l37 21v26l-41 -24q-10 20 -31 20q-16 0 -26 -10.5t-10 -27.5v-44h108zM103 40h108v-24
h-108v24zM211 54v25l-20 7v43l20 8v26l-108 -44v-23zM211 176v66h-21v-42h-87v-24h108zM211 290v23h-41v38h-22v-38h-23v42h-22v-65h108zM211 499v23h-68l68 50v19h-108v-23h66l-66 -47v-22h108zM125 607v30h86v24h-86v30h-22v-84h22zM132.5 447.5q9.5 9.5 24.5 9.5t25 -9.5
t10 -24.5q0 -14 -10 -24t-25 -10t-24.5 10t-9.5 24q0 15 9.5 24.5zM124 -44q0 7 4 11.5t10 4.5q7 0 11 -4.5t4 -11.5v-19h-29v19zM170 122v-28l-39 14z" />
    <glyph glyph-name="quotedblleft" unicode="&#x201c;" horiz-adv-x="392" 
d="M291 597q16 -5 25.5 -18t9.5 -29q0 -24 -15 -39t-40 -15q-23 0 -38 15t-15 39q0 21 9.5 50.5t37.5 99.5h52zM73.5 600.5q9.5 29.5 37.5 99.5h52l-25 -104q15 -5 24.5 -17.5t9.5 -28.5q0 -24 -15 -39t-39 -15t-39 15t-15 39q0 21 9.5 50.5z" />
    <glyph glyph-name="quotedblright" unicode="&#x201d;" horiz-adv-x="388" 
d="M110 606q-16 5 -25.5 18t-9.5 30q0 23 15.5 38t39.5 15q23 0 38 -15t15 -38q0 -22 -9.5 -51.5t-37.5 -99.5h-52zM244 692q15 15 40 15q23 0 38 -15t15 -38q0 -22 -9.5 -51.5t-37.5 -99.5h-52l26 103q-16 5 -25.5 18t-9.5 30q0 23 15 38z" />
    <glyph glyph-name="quoteleft" unicode="&#x2018;" horiz-adv-x="238" 
d="M138 596q15 -5 24.5 -17.5t9.5 -28.5q0 -24 -15 -39t-39 -15t-39 15t-15 39q0 21 9.5 50.5t37.5 99.5h52z" />
    <glyph glyph-name="quoteright" unicode="&#x2019;" horiz-adv-x="235" 
d="M110 606q-16 5 -25.5 18t-9.5 30q0 23 15.5 38t39.5 15q23 0 38 -15t15 -38q0 -22 -9.5 -51.5t-37.5 -99.5h-52z" />
    <glyph glyph-name="guillemotleft" unicode="&#xab;" horiz-adv-x="480" 
d="M40 296l139 221h100l-142 -220l142 -221h-100zM336 517h100l-142 -220l142 -221h-100l-138 220z" />
    <glyph glyph-name="guillemotright" unicode="&#xbb;" horiz-adv-x="480" 
d="M201 76l142 221l-142 220h100l139 -221l-139 -220h-100zM186 297l-142 220h100l139 -221l-139 -220h-100z" />
    <glyph glyph-name="guilsinglleft" unicode="&#x2039;" horiz-adv-x="323" 
d="M40 296l139 221h100l-142 -220l142 -221h-100z" />
    <glyph glyph-name="guilsinglright" unicode="&#x203a;" horiz-adv-x="323" 
d="M44 76l142 221l-142 220h100l138 -221l-138 -220h-100z" />
    <glyph glyph-name="quotedbl" unicode="&#x22;" 
d="M125 -132h86v-24h-86v-30h-22v84h22v-30zM116.5 381.5q16.5 -16.5 40.5 -16.5t40.5 16.5t16.5 41.5t-16.5 41.5t-40.5 16.5t-40.5 -16.5t-16.5 -41.5t16.5 -41.5zM211 -86v23h-37v16l37 21v26l-41 -24q-10 20 -31 20q-16 0 -26 -10.5t-10 -27.5v-44h108zM103 40h108v-24
h-108v24zM211 54v25l-20 7v43l20 8v26l-108 -44v-23zM211 176v66h-21v-42h-87v-24h108zM211 290v23h-41v38h-22v-38h-23v42h-22v-65h108zM211 499v23h-68l68 50v19h-108v-23h66l-66 -47v-22h108zM125 607v30h86v24h-86v30h-22v-84h22zM132.5 447.5q9.5 9.5 24.5 9.5t25 -9.5
t10 -24.5q0 -14 -10 -24t-25 -10t-24.5 10t-9.5 24q0 15 9.5 24.5zM124 -44q0 7 4 11.5t10 4.5q7 0 11 -4.5t4 -11.5v-19h-29v19zM170 122v-28l-39 14z" />
    <glyph glyph-name="quotesingle" unicode="'" 
d="M125 -132h86v-24h-86v-30h-22v84h22v-30zM116.5 381.5q16.5 -16.5 40.5 -16.5t40.5 16.5t16.5 41.5t-16.5 41.5t-40.5 16.5t-40.5 -16.5t-16.5 -41.5t16.5 -41.5zM211 -86v23h-37v16l37 21v26l-41 -24q-10 20 -31 20q-16 0 -26 -10.5t-10 -27.5v-44h108zM103 40h108v-24
h-108v24zM211 54v25l-20 7v43l20 8v26l-108 -44v-23zM211 176v66h-21v-42h-87v-24h108zM211 290v23h-41v38h-22v-38h-23v42h-22v-65h108zM211 499v23h-68l68 50v19h-108v-23h66l-66 -47v-22h108zM125 607v30h86v24h-86v30h-22v-84h22zM132.5 447.5q9.5 9.5 24.5 9.5t25 -9.5
t10 -24.5q0 -14 -10 -24t-25 -10t-24.5 10t-9.5 24q0 15 9.5 24.5zM124 -44q0 7 4 11.5t10 4.5q7 0 11 -4.5t4 -11.5v-19h-29v19zM170 122v-28l-39 14z" />
    <glyph glyph-name="uni00A0" unicode="&#xa0;" horiz-adv-x="252" 
 />
    <glyph glyph-name="cent" unicode="&#xa2;" 
d="M125 -132h86v-24h-86v-30h-22v84h22v-30zM116.5 381.5q16.5 -16.5 40.5 -16.5t40.5 16.5t16.5 41.5t-16.5 41.5t-40.5 16.5t-40.5 -16.5t-16.5 -41.5t16.5 -41.5zM211 -86v23h-37v16l37 21v26l-41 -24q-10 20 -31 20q-16 0 -26 -10.5t-10 -27.5v-44h108zM103 40h108v-24
h-108v24zM211 54v25l-20 7v43l20 8v26l-108 -44v-23zM211 176v66h-21v-42h-87v-24h108zM211 290v23h-41v38h-22v-38h-23v42h-22v-65h108zM211 499v23h-68l68 50v19h-108v-23h66l-66 -47v-22h108zM125 607v30h86v24h-86v30h-22v-84h22zM132.5 447.5q9.5 9.5 24.5 9.5t25 -9.5
t10 -24.5q0 -14 -10 -24t-25 -10t-24.5 10t-9.5 24q0 15 9.5 24.5zM124 -44q0 7 4 11.5t10 4.5q7 0 11 -4.5t4 -11.5v-19h-29v19zM170 122v-28l-39 14z" />
    <glyph glyph-name="currency" unicode="&#xa4;" 
d="M125 -132h86v-24h-86v-30h-22v84h22v-30zM116.5 381.5q16.5 -16.5 40.5 -16.5t40.5 16.5t16.5 41.5t-16.5 41.5t-40.5 16.5t-40.5 -16.5t-16.5 -41.5t16.5 -41.5zM211 -86v23h-37v16l37 21v26l-41 -24q-10 20 -31 20q-16 0 -26 -10.5t-10 -27.5v-44h108zM103 40h108v-24
h-108v24zM211 54v25l-20 7v43l20 8v26l-108 -44v-23zM211 176v66h-21v-42h-87v-24h108zM211 290v23h-41v38h-22v-38h-23v42h-22v-65h108zM211 499v23h-68l68 50v19h-108v-23h66l-66 -47v-22h108zM125 607v30h86v24h-86v30h-22v-84h22zM132.5 447.5q9.5 9.5 24.5 9.5t25 -9.5
t10 -24.5q0 -14 -10 -24t-25 -10t-24.5 10t-9.5 24q0 15 9.5 24.5zM124 -44q0 7 4 11.5t10 4.5q7 0 11 -4.5t4 -11.5v-19h-29v19zM170 122v-28l-39 14z" />
    <glyph glyph-name="dollar" unicode="$" 
d="M125 -132h86v-24h-86v-30h-22v84h22v-30zM116.5 381.5q16.5 -16.5 40.5 -16.5t40.5 16.5t16.5 41.5t-16.5 41.5t-40.5 16.5t-40.5 -16.5t-16.5 -41.5t16.5 -41.5zM211 -86v23h-37v16l37 21v26l-41 -24q-10 20 -31 20q-16 0 -26 -10.5t-10 -27.5v-44h108zM103 40h108v-24
h-108v24zM211 54v25l-20 7v43l20 8v26l-108 -44v-23zM211 176v66h-21v-42h-87v-24h108zM211 290v23h-41v38h-22v-38h-23v42h-22v-65h108zM211 499v23h-68l68 50v19h-108v-23h66l-66 -47v-22h108zM125 607v30h86v24h-86v30h-22v-84h22zM132.5 447.5q9.5 9.5 24.5 9.5t25 -9.5
t10 -24.5q0 -14 -10 -24t-25 -10t-24.5 10t-9.5 24q0 15 9.5 24.5zM124 -44q0 7 4 11.5t10 4.5q7 0 11 -4.5t4 -11.5v-19h-29v19zM170 122v-28l-39 14z" />
    <glyph glyph-name="Euro" unicode="&#x20ac;" 
d="M125 -132h86v-24h-86v-30h-22v84h22v-30zM116.5 381.5q16.5 -16.5 40.5 -16.5t40.5 16.5t16.5 41.5t-16.5 41.5t-40.5 16.5t-40.5 -16.5t-16.5 -41.5t16.5 -41.5zM211 -86v23h-37v16l37 21v26l-41 -24q-10 20 -31 20q-16 0 -26 -10.5t-10 -27.5v-44h108zM103 40h108v-24
h-108v24zM211 54v25l-20 7v43l20 8v26l-108 -44v-23zM211 176v66h-21v-42h-87v-24h108zM211 290v23h-41v38h-22v-38h-23v42h-22v-65h108zM211 499v23h-68l68 50v19h-108v-23h66l-66 -47v-22h108zM125 607v30h86v24h-86v30h-22v-84h22zM132.5 447.5q9.5 9.5 24.5 9.5t25 -9.5
t10 -24.5q0 -14 -10 -24t-25 -10t-24.5 10t-9.5 24q0 15 9.5 24.5zM124 -44q0 7 4 11.5t10 4.5q7 0 11 -4.5t4 -11.5v-19h-29v19zM170 122v-28l-39 14z" />
    <glyph glyph-name="florin" unicode="&#x192;" 
d="M125 -132h86v-24h-86v-30h-22v84h22v-30zM116.5 381.5q16.5 -16.5 40.5 -16.5t40.5 16.5t16.5 41.5t-16.5 41.5t-40.5 16.5t-40.5 -16.5t-16.5 -41.5t16.5 -41.5zM211 -86v23h-37v16l37 21v26l-41 -24q-10 20 -31 20q-16 0 -26 -10.5t-10 -27.5v-44h108zM103 40h108v-24
h-108v24zM211 54v25l-20 7v43l20 8v26l-108 -44v-23zM211 176v66h-21v-42h-87v-24h108zM211 290v23h-41v38h-22v-38h-23v42h-22v-65h108zM211 499v23h-68l68 50v19h-108v-23h66l-66 -47v-22h108zM125 607v30h86v24h-86v30h-22v-84h22zM132.5 447.5q9.5 9.5 24.5 9.5t25 -9.5
t10 -24.5q0 -14 -10 -24t-25 -10t-24.5 10t-9.5 24q0 15 9.5 24.5zM124 -44q0 7 4 11.5t10 4.5q7 0 11 -4.5t4 -11.5v-19h-29v19zM170 122v-28l-39 14z" />
    <glyph glyph-name="sterling" unicode="&#xa3;" 
d="M125 -132h86v-24h-86v-30h-22v84h22v-30zM116.5 381.5q16.5 -16.5 40.5 -16.5t40.5 16.5t16.5 41.5t-16.5 41.5t-40.5 16.5t-40.5 -16.5t-16.5 -41.5t16.5 -41.5zM211 -86v23h-37v16l37 21v26l-41 -24q-10 20 -31 20q-16 0 -26 -10.5t-10 -27.5v-44h108zM103 40h108v-24
h-108v24zM211 54v25l-20 7v43l20 8v26l-108 -44v-23zM211 176v66h-21v-42h-87v-24h108zM211 290v23h-41v38h-22v-38h-23v42h-22v-65h108zM211 499v23h-68l68 50v19h-108v-23h66l-66 -47v-22h108zM125 607v30h86v24h-86v30h-22v-84h22zM132.5 447.5q9.5 9.5 24.5 9.5t25 -9.5
t10 -24.5q0 -14 -10 -24t-25 -10t-24.5 10t-9.5 24q0 15 9.5 24.5zM124 -44q0 7 4 11.5t10 4.5q7 0 11 -4.5t4 -11.5v-19h-29v19zM170 122v-28l-39 14z" />
    <glyph glyph-name="yen" unicode="&#xa5;" 
d="M125 -132h86v-24h-86v-30h-22v84h22v-30zM116.5 381.5q16.5 -16.5 40.5 -16.5t40.5 16.5t16.5 41.5t-16.5 41.5t-40.5 16.5t-40.5 -16.5t-16.5 -41.5t16.5 -41.5zM211 -86v23h-37v16l37 21v26l-41 -24q-10 20 -31 20q-16 0 -26 -10.5t-10 -27.5v-44h108zM103 40h108v-24
h-108v24zM211 54v25l-20 7v43l20 8v26l-108 -44v-23zM211 176v66h-21v-42h-87v-24h108zM211 290v23h-41v38h-22v-38h-23v42h-22v-65h108zM211 499v23h-68l68 50v19h-108v-23h66l-66 -47v-22h108zM125 607v30h86v24h-86v30h-22v-84h22zM132.5 447.5q9.5 9.5 24.5 9.5t25 -9.5
t10 -24.5q0 -14 -10 -24t-25 -10t-24.5 10t-9.5 24q0 15 9.5 24.5zM124 -44q0 7 4 11.5t10 4.5q7 0 11 -4.5t4 -11.5v-19h-29v19zM170 122v-28l-39 14z" />
    <glyph glyph-name="plus" unicode="+" 
d="M125 -132h86v-24h-86v-30h-22v84h22v-30zM116.5 381.5q16.5 -16.5 40.5 -16.5t40.5 16.5t16.5 41.5t-16.5 41.5t-40.5 16.5t-40.5 -16.5t-16.5 -41.5t16.5 -41.5zM211 -86v23h-37v16l37 21v26l-41 -24q-10 20 -31 20q-16 0 -26 -10.5t-10 -27.5v-44h108zM103 40h108v-24
h-108v24zM211 54v25l-20 7v43l20 8v26l-108 -44v-23zM211 176v66h-21v-42h-87v-24h108zM211 290v23h-41v38h-22v-38h-23v42h-22v-65h108zM211 499v23h-68l68 50v19h-108v-23h66l-66 -47v-22h108zM125 607v30h86v24h-86v30h-22v-84h22zM132.5 447.5q9.5 9.5 24.5 9.5t25 -9.5
t10 -24.5q0 -14 -10 -24t-25 -10t-24.5 10t-9.5 24q0 15 9.5 24.5zM124 -44q0 7 4 11.5t10 4.5q7 0 11 -4.5t4 -11.5v-19h-29v19zM170 122v-28l-39 14z" />
    <glyph glyph-name="multiply" unicode="&#xd7;" 
d="M125 -132h86v-24h-86v-30h-22v84h22v-30zM116.5 381.5q16.5 -16.5 40.5 -16.5t40.5 16.5t16.5 41.5t-16.5 41.5t-40.5 16.5t-40.5 -16.5t-16.5 -41.5t16.5 -41.5zM211 -86v23h-37v16l37 21v26l-41 -24q-10 20 -31 20q-16 0 -26 -10.5t-10 -27.5v-44h108zM103 40h108v-24
h-108v24zM211 54v25l-20 7v43l20 8v26l-108 -44v-23zM211 176v66h-21v-42h-87v-24h108zM211 290v23h-41v38h-22v-38h-23v42h-22v-65h108zM211 499v23h-68l68 50v19h-108v-23h66l-66 -47v-22h108zM125 607v30h86v24h-86v30h-22v-84h22zM132.5 447.5q9.5 9.5 24.5 9.5t25 -9.5
t10 -24.5q0 -14 -10 -24t-25 -10t-24.5 10t-9.5 24q0 15 9.5 24.5zM124 -44q0 7 4 11.5t10 4.5q7 0 11 -4.5t4 -11.5v-19h-29v19zM170 122v-28l-39 14z" />
    <glyph glyph-name="divide" unicode="&#xf7;" 
d="M125 -132h86v-24h-86v-30h-22v84h22v-30zM116.5 381.5q16.5 -16.5 40.5 -16.5t40.5 16.5t16.5 41.5t-16.5 41.5t-40.5 16.5t-40.5 -16.5t-16.5 -41.5t16.5 -41.5zM211 -86v23h-37v16l37 21v26l-41 -24q-10 20 -31 20q-16 0 -26 -10.5t-10 -27.5v-44h108zM103 40h108v-24
h-108v24zM211 54v25l-20 7v43l20 8v26l-108 -44v-23zM211 176v66h-21v-42h-87v-24h108zM211 290v23h-41v38h-22v-38h-23v42h-22v-65h108zM211 499v23h-68l68 50v19h-108v-23h66l-66 -47v-22h108zM125 607v30h86v24h-86v30h-22v-84h22zM132.5 447.5q9.5 9.5 24.5 9.5t25 -9.5
t10 -24.5q0 -14 -10 -24t-25 -10t-24.5 10t-9.5 24q0 15 9.5 24.5zM124 -44q0 7 4 11.5t10 4.5q7 0 11 -4.5t4 -11.5v-19h-29v19zM170 122v-28l-39 14z" />
    <glyph glyph-name="equal" unicode="=" 
d="M125 -132h86v-24h-86v-30h-22v84h22v-30zM116.5 381.5q16.5 -16.5 40.5 -16.5t40.5 16.5t16.5 41.5t-16.5 41.5t-40.5 16.5t-40.5 -16.5t-16.5 -41.5t16.5 -41.5zM211 -86v23h-37v16l37 21v26l-41 -24q-10 20 -31 20q-16 0 -26 -10.5t-10 -27.5v-44h108zM103 40h108v-24
h-108v24zM211 54v25l-20 7v43l20 8v26l-108 -44v-23zM211 176v66h-21v-42h-87v-24h108zM211 290v23h-41v38h-22v-38h-23v42h-22v-65h108zM211 499v23h-68l68 50v19h-108v-23h66l-66 -47v-22h108zM125 607v30h86v24h-86v30h-22v-84h22zM132.5 447.5q9.5 9.5 24.5 9.5t25 -9.5
t10 -24.5q0 -14 -10 -24t-25 -10t-24.5 10t-9.5 24q0 15 9.5 24.5zM124 -44q0 7 4 11.5t10 4.5q7 0 11 -4.5t4 -11.5v-19h-29v19zM170 122v-28l-39 14z" />
    <glyph glyph-name="greater" unicode="&#x3e;" 
d="M125 -132h86v-24h-86v-30h-22v84h22v-30zM116.5 381.5q16.5 -16.5 40.5 -16.5t40.5 16.5t16.5 41.5t-16.5 41.5t-40.5 16.5t-40.5 -16.5t-16.5 -41.5t16.5 -41.5zM211 -86v23h-37v16l37 21v26l-41 -24q-10 20 -31 20q-16 0 -26 -10.5t-10 -27.5v-44h108zM103 40h108v-24
h-108v24zM211 54v25l-20 7v43l20 8v26l-108 -44v-23zM211 176v66h-21v-42h-87v-24h108zM211 290v23h-41v38h-22v-38h-23v42h-22v-65h108zM211 499v23h-68l68 50v19h-108v-23h66l-66 -47v-22h108zM125 607v30h86v24h-86v30h-22v-84h22zM132.5 447.5q9.5 9.5 24.5 9.5t25 -9.5
t10 -24.5q0 -14 -10 -24t-25 -10t-24.5 10t-9.5 24q0 15 9.5 24.5zM124 -44q0 7 4 11.5t10 4.5q7 0 11 -4.5t4 -11.5v-19h-29v19zM170 122v-28l-39 14z" />
    <glyph glyph-name="less" unicode="&#x3c;" 
d="M125 -132h86v-24h-86v-30h-22v84h22v-30zM116.5 381.5q16.5 -16.5 40.5 -16.5t40.5 16.5t16.5 41.5t-16.5 41.5t-40.5 16.5t-40.5 -16.5t-16.5 -41.5t16.5 -41.5zM211 -86v23h-37v16l37 21v26l-41 -24q-10 20 -31 20q-16 0 -26 -10.5t-10 -27.5v-44h108zM103 40h108v-24
h-108v24zM211 54v25l-20 7v43l20 8v26l-108 -44v-23zM211 176v66h-21v-42h-87v-24h108zM211 290v23h-41v38h-22v-38h-23v42h-22v-65h108zM211 499v23h-68l68 50v19h-108v-23h66l-66 -47v-22h108zM125 607v30h86v24h-86v30h-22v-84h22zM132.5 447.5q9.5 9.5 24.5 9.5t25 -9.5
t10 -24.5q0 -14 -10 -24t-25 -10t-24.5 10t-9.5 24q0 15 9.5 24.5zM124 -44q0 7 4 11.5t10 4.5q7 0 11 -4.5t4 -11.5v-19h-29v19zM170 122v-28l-39 14z" />
    <glyph glyph-name="plusminus" unicode="&#xb1;" 
d="M125 -132h86v-24h-86v-30h-22v84h22v-30zM116.5 381.5q16.5 -16.5 40.5 -16.5t40.5 16.5t16.5 41.5t-16.5 41.5t-40.5 16.5t-40.5 -16.5t-16.5 -41.5t16.5 -41.5zM211 -86v23h-37v16l37 21v26l-41 -24q-10 20 -31 20q-16 0 -26 -10.5t-10 -27.5v-44h108zM103 40h108v-24
h-108v24zM211 54v25l-20 7v43l20 8v26l-108 -44v-23zM211 176v66h-21v-42h-87v-24h108zM211 290v23h-41v38h-22v-38h-23v42h-22v-65h108zM211 499v23h-68l68 50v19h-108v-23h66l-66 -47v-22h108zM125 607v30h86v24h-86v30h-22v-84h22zM132.5 447.5q9.5 9.5 24.5 9.5t25 -9.5
t10 -24.5q0 -14 -10 -24t-25 -10t-24.5 10t-9.5 24q0 15 9.5 24.5zM124 -44q0 7 4 11.5t10 4.5q7 0 11 -4.5t4 -11.5v-19h-29v19zM170 122v-28l-39 14z" />
    <glyph glyph-name="asciitilde" unicode="~" 
d="M125 -132h86v-24h-86v-30h-22v84h22v-30zM116.5 381.5q16.5 -16.5 40.5 -16.5t40.5 16.5t16.5 41.5t-16.5 41.5t-40.5 16.5t-40.5 -16.5t-16.5 -41.5t16.5 -41.5zM211 -86v23h-37v16l37 21v26l-41 -24q-10 20 -31 20q-16 0 -26 -10.5t-10 -27.5v-44h108zM103 40h108v-24
h-108v24zM211 54v25l-20 7v43l20 8v26l-108 -44v-23zM211 176v66h-21v-42h-87v-24h108zM211 290v23h-41v38h-22v-38h-23v42h-22v-65h108zM211 499v23h-68l68 50v19h-108v-23h66l-66 -47v-22h108zM125 607v30h86v24h-86v30h-22v-84h22zM132.5 447.5q9.5 9.5 24.5 9.5t25 -9.5
t10 -24.5q0 -14 -10 -24t-25 -10t-24.5 10t-9.5 24q0 15 9.5 24.5zM124 -44q0 7 4 11.5t10 4.5q7 0 11 -4.5t4 -11.5v-19h-29v19zM170 122v-28l-39 14z" />
    <glyph glyph-name="logicalnot" unicode="&#xac;" 
d="M125 -132h86v-24h-86v-30h-22v84h22v-30zM116.5 381.5q16.5 -16.5 40.5 -16.5t40.5 16.5t16.5 41.5t-16.5 41.5t-40.5 16.5t-40.5 -16.5t-16.5 -41.5t16.5 -41.5zM211 -86v23h-37v16l37 21v26l-41 -24q-10 20 -31 20q-16 0 -26 -10.5t-10 -27.5v-44h108zM103 40h108v-24
h-108v24zM211 54v25l-20 7v43l20 8v26l-108 -44v-23zM211 176v66h-21v-42h-87v-24h108zM211 290v23h-41v38h-22v-38h-23v42h-22v-65h108zM211 499v23h-68l68 50v19h-108v-23h66l-66 -47v-22h108zM125 607v30h86v24h-86v30h-22v-84h22zM132.5 447.5q9.5 9.5 24.5 9.5t25 -9.5
t10 -24.5q0 -14 -10 -24t-25 -10t-24.5 10t-9.5 24q0 15 9.5 24.5zM124 -44q0 7 4 11.5t10 4.5q7 0 11 -4.5t4 -11.5v-19h-29v19zM170 122v-28l-39 14z" />
    <glyph glyph-name="asciicircum" unicode="^" 
d="M125 -132h86v-24h-86v-30h-22v84h22v-30zM116.5 381.5q16.5 -16.5 40.5 -16.5t40.5 16.5t16.5 41.5t-16.5 41.5t-40.5 16.5t-40.5 -16.5t-16.5 -41.5t16.5 -41.5zM211 -86v23h-37v16l37 21v26l-41 -24q-10 20 -31 20q-16 0 -26 -10.5t-10 -27.5v-44h108zM103 40h108v-24
h-108v24zM211 54v25l-20 7v43l20 8v26l-108 -44v-23zM211 176v66h-21v-42h-87v-24h108zM211 290v23h-41v38h-22v-38h-23v42h-22v-65h108zM211 499v23h-68l68 50v19h-108v-23h66l-66 -47v-22h108zM125 607v30h86v24h-86v30h-22v-84h22zM132.5 447.5q9.5 9.5 24.5 9.5t25 -9.5
t10 -24.5q0 -14 -10 -24t-25 -10t-24.5 10t-9.5 24q0 15 9.5 24.5zM124 -44q0 7 4 11.5t10 4.5q7 0 11 -4.5t4 -11.5v-19h-29v19zM170 122v-28l-39 14z" />
    <glyph glyph-name="uni00B5" unicode="&#xb5;" 
d="M125 -132h86v-24h-86v-30h-22v84h22v-30zM116.5 381.5q16.5 -16.5 40.5 -16.5t40.5 16.5t16.5 41.5t-16.5 41.5t-40.5 16.5t-40.5 -16.5t-16.5 -41.5t16.5 -41.5zM211 -86v23h-37v16l37 21v26l-41 -24q-10 20 -31 20q-16 0 -26 -10.5t-10 -27.5v-44h108zM103 40h108v-24
h-108v24zM211 54v25l-20 7v43l20 8v26l-108 -44v-23zM211 176v66h-21v-42h-87v-24h108zM211 290v23h-41v38h-22v-38h-23v42h-22v-65h108zM211 499v23h-68l68 50v19h-108v-23h66l-66 -47v-22h108zM125 607v30h86v24h-86v30h-22v-84h22zM132.5 447.5q9.5 9.5 24.5 9.5t25 -9.5
t10 -24.5q0 -14 -10 -24t-25 -10t-24.5 10t-9.5 24q0 15 9.5 24.5zM124 -44q0 7 4 11.5t10 4.5q7 0 11 -4.5t4 -11.5v-19h-29v19zM170 122v-28l-39 14z" />
    <glyph glyph-name="percent" unicode="%" 
d="M125 -132h86v-24h-86v-30h-22v84h22v-30zM116.5 381.5q16.5 -16.5 40.5 -16.5t40.5 16.5t16.5 41.5t-16.5 41.5t-40.5 16.5t-40.5 -16.5t-16.5 -41.5t16.5 -41.5zM211 -86v23h-37v16l37 21v26l-41 -24q-10 20 -31 20q-16 0 -26 -10.5t-10 -27.5v-44h108zM103 40h108v-24
h-108v24zM211 54v25l-20 7v43l20 8v26l-108 -44v-23zM211 176v66h-21v-42h-87v-24h108zM211 290v23h-41v38h-22v-38h-23v42h-22v-65h108zM211 499v23h-68l68 50v19h-108v-23h66l-66 -47v-22h108zM125 607v30h86v24h-86v30h-22v-84h22zM132.5 447.5q9.5 9.5 24.5 9.5t25 -9.5
t10 -24.5q0 -14 -10 -24t-25 -10t-24.5 10t-9.5 24q0 15 9.5 24.5zM124 -44q0 7 4 11.5t10 4.5q7 0 11 -4.5t4 -11.5v-19h-29v19zM170 122v-28l-39 14z" />
    <glyph glyph-name="perthousand" unicode="&#x2030;" 
d="M125 -132h86v-24h-86v-30h-22v84h22v-30zM116.5 381.5q16.5 -16.5 40.5 -16.5t40.5 16.5t16.5 41.5t-16.5 41.5t-40.5 16.5t-40.5 -16.5t-16.5 -41.5t16.5 -41.5zM211 -86v23h-37v16l37 21v26l-41 -24q-10 20 -31 20q-16 0 -26 -10.5t-10 -27.5v-44h108zM103 40h108v-24
h-108v24zM211 54v25l-20 7v43l20 8v26l-108 -44v-23zM211 176v66h-21v-42h-87v-24h108zM211 290v23h-41v38h-22v-38h-23v42h-22v-65h108zM211 499v23h-68l68 50v19h-108v-23h66l-66 -47v-22h108zM125 607v30h86v24h-86v30h-22v-84h22zM132.5 447.5q9.5 9.5 24.5 9.5t25 -9.5
t10 -24.5q0 -14 -10 -24t-25 -10t-24.5 10t-9.5 24q0 15 9.5 24.5zM124 -44q0 7 4 11.5t10 4.5q7 0 11 -4.5t4 -11.5v-19h-29v19zM170 122v-28l-39 14z" />
    <glyph glyph-name="at" unicode="@" 
d="M125 -132h86v-24h-86v-30h-22v84h22v-30zM116.5 381.5q16.5 -16.5 40.5 -16.5t40.5 16.5t16.5 41.5t-16.5 41.5t-40.5 16.5t-40.5 -16.5t-16.5 -41.5t16.5 -41.5zM211 -86v23h-37v16l37 21v26l-41 -24q-10 20 -31 20q-16 0 -26 -10.5t-10 -27.5v-44h108zM103 40h108v-24
h-108v24zM211 54v25l-20 7v43l20 8v26l-108 -44v-23zM211 176v66h-21v-42h-87v-24h108zM211 290v23h-41v38h-22v-38h-23v42h-22v-65h108zM211 499v23h-68l68 50v19h-108v-23h66l-66 -47v-22h108zM125 607v30h86v24h-86v30h-22v-84h22zM132.5 447.5q9.5 9.5 24.5 9.5t25 -9.5
t10 -24.5q0 -14 -10 -24t-25 -10t-24.5 10t-9.5 24q0 15 9.5 24.5zM124 -44q0 7 4 11.5t10 4.5q7 0 11 -4.5t4 -11.5v-19h-29v19zM170 122v-28l-39 14z" />
    <glyph glyph-name="ampersand" unicode="&#x26;" 
d="M125 -132h86v-24h-86v-30h-22v84h22v-30zM116.5 381.5q16.5 -16.5 40.5 -16.5t40.5 16.5t16.5 41.5t-16.5 41.5t-40.5 16.5t-40.5 -16.5t-16.5 -41.5t16.5 -41.5zM211 -86v23h-37v16l37 21v26l-41 -24q-10 20 -31 20q-16 0 -26 -10.5t-10 -27.5v-44h108zM103 40h108v-24
h-108v24zM211 54v25l-20 7v43l20 8v26l-108 -44v-23zM211 176v66h-21v-42h-87v-24h108zM211 290v23h-41v38h-22v-38h-23v42h-22v-65h108zM211 499v23h-68l68 50v19h-108v-23h66l-66 -47v-22h108zM125 607v30h86v24h-86v30h-22v-84h22zM132.5 447.5q9.5 9.5 24.5 9.5t25 -9.5
t10 -24.5q0 -14 -10 -24t-25 -10t-24.5 10t-9.5 24q0 15 9.5 24.5zM124 -44q0 7 4 11.5t10 4.5q7 0 11 -4.5t4 -11.5v-19h-29v19zM170 122v-28l-39 14z" />
    <glyph glyph-name="paragraph" unicode="&#xb6;" 
d="M125 -132h86v-24h-86v-30h-22v84h22v-30zM116.5 381.5q16.5 -16.5 40.5 -16.5t40.5 16.5t16.5 41.5t-16.5 41.5t-40.5 16.5t-40.5 -16.5t-16.5 -41.5t16.5 -41.5zM211 -86v23h-37v16l37 21v26l-41 -24q-10 20 -31 20q-16 0 -26 -10.5t-10 -27.5v-44h108zM103 40h108v-24
h-108v24zM211 54v25l-20 7v43l20 8v26l-108 -44v-23zM211 176v66h-21v-42h-87v-24h108zM211 290v23h-41v38h-22v-38h-23v42h-22v-65h108zM211 499v23h-68l68 50v19h-108v-23h66l-66 -47v-22h108zM125 607v30h86v24h-86v30h-22v-84h22zM132.5 447.5q9.5 9.5 24.5 9.5t25 -9.5
t10 -24.5q0 -14 -10 -24t-25 -10t-24.5 10t-9.5 24q0 15 9.5 24.5zM124 -44q0 7 4 11.5t10 4.5q7 0 11 -4.5t4 -11.5v-19h-29v19zM170 122v-28l-39 14z" />
    <glyph glyph-name="section" unicode="&#xa7;" 
d="M125 -132h86v-24h-86v-30h-22v84h22v-30zM116.5 381.5q16.5 -16.5 40.5 -16.5t40.5 16.5t16.5 41.5t-16.5 41.5t-40.5 16.5t-40.5 -16.5t-16.5 -41.5t16.5 -41.5zM211 -86v23h-37v16l37 21v26l-41 -24q-10 20 -31 20q-16 0 -26 -10.5t-10 -27.5v-44h108zM103 40h108v-24
h-108v24zM211 54v25l-20 7v43l20 8v26l-108 -44v-23zM211 176v66h-21v-42h-87v-24h108zM211 290v23h-41v38h-22v-38h-23v42h-22v-65h108zM211 499v23h-68l68 50v19h-108v-23h66l-66 -47v-22h108zM125 607v30h86v24h-86v30h-22v-84h22zM132.5 447.5q9.5 9.5 24.5 9.5t25 -9.5
t10 -24.5q0 -14 -10 -24t-25 -10t-24.5 10t-9.5 24q0 15 9.5 24.5zM124 -44q0 7 4 11.5t10 4.5q7 0 11 -4.5t4 -11.5v-19h-29v19zM170 122v-28l-39 14z" />
    <glyph glyph-name="copyright" unicode="&#xa9;" 
d="M125 -132h86v-24h-86v-30h-22v84h22v-30zM116.5 381.5q16.5 -16.5 40.5 -16.5t40.5 16.5t16.5 41.5t-16.5 41.5t-40.5 16.5t-40.5 -16.5t-16.5 -41.5t16.5 -41.5zM211 -86v23h-37v16l37 21v26l-41 -24q-10 20 -31 20q-16 0 -26 -10.5t-10 -27.5v-44h108zM103 40h108v-24
h-108v24zM211 54v25l-20 7v43l20 8v26l-108 -44v-23zM211 176v66h-21v-42h-87v-24h108zM211 290v23h-41v38h-22v-38h-23v42h-22v-65h108zM211 499v23h-68l68 50v19h-108v-23h66l-66 -47v-22h108zM125 607v30h86v24h-86v30h-22v-84h22zM132.5 447.5q9.5 9.5 24.5 9.5t25 -9.5
t10 -24.5q0 -14 -10 -24t-25 -10t-24.5 10t-9.5 24q0 15 9.5 24.5zM124 -44q0 7 4 11.5t10 4.5q7 0 11 -4.5t4 -11.5v-19h-29v19zM170 122v-28l-39 14z" />
    <glyph glyph-name="registered" unicode="&#xae;" 
d="M125 -132h86v-24h-86v-30h-22v84h22v-30zM116.5 381.5q16.5 -16.5 40.5 -16.5t40.5 16.5t16.5 41.5t-16.5 41.5t-40.5 16.5t-40.5 -16.5t-16.5 -41.5t16.5 -41.5zM211 -86v23h-37v16l37 21v26l-41 -24q-10 20 -31 20q-16 0 -26 -10.5t-10 -27.5v-44h108zM103 40h108v-24
h-108v24zM211 54v25l-20 7v43l20 8v26l-108 -44v-23zM211 176v66h-21v-42h-87v-24h108zM211 290v23h-41v38h-22v-38h-23v42h-22v-65h108zM211 499v23h-68l68 50v19h-108v-23h66l-66 -47v-22h108zM125 607v30h86v24h-86v30h-22v-84h22zM132.5 447.5q9.5 9.5 24.5 9.5t25 -9.5
t10 -24.5q0 -14 -10 -24t-25 -10t-24.5 10t-9.5 24q0 15 9.5 24.5zM124 -44q0 7 4 11.5t10 4.5q7 0 11 -4.5t4 -11.5v-19h-29v19zM170 122v-28l-39 14z" />
    <glyph glyph-name="trademark" unicode="&#x2122;" 
d="M125 -132h86v-24h-86v-30h-22v84h22v-30zM116.5 381.5q16.5 -16.5 40.5 -16.5t40.5 16.5t16.5 41.5t-16.5 41.5t-40.5 16.5t-40.5 -16.5t-16.5 -41.5t16.5 -41.5zM211 -86v23h-37v16l37 21v26l-41 -24q-10 20 -31 20q-16 0 -26 -10.5t-10 -27.5v-44h108zM103 40h108v-24
h-108v24zM211 54v25l-20 7v43l20 8v26l-108 -44v-23zM211 176v66h-21v-42h-87v-24h108zM211 290v23h-41v38h-22v-38h-23v42h-22v-65h108zM211 499v23h-68l68 50v19h-108v-23h66l-66 -47v-22h108zM125 607v30h86v24h-86v30h-22v-84h22zM132.5 447.5q9.5 9.5 24.5 9.5t25 -9.5
t10 -24.5q0 -14 -10 -24t-25 -10t-24.5 10t-9.5 24q0 15 9.5 24.5zM124 -44q0 7 4 11.5t10 4.5q7 0 11 -4.5t4 -11.5v-19h-29v19zM170 122v-28l-39 14z" />
    <glyph glyph-name="degree" unicode="&#xb0;" 
d="M125 -132h86v-24h-86v-30h-22v84h22v-30zM116.5 381.5q16.5 -16.5 40.5 -16.5t40.5 16.5t16.5 41.5t-16.5 41.5t-40.5 16.5t-40.5 -16.5t-16.5 -41.5t16.5 -41.5zM211 -86v23h-37v16l37 21v26l-41 -24q-10 20 -31 20q-16 0 -26 -10.5t-10 -27.5v-44h108zM103 40h108v-24
h-108v24zM211 54v25l-20 7v43l20 8v26l-108 -44v-23zM211 176v66h-21v-42h-87v-24h108zM211 290v23h-41v38h-22v-38h-23v42h-22v-65h108zM211 499v23h-68l68 50v19h-108v-23h66l-66 -47v-22h108zM125 607v30h86v24h-86v30h-22v-84h22zM132.5 447.5q9.5 9.5 24.5 9.5t25 -9.5
t10 -24.5q0 -14 -10 -24t-25 -10t-24.5 10t-9.5 24q0 15 9.5 24.5zM124 -44q0 7 4 11.5t10 4.5q7 0 11 -4.5t4 -11.5v-19h-29v19zM170 122v-28l-39 14z" />
    <glyph glyph-name="bar" unicode="|" 
d="M125 -132h86v-24h-86v-30h-22v84h22v-30zM116.5 381.5q16.5 -16.5 40.5 -16.5t40.5 16.5t16.5 41.5t-16.5 41.5t-40.5 16.5t-40.5 -16.5t-16.5 -41.5t16.5 -41.5zM211 -86v23h-37v16l37 21v26l-41 -24q-10 20 -31 20q-16 0 -26 -10.5t-10 -27.5v-44h108zM103 40h108v-24
h-108v24zM211 54v25l-20 7v43l20 8v26l-108 -44v-23zM211 176v66h-21v-42h-87v-24h108zM211 290v23h-41v38h-22v-38h-23v42h-22v-65h108zM211 499v23h-68l68 50v19h-108v-23h66l-66 -47v-22h108zM125 607v30h86v24h-86v30h-22v-84h22zM132.5 447.5q9.5 9.5 24.5 9.5t25 -9.5
t10 -24.5q0 -14 -10 -24t-25 -10t-24.5 10t-9.5 24q0 15 9.5 24.5zM124 -44q0 7 4 11.5t10 4.5q7 0 11 -4.5t4 -11.5v-19h-29v19zM170 122v-28l-39 14z" />
    <glyph glyph-name="brokenbar" unicode="&#xa6;" 
d="M125 -132h86v-24h-86v-30h-22v84h22v-30zM116.5 381.5q16.5 -16.5 40.5 -16.5t40.5 16.5t16.5 41.5t-16.5 41.5t-40.5 16.5t-40.5 -16.5t-16.5 -41.5t16.5 -41.5zM211 -86v23h-37v16l37 21v26l-41 -24q-10 20 -31 20q-16 0 -26 -10.5t-10 -27.5v-44h108zM103 40h108v-24
h-108v24zM211 54v25l-20 7v43l20 8v26l-108 -44v-23zM211 176v66h-21v-42h-87v-24h108zM211 290v23h-41v38h-22v-38h-23v42h-22v-65h108zM211 499v23h-68l68 50v19h-108v-23h66l-66 -47v-22h108zM125 607v30h86v24h-86v30h-22v-84h22zM132.5 447.5q9.5 9.5 24.5 9.5t25 -9.5
t10 -24.5q0 -14 -10 -24t-25 -10t-24.5 10t-9.5 24q0 15 9.5 24.5zM124 -44q0 7 4 11.5t10 4.5q7 0 11 -4.5t4 -11.5v-19h-29v19zM170 122v-28l-39 14z" />
    <glyph glyph-name="dagger" unicode="&#x2020;" 
d="M125 -132h86v-24h-86v-30h-22v84h22v-30zM116.5 381.5q16.5 -16.5 40.5 -16.5t40.5 16.5t16.5 41.5t-16.5 41.5t-40.5 16.5t-40.5 -16.5t-16.5 -41.5t16.5 -41.5zM211 -86v23h-37v16l37 21v26l-41 -24q-10 20 -31 20q-16 0 -26 -10.5t-10 -27.5v-44h108zM103 40h108v-24
h-108v24zM211 54v25l-20 7v43l20 8v26l-108 -44v-23zM211 176v66h-21v-42h-87v-24h108zM211 290v23h-41v38h-22v-38h-23v42h-22v-65h108zM211 499v23h-68l68 50v19h-108v-23h66l-66 -47v-22h108zM125 607v30h86v24h-86v30h-22v-84h22zM132.5 447.5q9.5 9.5 24.5 9.5t25 -9.5
t10 -24.5q0 -14 -10 -24t-25 -10t-24.5 10t-9.5 24q0 15 9.5 24.5zM124 -44q0 7 4 11.5t10 4.5q7 0 11 -4.5t4 -11.5v-19h-29v19zM170 122v-28l-39 14z" />
    <glyph glyph-name="daggerdbl" unicode="&#x2021;" 
d="M125 -132h86v-24h-86v-30h-22v84h22v-30zM116.5 381.5q16.5 -16.5 40.5 -16.5t40.5 16.5t16.5 41.5t-16.5 41.5t-40.5 16.5t-40.5 -16.5t-16.5 -41.5t16.5 -41.5zM211 -86v23h-37v16l37 21v26l-41 -24q-10 20 -31 20q-16 0 -26 -10.5t-10 -27.5v-44h108zM103 40h108v-24
h-108v24zM211 54v25l-20 7v43l20 8v26l-108 -44v-23zM211 176v66h-21v-42h-87v-24h108zM211 290v23h-41v38h-22v-38h-23v42h-22v-65h108zM211 499v23h-68l68 50v19h-108v-23h66l-66 -47v-22h108zM125 607v30h86v24h-86v30h-22v-84h22zM132.5 447.5q9.5 9.5 24.5 9.5t25 -9.5
t10 -24.5q0 -14 -10 -24t-25 -10t-24.5 10t-9.5 24q0 15 9.5 24.5zM124 -44q0 7 4 11.5t10 4.5q7 0 11 -4.5t4 -11.5v-19h-29v19zM170 122v-28l-39 14z" />
    <glyph glyph-name="acute" unicode="&#xb4;" 
d="M125 -132h86v-24h-86v-30h-22v84h22v-30zM116.5 381.5q16.5 -16.5 40.5 -16.5t40.5 16.5t16.5 41.5t-16.5 41.5t-40.5 16.5t-40.5 -16.5t-16.5 -41.5t16.5 -41.5zM211 -86v23h-37v16l37 21v26l-41 -24q-10 20 -31 20q-16 0 -26 -10.5t-10 -27.5v-44h108zM103 40h108v-24
h-108v24zM211 54v25l-20 7v43l20 8v26l-108 -44v-23zM211 176v66h-21v-42h-87v-24h108zM211 290v23h-41v38h-22v-38h-23v42h-22v-65h108zM211 499v23h-68l68 50v19h-108v-23h66l-66 -47v-22h108zM125 607v30h86v24h-86v30h-22v-84h22zM132.5 447.5q9.5 9.5 24.5 9.5t25 -9.5
t10 -24.5q0 -14 -10 -24t-25 -10t-24.5 10t-9.5 24q0 15 9.5 24.5zM124 -44q0 7 4 11.5t10 4.5q7 0 11 -4.5t4 -11.5v-19h-29v19zM170 122v-28l-39 14z" />
    <glyph glyph-name="cedilla" unicode="&#xb8;" 
d="M125 -132h86v-24h-86v-30h-22v84h22v-30zM116.5 381.5q16.5 -16.5 40.5 -16.5t40.5 16.5t16.5 41.5t-16.5 41.5t-40.5 16.5t-40.5 -16.5t-16.5 -41.5t16.5 -41.5zM211 -86v23h-37v16l37 21v26l-41 -24q-10 20 -31 20q-16 0 -26 -10.5t-10 -27.5v-44h108zM103 40h108v-24
h-108v24zM211 54v25l-20 7v43l20 8v26l-108 -44v-23zM211 176v66h-21v-42h-87v-24h108zM211 290v23h-41v38h-22v-38h-23v42h-22v-65h108zM211 499v23h-68l68 50v19h-108v-23h66l-66 -47v-22h108zM125 607v30h86v24h-86v30h-22v-84h22zM132.5 447.5q9.5 9.5 24.5 9.5t25 -9.5
t10 -24.5q0 -14 -10 -24t-25 -10t-24.5 10t-9.5 24q0 15 9.5 24.5zM124 -44q0 7 4 11.5t10 4.5q7 0 11 -4.5t4 -11.5v-19h-29v19zM170 122v-28l-39 14z" />
    <glyph glyph-name="circumflex" unicode="&#x2c6;" 
d="M125 -132h86v-24h-86v-30h-22v84h22v-30zM116.5 381.5q16.5 -16.5 40.5 -16.5t40.5 16.5t16.5 41.5t-16.5 41.5t-40.5 16.5t-40.5 -16.5t-16.5 -41.5t16.5 -41.5zM211 -86v23h-37v16l37 21v26l-41 -24q-10 20 -31 20q-16 0 -26 -10.5t-10 -27.5v-44h108zM103 40h108v-24
h-108v24zM211 54v25l-20 7v43l20 8v26l-108 -44v-23zM211 176v66h-21v-42h-87v-24h108zM211 290v23h-41v38h-22v-38h-23v42h-22v-65h108zM211 499v23h-68l68 50v19h-108v-23h66l-66 -47v-22h108zM125 607v30h86v24h-86v30h-22v-84h22zM132.5 447.5q9.5 9.5 24.5 9.5t25 -9.5
t10 -24.5q0 -14 -10 -24t-25 -10t-24.5 10t-9.5 24q0 15 9.5 24.5zM124 -44q0 7 4 11.5t10 4.5q7 0 11 -4.5t4 -11.5v-19h-29v19zM170 122v-28l-39 14z" />
    <glyph glyph-name="dieresis" unicode="&#xa8;" 
d="M125 -132h86v-24h-86v-30h-22v84h22v-30zM116.5 381.5q16.5 -16.5 40.5 -16.5t40.5 16.5t16.5 41.5t-16.5 41.5t-40.5 16.5t-40.5 -16.5t-16.5 -41.5t16.5 -41.5zM211 -86v23h-37v16l37 21v26l-41 -24q-10 20 -31 20q-16 0 -26 -10.5t-10 -27.5v-44h108zM103 40h108v-24
h-108v24zM211 54v25l-20 7v43l20 8v26l-108 -44v-23zM211 176v66h-21v-42h-87v-24h108zM211 290v23h-41v38h-22v-38h-23v42h-22v-65h108zM211 499v23h-68l68 50v19h-108v-23h66l-66 -47v-22h108zM125 607v30h86v24h-86v30h-22v-84h22zM132.5 447.5q9.5 9.5 24.5 9.5t25 -9.5
t10 -24.5q0 -14 -10 -24t-25 -10t-24.5 10t-9.5 24q0 15 9.5 24.5zM124 -44q0 7 4 11.5t10 4.5q7 0 11 -4.5t4 -11.5v-19h-29v19zM170 122v-28l-39 14z" />
    <glyph glyph-name="grave" unicode="`" 
d="M125 -132h86v-24h-86v-30h-22v84h22v-30zM116.5 381.5q16.5 -16.5 40.5 -16.5t40.5 16.5t16.5 41.5t-16.5 41.5t-40.5 16.5t-40.5 -16.5t-16.5 -41.5t16.5 -41.5zM211 -86v23h-37v16l37 21v26l-41 -24q-10 20 -31 20q-16 0 -26 -10.5t-10 -27.5v-44h108zM103 40h108v-24
h-108v24zM211 54v25l-20 7v43l20 8v26l-108 -44v-23zM211 176v66h-21v-42h-87v-24h108zM211 290v23h-41v38h-22v-38h-23v42h-22v-65h108zM211 499v23h-68l68 50v19h-108v-23h66l-66 -47v-22h108zM125 607v30h86v24h-86v30h-22v-84h22zM132.5 447.5q9.5 9.5 24.5 9.5t25 -9.5
t10 -24.5q0 -14 -10 -24t-25 -10t-24.5 10t-9.5 24q0 15 9.5 24.5zM124 -44q0 7 4 11.5t10 4.5q7 0 11 -4.5t4 -11.5v-19h-29v19zM170 122v-28l-39 14z" />
    <glyph glyph-name="macron" unicode="&#xaf;" 
d="M125 -132h86v-24h-86v-30h-22v84h22v-30zM116.5 381.5q16.5 -16.5 40.5 -16.5t40.5 16.5t16.5 41.5t-16.5 41.5t-40.5 16.5t-40.5 -16.5t-16.5 -41.5t16.5 -41.5zM211 -86v23h-37v16l37 21v26l-41 -24q-10 20 -31 20q-16 0 -26 -10.5t-10 -27.5v-44h108zM103 40h108v-24
h-108v24zM211 54v25l-20 7v43l20 8v26l-108 -44v-23zM211 176v66h-21v-42h-87v-24h108zM211 290v23h-41v38h-22v-38h-23v42h-22v-65h108zM211 499v23h-68l68 50v19h-108v-23h66l-66 -47v-22h108zM125 607v30h86v24h-86v30h-22v-84h22zM132.5 447.5q9.5 9.5 24.5 9.5t25 -9.5
t10 -24.5q0 -14 -10 -24t-25 -10t-24.5 10t-9.5 24q0 15 9.5 24.5zM124 -44q0 7 4 11.5t10 4.5q7 0 11 -4.5t4 -11.5v-19h-29v19zM170 122v-28l-39 14z" />
    <glyph glyph-name="tilde" unicode="&#x2dc;" 
d="M125 -132h86v-24h-86v-30h-22v84h22v-30zM116.5 381.5q16.5 -16.5 40.5 -16.5t40.5 16.5t16.5 41.5t-16.5 41.5t-40.5 16.5t-40.5 -16.5t-16.5 -41.5t16.5 -41.5zM211 -86v23h-37v16l37 21v26l-41 -24q-10 20 -31 20q-16 0 -26 -10.5t-10 -27.5v-44h108zM103 40h108v-24
h-108v24zM211 54v25l-20 7v43l20 8v26l-108 -44v-23zM211 176v66h-21v-42h-87v-24h108zM211 290v23h-41v38h-22v-38h-23v42h-22v-65h108zM211 499v23h-68l68 50v19h-108v-23h66l-66 -47v-22h108zM125 607v30h86v24h-86v30h-22v-84h22zM132.5 447.5q9.5 9.5 24.5 9.5t25 -9.5
t10 -24.5q0 -14 -10 -24t-25 -10t-24.5 10t-9.5 24q0 15 9.5 24.5zM124 -44q0 7 4 11.5t10 4.5q7 0 11 -4.5t4 -11.5v-19h-29v19zM170 122v-28l-39 14z" />
  </font>
</defs>
</svg>
