<svg width="80" height="80" viewBox="0 0 80 80" fill="none" xmlns="http://www.w3.org/2000/svg">
<path d="M65.0566 52.3772C78.2266 35.6772 74.6699 19.1172 65.2099 13.3139C56.2699 7.83054 48.4666 10.0405 43.7799 13.5605L40.3333 16.1405M65.0566 52.3772C61.8966 56.3872 57.7733 60.4005 52.5333 64.2772C47.3833 68.0939 44.8066 70.0005 40.3333 70.0005C35.8599 70.0005 33.2866 68.0939 28.1333 64.2772C1.07327 44.2505 3.7266 20.5105 15.4566 13.3139C24.3966 7.83054 32.1999 10.0405 36.8866 13.5605L40.3333 16.1405M65.0566 52.3772L46.6399 31.4839C46.2742 31.0705 45.7738 30.8001 45.2276 30.7207C44.6814 30.6414 44.1248 30.7582 43.6566 31.0505L36.3699 35.6039C34.941 36.5079 33.2178 36.8243 31.5609 36.4868C29.904 36.1493 28.4418 35.1842 27.4803 33.7933C26.5187 32.4025 26.1323 30.6936 26.4019 29.0243C26.6714 27.3551 27.5761 25.8547 28.9266 24.8372L40.3333 16.1405" stroke="#38DACA" stroke-width="6" stroke-linecap="round" stroke-linejoin="round"/>
</svg>
