<svg width="62" height="80" viewBox="0 0 62 80" fill="none" xmlns="http://www.w3.org/2000/svg">
<path d="M55.3129 53.5143C56.3866 52.4946 57.2416 51.2672 57.8259 49.9066C58.4102 48.546 58.7115 47.0807 58.7115 45.6C58.7115 44.1193 58.4102 42.654 57.8259 41.2934C57.2416 39.9328 56.3866 38.7054 55.3129 37.6857C53.115 35.5997 50.2003 34.4367 47.17 34.4367C44.1398 34.4367 41.2251 35.5997 39.0272 37.6857L30.8557 45.8571L22.6843 37.6857C20.4864 35.5997 17.5717 34.4367 14.5414 34.4367C11.5112 34.4367 8.59651 35.5997 6.39859 37.6857C5.32486 38.7054 4.46984 39.9328 3.88557 41.2934C3.3013 42.654 3 44.1193 3 45.6C3 47.0807 3.3013 48.546 3.88557 49.9066C4.46984 51.2672 5.32486 52.4946 6.39859 53.5143L30.8557 77.2857L55.3129 53.5143ZM30.8557 25.8571C33.8868 25.8571 36.7937 24.6531 38.937 22.5098C41.0802 20.3665 42.2843 17.4596 42.2843 14.4286C42.2843 11.3975 41.0802 8.49062 38.937 6.34735C36.7937 4.20408 33.8868 3 30.8557 3C27.8247 3 24.9178 4.20408 22.7745 6.34735C20.6312 8.49062 19.4272 11.3975 19.4272 14.4286C19.4272 17.4596 20.6312 20.3665 22.7745 22.5098C24.9178 24.6531 27.8247 25.8571 30.8557 25.8571Z" stroke="#38DACA" stroke-width="6" stroke-linecap="round" stroke-linejoin="round"/>
</svg>
