<svg width="73" height="26" viewBox="0 0 73 26" fill="none" xmlns="http://www.w3.org/2000/svg">
<path d="M30.5819 3.2H38.2379C39.4379 3.2 40.4859 3.44 41.3819 3.92C42.2779 4.4 42.9659 5.08 43.4459 5.96C43.9419 6.824 44.1899 7.824 44.1899 8.96C44.1899 10.112 43.9419 11.128 43.4459 12.008C42.9659 12.872 42.2779 13.544 41.3819 14.024C40.4859 14.504 39.4379 14.744 38.2379 14.744H32.9099V20H30.5819V3.2ZM38.1179 12.584C39.2699 12.584 40.1819 12.256 40.8539 11.6C41.5419 10.928 41.8859 10.048 41.8859 8.96C41.8859 7.872 41.5419 7 40.8539 6.344C40.1819 5.688 39.2699 5.36 38.1179 5.36H32.9099V12.584H38.1179ZM51.4578 20.264C50.3058 20.264 49.2818 20 48.3858 19.472C47.4898 18.944 46.7858 18.216 46.2738 17.288C45.7778 16.344 45.5298 15.272 45.5298 14.072C45.5298 12.872 45.7778 11.808 46.2738 10.88C46.7858 9.936 47.4898 9.2 48.3858 8.672C49.2818 8.144 50.3058 7.88 51.4578 7.88C52.4178 7.88 53.2898 8.064 54.0738 8.432C54.8578 8.784 55.4898 9.272 55.9698 9.896L55.9938 8.144H57.9618V20H55.9938L55.9698 18.248C55.4898 18.872 54.8578 19.368 54.0738 19.736C53.2898 20.088 52.4178 20.264 51.4578 20.264ZM47.7617 14.072C47.7617 14.872 47.9298 15.584 48.2658 16.208C48.6018 16.832 49.0738 17.32 49.6818 17.672C50.2898 18.024 50.9778 18.2 51.7458 18.2C52.9138 18.2 53.8658 17.816 54.6018 17.048C55.3538 16.28 55.7298 15.288 55.7298 14.072C55.7298 12.856 55.3538 11.864 54.6018 11.096C53.8658 10.328 52.9138 9.944 51.7458 9.944C50.9778 9.944 50.2898 10.12 49.6818 10.472C49.0738 10.824 48.6018 11.312 48.2658 11.936C47.9298 12.56 47.7617 13.272 47.7617 14.072ZM64.9669 19.928L60.2389 8.144H62.6389L64.9429 14.048L66.2149 17.456L67.6069 14.048L70.0789 8.144H72.4789L64.9909 25.568H62.5429L64.9669 19.928Z" fill="#231F1E"/>
<path d="M14.9392 5.19C15.3172 4.75428 15.6055 4.24817 15.7874 3.70074C15.9693 3.1533 16.0413 2.57533 15.9992 2C14.8386 2.09369 13.7612 2.63956 12.9992 3.52C12.6343 3.94198 12.3578 4.43288 12.186 4.96364C12.0142 5.49441 11.9507 6.05424 11.9992 6.61C12.5653 6.61472 13.125 6.4891 13.6348 6.24286C14.1446 5.99662 14.5909 5.63637 14.9392 5.19ZM17.4592 12.63C17.4659 11.8637 17.6677 11.1118 18.0456 10.4452C18.4236 9.77859 18.9651 9.21926 19.6192 8.82C19.2064 8.22524 18.6607 7.73483 18.0254 7.38767C17.3901 7.04052 16.6827 6.84615 15.9592 6.82C14.3992 6.66 12.9592 7.73 12.1292 7.73C11.2992 7.73 10.1292 6.84 8.82918 6.86C7.97931 6.888 7.1512 7.13578 6.42563 7.57919C5.70005 8.02259 5.10179 8.64648 4.68918 9.39C2.92918 12.45 4.23918 17 5.99918 19.47C6.79918 20.68 7.79918 22.05 9.11918 22C10.4392 21.95 10.8692 21.18 12.3992 21.18C13.9292 21.18 14.3992 22 15.6992 21.97C16.9992 21.94 17.9192 20.73 18.7592 19.52C19.3542 18.6415 19.819 17.6816 20.1392 16.67C19.3467 16.332 18.6705 15.7693 18.1942 15.0513C17.7179 14.3333 17.4624 13.4916 17.4592 12.63Z" fill="#231F1E"/>
</svg>
