<svg width="18" height="18" viewBox="0 0 18 18" fill="none" xmlns="http://www.w3.org/2000/svg">
<path d="M14.8337 2.33333H13.167V1.5C13.167 1.27899 13.0792 1.06702 12.9229 0.910745C12.7666 0.754464 12.5547 0.666667 12.3337 0.666667C12.1126 0.666667 11.9007 0.754464 11.7444 0.910745C11.5881 1.06702 11.5003 1.27899 11.5003 1.5V2.33333H6.50033V1.5C6.50033 1.27899 6.41253 1.06702 6.25625 0.910745C6.09997 0.754464 5.88801 0.666667 5.66699 0.666667C5.44598 0.666667 5.23402 0.754464 5.07774 0.910745C4.92146 1.06702 4.83366 1.27899 4.83366 1.5V2.33333H3.16699C2.50395 2.33333 1.86807 2.59673 1.39923 3.06557C0.930384 3.53441 0.666992 4.17029 0.666992 4.83333V14.8333C0.666992 15.4964 0.930384 16.1323 1.39923 16.6011C1.86807 17.0699 2.50395 17.3333 3.16699 17.3333H14.8337C15.4967 17.3333 16.1326 17.0699 16.6014 16.6011C17.0703 16.1323 17.3337 15.4964 17.3337 14.8333V4.83333C17.3337 4.17029 17.0703 3.53441 16.6014 3.06557C16.1326 2.59673 15.4967 2.33333 14.8337 2.33333ZM15.667 14.8333C15.667 15.0543 15.5792 15.2663 15.4229 15.4226C15.2666 15.5789 15.0547 15.6667 14.8337 15.6667H3.16699C2.94598 15.6667 2.73402 15.5789 2.57774 15.4226C2.42146 15.2663 2.33366 15.0543 2.33366 14.8333V9H15.667V14.8333ZM15.667 7.33333H2.33366V4.83333C2.33366 4.61232 2.42146 4.40036 2.57774 4.24408C2.73402 4.0878 2.94598 4 3.16699 4H4.83366V4.83333C4.83366 5.05435 4.92146 5.26631 5.07774 5.42259C5.23402 5.57887 5.44598 5.66667 5.66699 5.66667C5.88801 5.66667 6.09997 5.57887 6.25625 5.42259C6.41253 5.26631 6.50033 5.05435 6.50033 4.83333V4H11.5003V4.83333C11.5003 5.05435 11.5881 5.26631 11.7444 5.42259C11.9007 5.57887 12.1126 5.66667 12.3337 5.66667C12.5547 5.66667 12.7666 5.57887 12.9229 5.42259C13.0792 5.26631 13.167 5.05435 13.167 4.83333V4H14.8337C15.0547 4 15.2666 4.0878 15.4229 4.24408C15.5792 4.40036 15.667 4.61232 15.667 4.83333V7.33333Z" fill="black"/>
</svg>
