<svg width="12" height="12" viewBox="0 0 12 12" fill="none" xmlns="http://www.w3.org/2000/svg">
<path d="M11.3959 6H4.18883M1.64491 6H0.604248M1.64491 6C1.64491 5.66273 1.77889 5.33928 2.01738 5.1008C2.25586 4.86231 2.57931 4.72833 2.91658 4.72833C3.25385 4.72833 3.5773 4.86231 3.81579 5.1008C4.05427 5.33928 4.18825 5.66273 4.18825 6C4.18825 6.33727 4.05427 6.66072 3.81579 6.8992C3.5773 7.13769 3.25385 7.27167 2.91658 7.27167C2.57931 7.27167 2.25586 7.13769 2.01738 6.8992C1.77889 6.66072 1.64491 6.33727 1.64491 6ZM11.3959 9.85408H8.04292M8.04292 9.85408C8.04292 10.1914 7.90861 10.5152 7.67008 10.7538C7.43154 10.9923 7.10801 11.1263 6.77067 11.1263C6.4334 11.1263 6.10994 10.9918 5.87146 10.7533C5.63298 10.5148 5.499 10.1914 5.499 9.85408M8.04292 9.85408C8.04292 9.51674 7.90861 9.1935 7.67008 8.95496C7.43154 8.71643 7.10801 8.58242 6.77067 8.58242C6.4334 8.58242 6.10994 8.7164 5.87146 8.95488C5.63298 9.19336 5.499 9.51682 5.499 9.85408M5.499 9.85408H0.604248M11.3959 2.14592H9.58467M7.04075 2.14592H0.604248M7.04075 2.14592C7.04075 1.80865 7.17473 1.4852 7.41321 1.24671C7.65169 1.00823 7.97515 0.87425 8.31242 0.87425C8.47941 0.87425 8.64478 0.907143 8.79906 0.97105C8.95335 1.03496 9.09353 1.12863 9.21162 1.24671C9.3297 1.3648 9.42338 1.50499 9.48728 1.65927C9.55119 1.81356 9.58408 1.97892 9.58408 2.14592C9.58408 2.31291 9.55119 2.47828 9.48728 2.63256C9.42338 2.78685 9.3297 2.92704 9.21162 3.04512C9.09353 3.16321 8.95335 3.25688 8.79906 3.32078C8.64478 3.38469 8.47941 3.41758 8.31242 3.41758C7.97515 3.41758 7.65169 3.2836 7.41321 3.04512C7.17473 2.80664 7.04075 2.48318 7.04075 2.14592Z" stroke="#535353" stroke-miterlimit="10" stroke-linecap="round"/>
</svg>
