<svg width="20" height="20" viewBox="0 0 20 20" fill="none" xmlns="http://www.w3.org/2000/svg">
<path fill-rule="evenodd" clip-rule="evenodd" d="M15 0H5C2.25025 0 0 2.24925 0 5V15C0 17.7498 2.25025 20 5 20H15C17.7498 20 20 17.7498 20 15V5C20 2.24925 17.7498 0 15 0ZM9.99995 14.1666C7.69845 14.1666 5.8332 12.3006 5.8332 10.0001C5.8332 7.69858 7.69845 5.83333 9.99995 5.83333C12.3004 5.83333 14.1667 7.69858 14.1667 10.0001C14.1667 12.3006 12.3004 14.1666 9.99995 14.1666ZM14.1668 4.58333C14.1668 5.27358 14.7258 5.83333 15.4168 5.83333C16.1078 5.83333 16.6668 5.27358 16.6668 4.58333C16.6668 3.89308 16.1078 3.33333 15.4168 3.33333C14.7258 3.33333 14.1668 3.89308 14.1668 4.58333Z" fill="#0A142F"/>
</svg>
