<svg width="18" height="18" viewBox="0 0 18 18" fill="none" xmlns="http://www.w3.org/2000/svg">
<path d="M8.99163 0.666656C4.39163 0.666656 0.666626 4.39999 0.666626 8.99999C0.666626 13.6 4.39163 17.3333 8.99163 17.3333C13.6 17.3333 17.3333 13.6 17.3333 8.99999C17.3333 4.39999 13.6 0.666656 8.99163 0.666656ZM14.7666 5.66666H12.3083C12.0471 4.63466 11.6609 3.63841 11.1583 2.69999C12.6784 3.22333 13.9593 4.27643 14.7666 5.66666ZM8.99996 2.36666C9.69163 3.36666 10.2333 4.47499 10.5916 5.66666H7.40829C7.76663 4.47499 8.30829 3.36666 8.99996 2.36666ZM2.54996 10.6667C2.41663 10.1333 2.33329 9.57499 2.33329 8.99999C2.33329 8.42499 2.41663 7.86666 2.54996 7.33332H5.36663C5.29996 7.88332 5.24996 8.43332 5.24996 8.99999C5.24996 9.56666 5.29996 10.1167 5.36663 10.6667H2.54996ZM3.23329 12.3333H5.69163C5.95829 13.375 6.34163 14.375 6.84163 15.3C5.32042 14.7786 4.03891 13.725 3.23329 12.3333ZM5.69163 5.66666H3.23329C4.03891 4.27495 5.32042 3.22133 6.84163 2.69999C6.33903 3.63841 5.95284 4.63466 5.69163 5.66666ZM8.99996 15.6333C8.30829 14.6333 7.76663 13.525 7.40829 12.3333H10.5916C10.2333 13.525 9.69163 14.6333 8.99996 15.6333ZM10.95 10.6667H7.04996C6.97496 10.1167 6.91663 9.56666 6.91663 8.99999C6.91663 8.43332 6.97496 7.87499 7.04996 7.33332H10.95C11.025 7.87499 11.0833 8.43332 11.0833 8.99999C11.0833 9.56666 11.025 10.1167 10.95 10.6667ZM11.1583 15.3C11.6583 14.375 12.0416 13.375 12.3083 12.3333H14.7666C13.9593 13.7236 12.6784 14.7767 11.1583 15.3ZM12.6333 10.6667C12.7 10.1167 12.75 9.56666 12.75 8.99999C12.75 8.43332 12.7 7.88332 12.6333 7.33332H15.45C15.5833 7.86666 15.6666 8.42499 15.6666 8.99999C15.6666 9.57499 15.5833 10.1333 15.45 10.6667H12.6333Z" fill="black"/>
</svg>
