<svg width="32" height="24" viewBox="0 0 32 24" fill="none" xmlns="http://www.w3.org/2000/svg">
<g clip-path="url(#clip0_222_443)">
<path d="M5.81764 23.8807V22.2923C5.81764 21.6832 5.43339 21.2862 4.77477 21.2862C4.44552 21.2862 4.08877 21.3921 3.84177 21.7363C3.64977 21.445 3.37539 21.2862 2.96377 21.2862C2.68927 21.2862 2.41502 21.3656 2.19539 21.6568V21.3391H1.61914V23.8807H2.19539V22.4775C2.19539 22.0275 2.44239 21.8156 2.82664 21.8156C3.21064 21.8156 3.40289 22.054 3.40289 22.4775V23.8807H3.97914V22.4775C3.97914 22.0275 4.25339 21.8156 4.61014 21.8156C4.99439 21.8156 5.18639 22.054 5.18639 22.4775V23.8807H5.81764ZM14.3515 21.3391H13.4186V20.5714H12.8424V21.3391H12.321V21.8421H12.8423V23.0071C12.8423 23.5896 13.0893 23.9337 13.7479 23.9337C13.9949 23.9337 14.2691 23.8543 14.4614 23.7484L14.2966 23.2718C14.132 23.3777 13.94 23.4042 13.8028 23.4042C13.5284 23.4042 13.4186 23.2454 13.4186 22.9805V21.8421H14.3515V21.3391ZM19.236 21.2861C18.9068 21.2861 18.6873 21.445 18.55 21.6568V21.3391H17.9738V23.8807H18.55V22.4511C18.55 22.0275 18.742 21.7892 19.0988 21.7892C19.2085 21.7892 19.3458 21.8158 19.4555 21.8422L19.6201 21.3127C19.5104 21.2862 19.3458 21.2862 19.236 21.2862M11.8545 21.551C11.58 21.3657 11.1959 21.2863 10.7843 21.2863C10.1258 21.2863 9.68677 21.604 9.68677 22.107C9.68677 22.5307 10.016 22.7689 10.5923 22.8484L10.8666 22.8749C11.1685 22.9277 11.3331 23.0072 11.3331 23.1396C11.3331 23.3249 11.1136 23.4573 10.7294 23.4573C10.3451 23.4573 10.0434 23.3249 9.85126 23.1926L9.57689 23.6161C9.87877 23.8279 10.2904 23.9338 10.7019 23.9338C11.4703 23.9338 11.9094 23.5897 11.9094 23.1131C11.9094 22.663 11.5526 22.4247 11.0038 22.3453L10.7294 22.3188C10.4824 22.2923 10.2904 22.2394 10.2904 22.0806C10.2904 21.8952 10.4824 21.7894 10.7843 21.7894C11.1136 21.7894 11.4429 21.9217 11.6075 22.0011L11.8545 21.551ZM27.1664 21.2863C26.837 21.2863 26.6175 21.4452 26.4803 21.6569V21.3393H25.904V23.8808H26.4803V22.4512C26.4803 22.0277 26.6724 21.7894 27.029 21.7894C27.1389 21.7894 27.2761 21.8159 27.3859 21.8423L27.5505 21.3128C27.4408 21.2863 27.2761 21.2863 27.1664 21.2863ZM19.8123 22.6101C19.8123 23.3778 20.361 23.9338 21.2118 23.9338C21.5959 23.9338 21.8703 23.8544 22.1446 23.6427L21.8703 23.1926C21.6508 23.3514 21.4313 23.4308 21.1843 23.4308C20.7178 23.4308 20.3885 23.1131 20.3885 22.6101C20.3885 22.1336 20.7178 21.8158 21.1843 21.7894C21.4313 21.7894 21.6508 21.8687 21.8703 22.0277L22.1446 21.5776C21.8703 21.3657 21.5959 21.2863 21.2118 21.2863C20.361 21.2863 19.8123 21.8423 19.8123 22.6101ZM25.1358 22.6101V21.3393H24.5595V21.6569C24.3674 21.4187 24.093 21.2863 23.7363 21.2863C22.9954 21.2863 22.4191 21.8423 22.4191 22.6101C22.4191 23.3778 22.9954 23.9338 23.7363 23.9338C24.1204 23.9338 24.3949 23.8015 24.5595 23.5632V23.8808H25.1358V22.6101ZM23.0228 22.6101C23.0228 22.16 23.3246 21.7894 23.8185 21.7894C24.285 21.7894 24.6144 22.1336 24.6144 22.6101C24.6144 23.0601 24.285 23.4308 23.8185 23.4308C23.3246 23.4042 23.0228 23.0601 23.0228 22.6101ZM16.1353 21.2863C15.3669 21.2863 14.818 21.8158 14.818 22.6101C14.818 23.4043 15.3668 23.9338 16.1626 23.9338C16.5468 23.9338 16.931 23.8279 17.2329 23.5897L16.9584 23.1926C16.7389 23.3514 16.4645 23.4573 16.1901 23.4573C15.8334 23.4573 15.4766 23.2985 15.3943 22.8482H17.3426V22.6366C17.3701 21.8158 16.8763 21.2863 16.1353 21.2863ZM16.1351 21.7628C16.4918 21.7628 16.7389 21.9747 16.7936 22.3719H15.4216C15.4765 22.0277 15.7235 21.7628 16.1351 21.7628ZM30.4316 22.6101V20.3332H29.8554V21.6569C29.6633 21.4187 29.3889 21.2863 29.0321 21.2863C28.2913 21.2863 27.715 21.8423 27.715 22.6101C27.715 23.3778 28.2913 23.9338 29.0321 23.9338C29.4164 23.9338 29.6908 23.8015 29.8554 23.5632V23.8808H30.4316V22.6101ZM28.3188 22.6101C28.3188 22.16 28.6205 21.7894 29.1145 21.7894C29.581 21.7894 29.9103 22.1336 29.9103 22.6101C29.9103 23.0601 29.581 23.4308 29.1145 23.4308C28.6205 23.4042 28.3188 23.0601 28.3188 22.6101ZM9.05539 22.6101V21.3393H8.47914V21.6569C8.28702 21.4187 8.01264 21.2863 7.65589 21.2863C6.91502 21.2863 6.33877 21.8423 6.33877 22.6101C6.33877 23.3778 6.91502 23.9338 7.65589 23.9338C8.04014 23.9338 8.31452 23.8015 8.47914 23.5632V23.8808H9.05539V22.6101ZM6.91502 22.6101C6.91502 22.16 7.21689 21.7894 7.71077 21.7894C8.17727 21.7894 8.50664 22.1336 8.50664 22.6101C8.50664 23.0601 8.17727 23.4308 7.71077 23.4308C7.21689 23.4042 6.91502 23.0601 6.91502 22.6101Z" fill="black"/>
<path d="M11.6621 2.03856H20.3059V17.0236H11.6621V2.03856Z" fill="#FF5F00"/>
<path d="M12.2111 9.53114C12.2111 6.48651 13.6929 3.78597 15.9704 2.03855C14.2966 0.767759 12.1838 0 9.87875 0C4.41787 0 0 4.26247 0 9.53114C0 14.7998 4.41787 19.0623 9.87862 19.0623C12.1836 19.0623 14.2965 18.2945 15.9704 17.0236C13.6929 15.3027 12.2111 12.5758 12.2111 9.53114Z" fill="#EB001B"/>
<path d="M31.9684 9.53114C31.9684 14.7997 27.5505 19.0623 22.0898 19.0623C19.7848 19.0623 17.6719 18.2945 15.998 17.0236C18.303 15.2763 19.7574 12.5758 19.7574 9.53114C19.7574 6.48651 18.2755 3.78597 15.998 2.03855C17.6718 0.767759 19.7848 0 22.0898 0C27.5505 0 31.9684 4.28901 31.9684 9.53114Z" fill="#F79E1B"/>
</g>
<defs>
<clipPath id="clip0_222_443">
<rect width="32" height="24" fill="white"/>
</clipPath>
</defs>
</svg>
