<svg width="20" height="20" viewBox="0 0 20 20" fill="none" xmlns="http://www.w3.org/2000/svg">
<path d="M9.89336 18.1375C8.90169 18.1375 8.24002 17.6692 7.64919 17.2567C7.22919 16.9592 6.83586 16.6767 6.37169 16.5983C6.15067 16.5605 5.92676 16.5421 5.70252 16.5433C5.30919 16.5433 4.99669 16.6025 4.77419 16.6475C4.63252 16.6725 4.51419 16.6958 4.42086 16.6958C4.32419 16.6958 4.20169 16.6692 4.15419 16.5058C4.11252 16.3725 4.08669 16.2458 4.06086 16.1233C3.99419 15.815 3.93836 15.6258 3.82252 15.6067C2.58169 15.4175 1.83919 15.1317 1.69419 14.7933C1.68252 14.7567 1.66836 14.7183 1.66836 14.6892C1.66002 14.5858 1.73502 14.5 1.83919 14.4808C2.82336 14.3183 3.70752 13.7942 4.45419 12.9325C5.03419 12.2633 5.31669 11.6167 5.34252 11.5467C5.34252 11.5383 5.35002 11.5383 5.35002 11.5383C5.49225 11.2456 5.52058 10.9969 5.43502 10.7925C5.27502 10.4092 4.74752 10.2458 4.38752 10.1342C4.29502 10.1092 4.21669 10.0792 4.15002 10.0567C3.84169 9.93417 3.32836 9.67333 3.39586 9.31333C3.44419 9.05333 3.78919 8.8675 4.07169 8.8675C4.15002 8.86639 4.21669 8.88028 4.27169 8.90917C4.58836 9.05333 4.87419 9.1275 5.11919 9.1275C5.42419 9.1275 5.56919 9.0125 5.60586 8.97583C5.59809 8.811 5.58837 8.64627 5.57669 8.48167C5.50169 7.34417 5.41669 5.9325 5.77669 5.12333C6.85836 2.70083 9.15419 2.50667 9.83419 2.50667L10.1309 2.5H10.1725C10.8517 2.5 13.1475 2.68917 14.2292 5.11583C14.5934 5.925 14.5042 7.34083 14.4292 8.47417L14.4217 8.53C14.415 8.68167 14.4034 8.82667 14.3967 8.97583C14.4334 9.005 14.5667 9.11667 14.8417 9.12C15.08 9.11333 15.34 9.035 15.6367 8.90083C15.7188 8.86524 15.8072 8.84653 15.8967 8.84583C16.0009 8.84583 16.105 8.87083 16.1942 8.90083H16.2017C16.4509 8.99417 16.6142 9.16833 16.6142 9.35083C16.6217 9.52167 16.4875 9.78167 15.8525 10.0383C15.7859 10.0633 15.7075 10.0942 15.615 10.1158C15.2617 10.2242 14.7342 10.395 14.5667 10.7742C14.4742 10.9742 14.5109 11.2308 14.6525 11.5208C14.6525 11.5275 14.66 11.5275 14.66 11.5275C14.7009 11.6317 15.7742 14.0692 18.1634 14.4667C18.2122 14.4749 18.2564 14.5005 18.2878 14.5388C18.3192 14.5771 18.3357 14.6255 18.3342 14.675C18.3347 14.7122 18.3261 14.7481 18.3084 14.7825C18.1634 15.1242 17.4275 15.4025 16.1792 15.5958C16.0642 15.6142 16.0084 15.8042 15.9417 16.1125C15.9152 16.241 15.8843 16.3686 15.8492 16.495C15.8117 16.6175 15.7334 16.6842 15.5992 16.6842H15.5817C15.4629 16.682 15.3445 16.6684 15.2284 16.6433C14.9229 16.5784 14.6115 16.546 14.2992 16.5467C14.0753 16.5473 13.8518 16.566 13.6309 16.6025C13.17 16.6775 12.7725 16.9633 12.3525 17.2608C11.7542 17.6692 11.0892 18.1375 10.105 18.1375H9.89336Z" fill="black"/>
</svg>
