<svg width="20" height="20" viewBox="0 0 20 20" fill="none" xmlns="http://www.w3.org/2000/svg">
<path d="M13.3333 6.87067V12.9165C13.3331 14.0415 12.9825 15.1386 12.3304 16.0553C11.6782 16.972 10.7567 17.6629 9.694 18.0321C8.63125 18.4012 7.47993 18.4303 6.3999 18.1153C5.31987 17.8002 4.36473 17.1567 3.66711 16.2741C2.96949 15.3915 2.56401 14.3135 2.50697 13.1899C2.44993 12.0663 2.74416 10.9529 3.3488 10.0041C3.95345 9.05539 4.83851 8.31846 5.88108 7.89567C6.92365 7.47288 8.072 7.38521 9.16667 7.64484V10.2807C8.59569 10.0098 7.95218 9.93177 7.333 10.0582C6.71382 10.1847 6.15246 10.5088 5.73342 10.9819C5.31437 11.455 5.06031 12.0513 5.00946 12.6812C4.95861 13.3111 5.11373 13.9405 5.45147 14.4747C5.78922 15.0088 6.29131 15.4188 6.88219 15.643C7.47307 15.8671 8.12076 15.8933 8.7278 15.7175C9.33483 15.5418 9.86836 15.1736 10.2481 14.6684C10.6278 14.1633 10.8332 13.5485 10.8333 12.9165V1.6665H13.3333C13.3333 2.77157 13.7723 3.83138 14.5537 4.61278C15.3351 5.39418 16.3949 5.83317 17.5 5.83317V8.33317C15.985 8.33517 14.5148 7.81913 13.3333 6.87067Z" fill="black"/>
</svg>
