<svg width="18" height="18" viewBox="0 0 18 18" fill="none" xmlns="http://www.w3.org/2000/svg">
<path d="M9.00033 4C8.89089 3.99997 8.78251 4.02151 8.68139 4.06338C8.58028 4.10524 8.4884 4.16663 8.41101 4.24401C8.33362 4.3214 8.27224 4.41328 8.23037 4.5144C8.1885 4.61551 8.16697 4.72389 8.167 4.83333V8.16667H6.50033C6.27931 8.16667 6.06735 8.25447 5.91107 8.41075C5.75479 8.56703 5.667 8.77899 5.667 9C5.667 9.22101 5.75479 9.43298 5.91107 9.58926C6.06735 9.74554 6.27931 9.83333 6.50033 9.83333H9.00033C9.10977 9.83336 9.21815 9.81183 9.31927 9.76996C9.42038 9.72809 9.51226 9.66671 9.58965 9.58932C9.66704 9.51193 9.72842 9.42005 9.77029 9.31894C9.81216 9.21782 9.83369 9.10944 9.83366 9V4.83333C9.83369 4.72389 9.81216 4.61551 9.77029 4.5144C9.72842 4.41328 9.66704 4.3214 9.58965 4.24401C9.51226 4.16663 9.42038 4.10524 9.31927 4.06338C9.21815 4.02151 9.10977 3.99997 9.00033 4ZM9.00033 0.666667C7.35215 0.666667 5.74099 1.15541 4.37058 2.07109C3.00017 2.98677 1.93206 4.28825 1.30133 5.81097C0.670603 7.33369 0.505575 9.00924 0.827119 10.6258C1.14866 12.2423 1.94234 13.7271 3.10777 14.8926C4.27321 16.058 5.75807 16.8517 7.37458 17.1732C8.99109 17.4948 10.6666 17.3297 12.1894 16.699C13.7121 16.0683 15.0136 15.0002 15.9292 13.6298C16.8449 12.2593 17.3337 10.6482 17.3337 9C17.3311 6.79064 16.4523 4.67249 14.8901 3.11024C13.3278 1.54798 11.2097 0.669195 9.00033 0.666667ZM9.00033 15.6667C7.68179 15.6667 6.39286 15.2757 5.29653 14.5431C4.2002 13.8106 3.34572 12.7694 2.84113 11.5512C2.33655 10.333 2.20453 8.99261 2.46176 7.6994C2.719 6.40619 3.35393 5.21831 4.28628 4.28596C5.21863 3.35361 6.40652 2.71867 7.69973 2.46143C8.99293 2.2042 10.3334 2.33622 11.5516 2.8408C12.7697 3.34539 13.8109 4.19987 14.5435 5.2962C15.276 6.39253 15.667 7.68146 15.667 9C15.665 10.7675 14.9619 12.462 13.7121 13.7118C12.4623 14.9616 10.7678 15.6646 9.00033 15.6667Z" fill="#231F1E"/>
</svg>
