<svg width="18" height="19" viewBox="0 0 18 19" fill="none" xmlns="http://www.w3.org/2000/svg">
<path d="M16.4993 7.33333C16.6088 7.33335 16.7172 7.31182 16.8183 7.26995C16.9194 7.22808 17.0113 7.1667 17.0887 7.08931C17.1661 7.01192 17.2274 6.92005 17.2693 6.81893C17.3112 6.71781 17.3327 6.60944 17.3327 6.49999V3.99999C17.3328 3.82514 17.2778 3.6547 17.1755 3.51286C17.0733 3.37103 16.9289 3.26499 16.763 3.20979L9.26302 0.709793C9.09186 0.652827 8.90684 0.652827 8.73567 0.709793L1.23567 3.20979C1.06976 3.26499 0.925439 3.37103 0.823187 3.51286C0.720935 3.6547 0.665944 3.82514 0.666016 3.99999V6.49999C0.665987 6.60944 0.687523 6.71781 0.729392 6.81893C0.77126 6.92005 0.832642 7.01192 0.91003 7.08931C0.987418 7.1667 1.07929 7.22808 1.18041 7.26995C1.28153 7.31182 1.38991 7.33335 1.49935 7.33333H2.33268V13.3202C1.84663 13.4914 1.42549 13.8089 1.12707 14.229C0.828657 14.6491 0.667601 15.1513 0.666016 15.6667V17.3333C0.665987 17.4428 0.687523 17.5511 0.729392 17.6523C0.77126 17.7534 0.832642 17.8453 0.91003 17.9226C0.987418 18 1.07929 18.0614 1.18041 18.1033C1.28153 18.1452 1.38991 18.1667 1.49935 18.1667H16.4993C16.6088 18.1667 16.7172 18.1452 16.8183 18.1033C16.9194 18.0614 17.0113 18 17.0887 17.9226C17.1661 17.8453 17.2274 17.7534 17.2693 17.6523C17.3112 17.5511 17.3327 17.4428 17.3327 17.3333V15.6667C17.3311 15.1513 17.17 14.6491 16.8716 14.229C16.5732 13.8089 16.1521 13.4914 15.666 13.3202V7.33333H16.4993ZM15.666 16.5H2.33268V15.6667C2.3329 15.4457 2.42077 15.2339 2.577 15.0776C2.73324 14.9214 2.94507 14.8335 3.16602 14.8333H14.8327C15.0536 14.8335 15.2655 14.9214 15.4217 15.0776C15.5779 15.2339 15.6658 15.4457 15.666 15.6667V16.5ZM3.99935 13.1667V7.33333H5.66602V13.1667H3.99935ZM7.33268 13.1667V7.33333H10.666V13.1667H7.33268ZM12.3327 13.1667V7.33333H13.9993V13.1667H12.3327ZM2.33268 5.66666V4.60058L8.99935 2.37808L15.666 4.60058V5.66666H2.33268Z" fill="black"/>
</svg>
